<mxfile host="65bd71144e">
    <diagram id="PZ_iV-Oot38G7R1ILAnA" name="Page-1">
        <mxGraphModel dx="3908" dy="2169" grid="1" gridSize="10" guides="1" tooltips="1" connect="1" arrows="1" fold="1" page="1" pageScale="1" pageWidth="827" pageHeight="1169" math="0" shadow="0">
            <root>
                <mxCell id="0"/>
                <mxCell id="1" parent="0"/>
                <mxCell id="1384" value="Consumer" style="shape=umlFrame;whiteSpace=wrap;html=1;width=120;height=30;boundedLbl=1;verticalAlign=middle;align=left;spacingLeft=5;strokeWidth=1;fillColor=#60a917;strokeColor=#2D7600;fontColor=#ffffff;" parent="1" vertex="1">
                    <mxGeometry x="-1020" width="600" height="340" as="geometry"/>
                </mxCell>
                <mxCell id="1355" value="" style="shape=image;verticalLabelPosition=bottom;labelBackgroundColor=#ffffff;verticalAlign=top;aspect=fixed;imageAspect=0;image=https://raw.githubusercontent.com/nrekretep/pikturr/master/output-file.png;" parent="1" vertex="1">
                    <mxGeometry x="170" y="-1094" width="2089.32" height="1121" as="geometry"/>
                </mxCell>
                <mxCell id="1385" value="Provider" style="shape=umlFrame;whiteSpace=wrap;html=1;width=120;height=30;boundedLbl=1;verticalAlign=middle;align=left;spacingLeft=5;strokeWidth=1;fillColor=#76608a;fontColor=#ffffff;strokeColor=#432D57;gradientColor=none;sketch=0;shadow=0;" parent="1" vertex="1">
                    <mxGeometry x="-2200" width="620" height="250" as="geometry"/>
                </mxCell>
                <mxCell id="1383" value="Business" style="shape=umlFrame;whiteSpace=wrap;html=1;width=120;height=30;boundedLbl=1;verticalAlign=middle;align=left;spacingLeft=5;strokeWidth=1;" parent="1" vertex="1">
                    <mxGeometry x="-1560" y="-0.27" width="510" height="870" as="geometry"/>
                </mxCell>
                <mxCell id="1274" value="Compose" style="edgeStyle=none;html=1;entryX=0.5;entryY=0;entryDx=0;entryDy=0;endArrow=none;endFill=0;strokeWidth=2;endSize=9;startSize=9;startArrow=diamondThin;startFill=1;exitX=1;exitY=0.5;exitDx=0;exitDy=0;rounded=0;" parent="1" source="1177" target="1237" edge="1">
                    <mxGeometry x="0.4657" relative="1" as="geometry">
                        <Array as="points">
                            <mxPoint x="-1150" y="324"/>
                        </Array>
                        <mxPoint as="offset"/>
                    </mxGeometry>
                </mxCell>
                <mxCell id="1279" value="1" style="edgeLabel;html=1;align=center;verticalAlign=middle;resizable=0;points=[];" parent="1274" connectable="0" vertex="1">
                    <mxGeometry x="-0.7683" y="-2" relative="1" as="geometry">
                        <mxPoint x="-5" y="-16" as="offset"/>
                    </mxGeometry>
                </mxCell>
                <mxCell id="1280" value="1..n" style="edgeLabel;html=1;align=center;verticalAlign=middle;resizable=0;points=[];" parent="1274" connectable="0" vertex="1">
                    <mxGeometry x="0.782" y="2" relative="1" as="geometry">
                        <mxPoint x="16" y="3" as="offset"/>
                    </mxGeometry>
                </mxCell>
                <mxCell id="1273" value="Attache" style="edgeStyle=none;html=1;entryX=0.5;entryY=0;entryDx=0;entryDy=0;endArrow=none;endFill=0;strokeWidth=2;startArrow=diamondThin;startFill=0;endSize=9;startSize=9;rounded=0;" parent="1" source="1177" target="1171" edge="1">
                    <mxGeometry x="0.3168" relative="1" as="geometry">
                        <Array as="points">
                            <mxPoint x="-1400" y="324"/>
                        </Array>
                        <mxPoint as="offset"/>
                    </mxGeometry>
                </mxCell>
                <mxCell id="1275" value="1" style="edgeLabel;html=1;align=center;verticalAlign=middle;resizable=0;points=[];" parent="1273" connectable="0" vertex="1">
                    <mxGeometry x="-0.7559" relative="1" as="geometry">
                        <mxPoint x="10" y="-14" as="offset"/>
                    </mxGeometry>
                </mxCell>
                <mxCell id="1276" value="1..n" style="edgeLabel;html=1;align=center;verticalAlign=middle;resizable=0;points=[];" parent="1273" connectable="0" vertex="1">
                    <mxGeometry x="0.761" y="1" relative="1" as="geometry">
                        <mxPoint x="-18" y="7" as="offset"/>
                    </mxGeometry>
                </mxCell>
                <mxCell id="1286" value="" style="shape=image;verticalLabelPosition=bottom;labelBackgroundColor=#ffffff;verticalAlign=top;aspect=fixed;imageAspect=0;image=data:image/png,iVBORw0KGgoAAAANSUhEUgAAAqkAAAFFCAYAAADPSHSjAAAU60lEQVR4nO3d626kOhYGUGrU7//KzI9RneG4fQUDG2otqdVJAGNsUnwxt8+yLOsCAACB/OfuCgAAQEpIBQAgHCEVAIBwhFQAAMIRUgEACEdIBQAgHCEVAIBwhFQAAMIRUgEACEdIBQAgHCEVAIBwhFQAAMIRUgEACEdIBQAgHCEVAIBwhFQAAMIRUgEACOfP3RWAJ1jX9e4qvNbn87m7CgAEJKRCJ2FqPuEfgBKn+wEACEdIBQAgHCEVAIBwXJMKgdWu2fx8Psu6rq6VBeCVhFQIbBtAc4G0NR0AnsrpfgAAwhFS4cG+lwOk/5d+9v3++w8AohJS4QW+p/nT0/3pJQDf77//BFUAohJS4cVcowrAU7lxCn6M0VMAnkBIhR9jdBWAJ3C6H36YUVUAojKSCi/SelZqerOUUVUAovosy2IoBRo8KP8c2hWAEqf7AQAIR0gFACAcIRUAgHCEVAAAwhFSAQAIR0gFACAcIRUAgHCEVAAAwhFSAQAIR0gFACAcIRUAgHCEVAAAwhFSAQAI58/dFYCnWNf17ioAwM/4LMviyAsvsq7r8vl87q4GABzidD8AAOEIqQAAhCOkAgAQjpAKAEA4QioAAOEIqQAAhCOkAgAQjpAKP25d13/+jS4HAGfxxin4YemD/3tfBCCgAnA2I6nAEG+0AuAKQiowREAF4ApCKgAA4QipAACEI6QCABCOkAoAQDhCKvywz+fzr+ekpo+jyn0NAFf4LMvi6AMv4hFRALyBkVQAAMIRUgEACEdIBQAgHCEVAIBwhFSAE6zr//5FL5PnOmNfGNnH3ro/vmG7erehNc/d7SCkAkz2/WCf8ZCFuw8SOSMh5i3etC0l6/r/fbZne1v7d9Q2q9Vr2wa9y8yyXcfR9fV89pS2NS3nzn70CCp4GY+gepeeAwm/Z/Z+sae8J+6bUbcz/QPh6Pqe2Dc5f+6uAMDd0pGC1mjSdnTh+3VumZ5ySusvjapsDzytdaX1zBk5mJXKGl1nqdztMmkZPdtRK+O7nenPSvXOzZ8rM/d1rU49dS+Vtf2+1i49dc+tv1bf1ra02iJXRul3qFZmWu5I26Xb2RoxzS2TTpvZ37nf+Z7yR/rmaF33lHvkzJLT/cBPax1QP5+/w0EpQLYOtL0hI/2+58DTOmCUjBw4SvUobVuP7fK9Aa2nDtsytsunP6v1SW5bcmWW+j1Xp3Seo+1Xm7e3Dbdt09vHuem1OvW2d65epfWPtt2e7UyXKdV5Rn9vf56ua6QNctNn1XWr5+dHR3SNpAI/a+9f+LVRqivW37tcGqhn6wknI8vvmafnNGnvz3qm5eYphYBanUbWddSRoNDq49E+zM3fsx+PljlqtLxSEDurv1ttkJunFlDPrGtt/aOEVIClfDqv97RYWs52RKSnnNzIzHb5Pes/cpotij1tHkGrTrlTxaXwUDvY98x7Zrv0ln1GH/WMuo8EpSN13NPfveXuWa5Vl9b0nnW22npGXwupABs9owy1D/l0+dHRhLNGVWfoDUt7R1D2BrVW2OsttzXyVJu/doDuGQ3eM601b28b9vbdkXbMzTsySp77vrVtrfZI9dSxZ7S+t7979qPacum03t+dI3Vtzdez/hGuSQV+XvoBu/06HQXtKSv3IV0rp7T+0rTtwWj7fa1OIz8fKSu3vel8pfVsR5l7Txv3ltE62Peus1b/0ny921Wbntue2npH5u3djp56lpbbfj3az7l154JWaVqtPfbsi60229vftc+dkeVG+mZGXffOt8dnWTyCCt7EI6iOK33o7hnlnFHO0x0ZSZktUl227qyXNiEqI6kAFbMOkr96sI0UNCLVZeuOen3/aNImRGYkFV7GSOoc6empvU06qxyOiTqSfVe9ei8VuUPUvuJ6Qiq8jJAKwBs43Q8AQDhCKsDF9t7pCvBLhFQAAMIRUgEACEdIBeA2Iy9LmH2ZxJHyRl/y8OvObq8n9UW0ukarz5aQCsCl9jxi6IznZn7fvrN32SMiB4PZrnjm6ZG+vNreuj5l+2YSUgG41Oh7vc8MOUeef3ukTr/0lLjvtl4RVN/qrN+B6C9N+HN3BQB4hvT937mvc/O35muts1VuWrfasq1y0mnpqFeuvNa6cyNge9rqW2ZatyOv3h1Zb265nn2hto7RZXu3o3e+nu3d2zfbZUf3+dz6WmXt2bae358Z27SXkVQAumwPUrmvv77XH34++QPiEdtyjwTfXP220u2rld+z7m2dc/UZaatW+O2pz9E+GtkXSuvYs2zvdvTO1zuKP9o322VH1NZX23+O/r6duU1HCKkADOk5EM4KpOn3sw6Qo2Hs6LpK1xO2glqr3LQvRq5bnLVtpfJa23Zk2VI5vXXtURp13LPs6DJ79oWz3XFpgNP9AExTO1W6x8hp654Rn9n16133N0CW6vSdZ6TMnNp6amUfXW9tXd96zV62ty9nb29vf9eWb02bsd+PbNvRbTqLkVQAupQOgL3h64wAVFtvz/Lb+tXK7h3lyo3+tuq8HRHN1b2njL1hu9UGteV69oXcth1Zds929M7XEx5bP+/dx2tnIGrtVbOn/j3zzv69HSGkAnBYOjqVho/cfLnva76jhGn5Pes9Ml9PKGxtc2labZt667ln/r317bENgrU2nLHsjD4fmTa63ta0rda+UCu/9gfbjH0iN+8VPsuyXLQq4Arrui6fO87L0O3KkYgnu7Od3tBHb9iGtzm7T97W50ZSAWDjDQf6N2zD2wio44RUAEIavVt9hu11gE/2trDydFcE1O3/b+HufgDCujpsCXec4ez96q37rZFUAADCEVIBAAhHSAUAIBwhFYDbfJ/NGE3EOi1LnHpd0W9RtpX/u7pPhFQALpU+zP6uddfmiXojypEnHhx5kUKuHmc6qw+Ohqw3B+eebbv6iRtCKgCXuusViz3rihxQj5j9assz2+nMgHq03DfuG18Rt80jqADokr6yMvd1bv7WfL3rSpftKf8bTNLnSJZeIblnG2rLpa+YrNW/d7mWUp1LI6m9dSrVo6ectD9rrzlt9UHPOtJ6lfq/t4x0/a3t6dkXR/eNVG+75Oq7nd77+3sHI6kAdNke8HJff23fAb6dNnKgS8vPrWOk/O+0XFkl23W0wlVpfdtyWmX3LNeqb61dtuvbfl9bttT+vduW1mH0VHFP/+f6Jv2+tM21fWhbRrr+1vb07Iu5epbqlRppl7S+Pb83PXW4gpFUAIb0BMNZB7fWiOesU8O5UcZZ5ZaCxOhyPY7UuVXPnu1o9U0rePWsv9U2o+27t4+2ddpjT/vlfj7yu9BT3zN+v/YSUgGYJjeiddZ6lqU+KjV6gB09gPesY+8BvucUb6tevfYu26rj1SF7tIxaPY/Wo2c/OaP9Zum5BOAKTvcD0KU0wlIb8VmW8nwj1ybmRo9qp1xnj4y2rpVszd+7rUfCTVqvve2eW8d2W/f0zYz2r01rnfIvtWOrnj1lj9b96L5dK7u0nhlts512FSOpAByWHvSW5f8H99EQtp32lR7ES9NG1l2zdx012+v8SmXXluspv1SvVrvnlk1/3lPH0W1rya1/ZB2lNhgtI11+tO6t/WS0/fa0S2vanrY522dZlosHb4Ezreu6fO78VKHp7uu8nuDqNnpCnzyhjke8ffvuNKNt7+gfp/sBCEVY+Zs2Ya+nBtRlEVIBCCQ9zXyV9BRnJL8SUCP3wVPN+H26c/9zuh9exun++H4ldAAcYSQVAIBwhFQAAMIRUgF4le0jlJ5mpO5P3k7oIaQC8Cozrve9I/zlnjVb0/tQf3gqD/MH4FVm3Jh29Y1t6cPUR5fJcXMeTyekAtAl95ab7Wsjt9NabyrKvdGmVn6pHq0347TKTJcvzd8zTzqttp5cHfe+LWg7vVS/1nb01hWu5HQ/AF16R+1aI3zbV0DWQlVrXdty9tR5O09pFDO3jp715U61l+q6XXcpgNa2M/fu954y9tQVriSkAjBNb0CdYUY5tQfIl9773ltu7b3qvVoBtKdere2YVVeYTUgFoEsacEqB58zyzyizFVRbZfTW84zwN3L96kh7CqpEIKQCMCwNMHuDW2m+WkCqrau23lydW2VvRxlL89eWLy1XWqa3/qNtkNuOPXWFK7lxCoBu6c02rVDVGrVs3RTVE2Jbp8BrZdZugqrVdaQdSuupzVtaV+9y6dMCRm6Gyt0E5/pU7vBZlsXfTfAi67ouH0eU0Bz0j3lb+71te2AWp/sBeIy3BLraKXfgf4RUAB4h9zzRJxNQoc41qQA8wpsC3Zu2Bc5iJBUAgHCEVAAAwhFSAQAIR0gFACAcIRUAgHCEVAAAwhFS4UW+b5ta3/IgSQB+lpAKFAm7ANxFSIWX+I6iLssyZTRVQAXgTkIqvMA2oEYsDwBGCanwUkdGUwVUAO4mpMLD1UY93UQFwFP9ubsCAG9V+/sgnWbwGuDfjKTCg/VcO2o09T6CJ8B+Qio8WE8AdRPUvXqaXvcA/E1IBQAgnM+yLM4DwsOVRkuNosZRGvDWPQB5RlJfwjWHddrnXfQnwPsZSX2B7wHbiNnfcmHmre2Ujpq+cRT16f3pjn6AfkZSH25PEPke6Nd1ff2I1Ofz+derQp8UaPjb0/vzYdUFuJWQ+nB7D9LfcPsLjyf6buvbt3O7jW8cRf16S3++tHsAphFSf9RbA0zOduSN53t6fz602gCXm/rGqaePbET31IPyGzxp396Opj7BL+7XT9vkp+xLT/SL+z/0mv5aVL9w53CQuJ99ez779XPY/+ez/0Od0/0AAIQjpL7Y9q90f7EDAE8ipL5E7lTc9melr0vLAgDcafo1qS1XPoz76sfwvPmxP1yjNuJ99r613X/ty1yttO+P7pO1+ezX8CyXh9Rl+ftgO+uDIy3njDJrfPgxw137kf2Xu9X2wRn7p30cniXE6f43PJgbAIB5QoTUnO8rO3PhNTct92zI0vQjZdbqVvo+LfMXXkfKdUr79si+vi0HIur9HE6n7ynjac8ahre65XR/S3qKvXatXPp6z9rpnFI5I2W2vu9dZ8+yXCNaP7SuzSsts93PtvM/eR+MXr8z/eK2p/t+77WlI8eMPWUA9wgZUkeMfIiU5p1Rxqz5uc42zKXB7k576tD7xIYI29cjat/kCDfz7G23M55Yog/hfmFDam00aTtt1gfJyGmdI6eAnD66Xy70lEYho5mx70feB1t9E7VfeKbIvwtA4JDae5fnjANXbiRkxrw5DrL3au0v0cPqlfv61Xr65s5+yf2BsL12cVu/Wjvnnm5SmradProcbdoNYgsRUo9c13lGXc6Yt7S8D8lrjIabNIS8UZRtG+mbu/6I6L1uffQ69r3zusTg384YrADud0tIbV0cXzul3zrdv+eDJh2hyd3pmR6ESvP2ridX95YooeKJjl7rdmXb77lxqteR/fcsR67BPav+M69xPHLN+xsv6ZhhxmVfZ106BszzWZZl2qeZv0TPo22P2Tvy5iB2rr3te8dp/9If1z2jmr3LpsvURlVTZ59hsv/Pp12hLsTpfjjb6OUiucc4cY6RvrnrmtQj1/KedR2wcAO8nZDKT2ndfBP1hqlf0NM3EfrlzKd77N3GKG0DMJOQys/J3XwjnMYQtW9GrltPv68tu/e6SNdTAr9ASOVnef5mXBH7Jr2BM/d17vs98/fMF6VdAM7yn7srAHdzsI9L3wD8LiEVAIBwhFQAAMIRUgEACEdIBfghnvkLPIW7+wF+wDacRnisF0CLkArwAyI+1gugxul+gB/xDahO+QNPMH0k1Ycfb2Xf5um2b8EaZf8HrvZZlsUnD7zEdqTMKV0AnszpfgAAwhFS4SW2o6euOwTg6YRUAADCEVLhBXLXoBpNBeDJhFQAAMIRUuHhanfyG00F4KmEVAAAwhFS4cF6nodqNBWAJxJS4cF6AqgH+wPwREIqAADhCKnwcLXRVKOoADyVkAovJaAC8GRCKryAm6MAeBshFV5iG1RnjaIKvgDcRUgFsgRUAO4kpMKLfEdTj46iup4VgLsJqcBfBFQA7iakAgAQjpAKAEA4QioAAOEIqQAAhCOkAgAQjpAKFLnLH4C7CKkAAIQjpAIAEI6QCgBAOEIqAADhCKkAAIQjpAIAEI6QCgBAOEIqAADhCKkAAIQjpAIAEI6QCgBAOEIqAADhCKkAAIQjpAIAEI6QCgBAOEIqAADhCKkAAIQjpAIAEI6QCgBAOEIqAADhCKkAAIQjpAIAEI6QCgBAOEIqAADhCKkAAIQjpAIAEI6QCgBAOEIqAADhCKkAAIQjpAIAEI6QCgBAOEIqAADhCKkAAIQjpAIAEI6QCgBAOEIqAADhCKkAAIQjpAIAEI6QCgBAOEIqAADhCKkAAIQjpAIAEI6QCgBAOEIqAADhCKkAAIQjpAIAEI6QCgBAOEIqAADhCKkAAIQjpAIAEI6QCgBAOEIqAADhCKkAAIQjpAIAEI6QCgBAOEIqAADhCKkAAIQjpAIAEI6QCgBAOEIqAADhCKkAAIQjpAJZ67r+8290OQA46s/dFQDiWdd1+Xw+xe9rywHADEZSgSl6gywA9BBSgSkEVABmElIBAAhHSAUAIBwhFQCAcIRUAADCEVKBv3w+n389JzV9HFXuawCY6bMsi6MMvIhHQQHwBkZSAQAIR0gFACAcIRUAgHCEVAAAwhFSAQAIR0gFACAcIRUAgHCEVAAAwhFSAQAIR0gFACAcr0WFDt5Rfx6vcAUg58/dFYCnEKbmE/4BKHG6HwCAcIRUAADCEVIBAAjHNakQTO06TdfFAvArhFQIZhtE13WdGkxnlwcAZ3G6HwCAcIRUeKh1Xf/5l/489336f6scALiTkAoP9D1t//23DZjb77en99P/W+UAwJ2EVAAAwnHjFDxU6ykAvTdJGT0FICIhFR6qFkC/AbUnqLrbH4CInO6HF5g1GmpUFYAojKTCA+VulvpKb5ZKR1Nz03PlAMCdPsuyGDqBBg/BP4d2BaDE6X4AAMIRUgEACEdIBQAgHCEVAIBwhFQAAMIRUgEACEdIBQAgHCEVAIBwhFQAAMIRUgEACEdIBQAgHCEVAIBwhFQAAML5c3cF4CnWdb27CgDwMz7LsjjyAgAQitP9AACEI6QCABCOkAoAQDhCKgAA4QipAACEI6QCABCOkAoAQDj/BZf5QIUiH8WwAAAAAElFTkSuQmCC;" parent="1" vertex="1">
                    <mxGeometry x="-780" y="-800" width="681" height="325" as="geometry"/>
                </mxCell>
                <mxCell id="1198" value="" style="shape=image;verticalLabelPosition=bottom;labelBackgroundColor=#ffffff;verticalAlign=top;aspect=fixed;imageAspect=0;image=https://d3n817fwly711g.cloudfront.net/uploads/2018/08/Interface-notation.png;" parent="1" vertex="1">
                    <mxGeometry x="780" y="120.5" width="229" height="233" as="geometry"/>
                </mxCell>
                <mxCell id="1215" value="&lt;b&gt;GameObject&lt;/b&gt;&lt;br&gt;{abstract}" style="swimlane;fontStyle=0;align=center;verticalAlign=top;childLayout=stackLayout;horizontal=1;startSize=47;horizontalStack=0;resizeParent=1;resizeParentMax=0;resizeLast=0;collapsible=0;marginBottom=0;html=1;strokeWidth=1;" parent="1" vertex="1">
                    <mxGeometry x="18" y="60" width="190" height="195" as="geometry"/>
                </mxCell>
                <mxCell id="1216" value="attributes" style="text;html=1;strokeColor=none;fillColor=none;align=center;verticalAlign=middle;spacingLeft=4;spacingRight=4;overflow=hidden;rotatable=0;points=[[0,0.5],[1,0.5]];portConstraint=eastwest;" parent="1215" vertex="1">
                    <mxGeometry y="47" width="190" height="20" as="geometry"/>
                </mxCell>
                <mxCell id="1217" value="- coordinates : tuple" style="text;html=1;strokeColor=none;fillColor=none;align=left;verticalAlign=middle;spacingLeft=4;spacingRight=4;overflow=hidden;rotatable=0;points=[[0,0.5],[1,0.5]];portConstraint=eastwest;" parent="1215" vertex="1">
                    <mxGeometry y="67" width="190" height="20" as="geometry"/>
                </mxCell>
                <mxCell id="1227" value="- heading : float" style="text;html=1;strokeColor=none;fillColor=none;align=left;verticalAlign=middle;spacingLeft=4;spacingRight=4;overflow=hidden;rotatable=0;points=[[0,0.5],[1,0.5]];portConstraint=eastwest;" parent="1215" vertex="1">
                    <mxGeometry y="87" width="190" height="20" as="geometry"/>
                </mxCell>
                <mxCell id="1220" value="" style="line;strokeWidth=1;fillColor=none;align=left;verticalAlign=middle;spacingTop=-1;spacingLeft=3;spacingRight=3;rotatable=0;labelPosition=right;points=[];portConstraint=eastwest;" parent="1215" vertex="1">
                    <mxGeometry y="107" width="190" height="8" as="geometry"/>
                </mxCell>
                <mxCell id="1221" value="operations" style="text;html=1;strokeColor=none;fillColor=none;align=center;verticalAlign=middle;spacingLeft=4;spacingRight=4;overflow=hidden;rotatable=0;points=[[0,0.5],[1,0.5]];portConstraint=eastwest;" parent="1215" vertex="1">
                    <mxGeometry y="115" width="190" height="20" as="geometry"/>
                </mxCell>
                <mxCell id="1225" value="- init(tuple=(0,0), float=0.0) : void" style="text;html=1;strokeColor=none;fillColor=none;align=left;verticalAlign=middle;spacingLeft=4;spacingRight=4;overflow=hidden;rotatable=0;points=[[0,0.5],[1,0.5]];portConstraint=eastwest;" parent="1215" vertex="1">
                    <mxGeometry y="135" width="190" height="20" as="geometry"/>
                </mxCell>
                <mxCell id="1241" value="+ get_position() : tuple" style="text;html=1;strokeColor=none;fillColor=none;align=left;verticalAlign=middle;spacingLeft=4;spacingRight=4;overflow=hidden;rotatable=0;points=[[0,0.5],[1,0.5]];portConstraint=eastwest;" parent="1215" vertex="1">
                    <mxGeometry y="155" width="190" height="20" as="geometry"/>
                </mxCell>
                <mxCell id="1245" value="+ get_heading() : tuple" style="text;html=1;strokeColor=none;fillColor=none;align=left;verticalAlign=middle;spacingLeft=4;spacingRight=4;overflow=hidden;rotatable=0;points=[[0,0.5],[1,0.5]];portConstraint=eastwest;" parent="1215" vertex="1">
                    <mxGeometry y="175" width="190" height="20" as="geometry"/>
                </mxCell>
                <mxCell id="1232" value="" style="endArrow=none;html=1;entryX=0.5;entryY=0;entryDx=0;entryDy=0;endFill=0;startArrow=block;startFill=0;exitX=0.466;exitY=1.025;exitDx=0;exitDy=0;exitPerimeter=0;" parent="1" source="1245" target="1190" edge="1">
                    <mxGeometry width="50" height="50" relative="1" as="geometry">
                        <mxPoint x="109" y="266.5" as="sourcePoint"/>
                        <mxPoint x="99" y="296.5" as="targetPoint"/>
                        <Array as="points">
                            <mxPoint x="106" y="306.5"/>
                            <mxPoint x="429" y="306.5"/>
                        </Array>
                    </mxGeometry>
                </mxCell>
                <mxCell id="1236" value="Est un" style="edgeLabel;html=1;align=center;verticalAlign=middle;resizable=0;points=[];" parent="1232" connectable="0" vertex="1">
                    <mxGeometry x="0.0792" relative="1" as="geometry">
                        <mxPoint as="offset"/>
                    </mxGeometry>
                </mxCell>
                <mxCell id="1235" value="" style="shape=image;verticalLabelPosition=bottom;labelBackgroundColor=#ffffff;verticalAlign=top;aspect=fixed;imageAspect=0;image=data:image/png,iVBORw0KGgoAAAANSUhEUgAAAWcAAAFfCAYAAACSkQ1NAAAgAElEQVR4nO3db2hbd77n8c9psuOwvUz2PohIHtw+uRGzY59M6eyDedBFyYEytHBhGZClBso0gUWsVshgGFpwgmV5my4dljJEGLFiwZ1CSa1ony073VI4tmCf7JNSfJyFkRcusyzOlblziS9l621T7wP1d3KOJEfyH1m/xO8XHCydP7/zO6b96OfvOfrF2dvb2xMAwCovjLsDAIBehDMAWIhwBgALEc4AYCHCGQAsRDgDgIUIZwCwEOEMABYinAHAQoQzAFiIcAYACxHOAGAhwhkALEQ4A4CFCGcAsBDhDAAWIpwBwEKEMwBYiHAGAAsRzgBgIcIZACx0dtAOc3Nz2tnZ0aNHj7SzsxNbzLrd3d3YMfyD3jjtHMeRJE1MTOj8+fMDl9nZ2TH3GLZx9gYk6edb32r38Z6+eSztfv/Dz8d7sdffRVp4/5UXCWeceo7jaO7Lr3XWkSbOODp3Rjp3xuksL3ReT0TWvXph4DgJpwxlDQCwEOEMABYinAHAQoQzAFiIcAYACxHOAGAhwhkALEQ4A4CFCGcAsBDhDAAWIpwBwEKEMwBYiHAGAAsNnJWOKUOBg2PKUBwVU4YCI/CsTRnabDZVKpXkuq4qlcpY+9KtWq2qXq/L8zzNz88PfZzneZKkWq2mZDLZ8952lDUAaHV1VZIUBIGazeaYexO3vb0d+3kYrVYrfL21tXXkPp0EZvgGIN/3w9erq6tKpVJj7E3c/Pz8gUbM/SSTydg1PgsYOQOnXKPRkPSkDNAvxBqNhjzPC5eobDYbrq9Wq7FtrVYrdlz3sUaxWIztE22nWq3K8zwtLi6G65rNZs/+ph9mm5HL5WL7R0fRpm2zRM8Rvbbu64+2MSojCeeFhQU5jsPCciqXcrk8iv+tRub+/fuSpOvXr4ehZgJb6gTs0tJS7Biz3+Liotrtdri+Xq+HwdpoNJTL5XrOZwLUtO15noIgiO1Tr9d7gtJoNBoqlUo9+0f7MYxisah6vR5b5/u+stlsz77d19/vuo7byMJ5b2+PheVULt3BYbNms6l2uy3XdZVMJnX9+nVJ0traWriPqdG6rivf9+V5XvgBZOrA5XJZtVpNrusqn89LehJomUxGvu/L931lMpnYtrt378ba9n1ftVpNknThwoW+fTYfJtF2C4VCbJ/o6L9Wq/WUaRqNRviBUKvVwnYSiYTa7XbPXwCe58X6Jmnko2fKGsApZm4ETk9PS+rUZl3XVRAEYfikUqlwdOt5niYnJ8Owm5mZkSSVSiXdvn07fNLDjIyjYS1J+Xw+DMBWqxUGpGnH9MH3/dhxRqvVUrvdViKRiG1Pp9NyXXfo637w4IEkqVAoxJ7cMCFvthvXrl0L+5ZIJCSN/sYi4QycYmaEWSqVwnqqCcx79+6F+83Pz4cjy6WlJRWLRUlPgrRQKKjdbsdKFgdh+6Ntly5dOvFzEs7AKRWtK/cTLQ0Ui0W1Wi2trKwokUiEI+tms6nFxUWl0+lw1Bl92iMIgliJwNSoE4lEOEo37RumDt2PGbm22+1YTTpaphjG5OSkpE55JVqeMCUps32ceJQOOKVMXbnflzIWFxfl+74ajYa2t7cVBEHPTbBkMhmuiwa5qRUXCgUtLS2pXq/33HgzQT4zM6NcLheWTKKKxWLfL8QUCgWVSqWwTnwY6XRaa2trfa+ru2QyLoycgVOo2WwqCILwRmA3U2O9f/++8vl8eCPPMDcEu8MxWmNOp9OxG2iG7/vhyNqURUwd18hkMvt+UzGVSvW0m8lketoYpFKp9FyX53laWVk5UDujwte3gRFwnGfr69uwDyNnALAQ4QwAFiKcAcBChDMAWIhwBgALEc4AYCHCGQAsRDgDgIUIZwCwEOEMABYinAHAQoQzAFho4MRHc3Nz2tnZ0aNHj7SzsxNbzLrd3d3YMUx8hNPOcRxJ0sTEhM6fPz9wmZ2dHXOPYZuB4QwAOHmUNQDAQoQzAFiIcAYACxHOAGAhwhkALEQ4A4CFCGcAsBDhDAAWIpwBwEKEMwBYiHAGAAudHbQDEx8BB8fERziqgRMffb71rXYf7+mbx9Lu9z/8fLwXe/1dpIX3X3mRcMap5ziO5r78WmcdaeKMo3NnpHNnnM7yQuf1RGTdqxcGjpNwylDWAAALEc4AYCHCGQAsRDgDgIUIZwCwEOEMABYinAHAQoQzAFiIcAYACxHOAGAhwhkALEQ4A4CFCGdgAMdxdPPmTW1ubo67KzhFBk6FtVopHXjKUOB5dOXKFb355pu6deuWLl++PHD/9195cegpQ19lylB0YcpQYADHcbS3t6fNzU3duXNHn3766cCQZspQHBVlDWBIly9f1vLystbX1yV1RtKUOzAqhDNwQM9DSBeLRXmep2azOdJjhtFqteR5njzPkyQ1m015nqdsNnus53nWEM7AIT0PIW2Dra2t8HWr1RpjT+wykkLXwsKCyuXyKJoGrGNC+qc//aneffddffTRR+Pu0jMllUrJ9/3wfTSsT7ORhfPCwsIomgZOnPnHWvcTvVF448YN3bp1S8lk8oR6dzwWFxfl+74KhYKWlpbC9YVCQel0umd/U4KQpHK5rFQqFb5vNpsqlUqx/U34tlot5XI5ua4rSQqCQLdv39Z7770XtmWObbfb8jwvPNb0Mdq3paUlJRIJraysqNFoaGlpSZ7naXt7W0EQhH2dn5+P9adYLIbbJSmTySifz/f9nUSvubudUaKsARzS5uambt68qStXrkiS1tfXtby8PNRjdraKBrN5311j7g7eUqkUliMajUbPdqkTbNGSRRAECoJAruvqpZdeGtivYrEYC8p+fTV8348Fr+/7qlarkp7Ut6PbJaler2txcfGp5/N9X8VicWBfjwvhDBzQ8xjKRiKRkO/78n1fiURCUmcEG+W6briPYUoRJjDL5XK4jylx3r17N9ZOuVxWpVKJrUulUuH+pi/NZjMM01qtFrZrRt/9mP3MCH97ezvWh+g11Go1SdKFCxckdT5ggiCI/S5MW0EQqNFoDP5FHgMergSG1P2c8/r6+nMRyFHXrl0LX09NTandbofBZly9ejV87bqugiBQu92OjbD7jZ67R6vRUsjTbGxsSOqUHqLlopmZGeVyuZ79XdcN95ucnJTv++E1mD7MzMyE+yeTydgHzYMHDyQ9Kat0M9tHjZEzMITndaTczYwen8aMqA/jT3/605HbGGSYazjKPYHuD6tRYeQMDOl5HCkfp+hIuFar9Q1AU3fuLpU8zdTUlKROXXhqaio8T3eZZBhmpF8sFsOSirlJaUbPZrTtum5P2eUkEc7AAExHMDzzBEW/ckMmk9Frr7124DZTqVT41Ea/cslBmFJIEAQ9JQsT2Ol0Wmtra333kfb/4DlulDUAHJt0Ot33Ow7lcrnnUbWDmJ+fVyaTia0rFAoHbsfUl7vLKplMJjZKrlQqPcFsbhCe1GOSTHwEjAATH+GoGDkDgIUIZwCwEOEMABYinAHAQoQzAFiIcAYACxHOAGAhwhkALEQ4A4CFCGcAsNDAr2/Pzc1pZ2dHjx490s7OTmwx63Z3d2PH8PVtnHbmn7aamJjQ+fPnBy6zs7Nj7jFsMzCcAQAnj7IGAFiIcAYACxHOAGAhwhkALEQ4A4CFCGcAsBDhDAAWIpwBwEKEMwBYiHAGAAsRzgBgIcIZACxEOAOAhc4O2oEpQ4GDY8pQHNXAKUM/3/pWu4/39M1jaff7H34+3ou9/i7SwvuvvEg449RzHEdzX36ts440ccbRuTPSuTNOZ3mh83oisu7VCwPHSThlKGsAgIUIZwCwEOEMABYinAHAQoQzAFiIcAYACxHOAGAhwhkALEQ4A4CFCGcAsBDhDAAWIpyBARzH0fRbN7S5uTnuruAUIZyBIfzxHx9r0r1CSOPEDJyVjilDcdqZGeb+4X//L/33//Rb/c//1tC/Smf17xdu6/Lly/seIzFlKA6PKUOBAUw4G8OENFOG4qgoawAH9Jd/9df6m/J/1L++/z+e+XJHo9GQ53mxpVgsjuRc1WpVnudpcXFRksLztVqtY2m/WCzK8zw1Gg1JUjabled5ajabx9L+SSOcgUN6nkI6KgiCMEBHJRrIW1tbIzlHu92O/XzWjCScFxYW5DiOHMfRwsLCU7ezH/vZvt8gJqT/5b+5rcYnv1cymRx4jG08z5Pv+6rVapIk3/dHer5kMinf9+X7vlKp1EjOYdpPp9MjaX/UqDkDA3TXnLu9+Pd/qy+Xf6v/8p9X9Oabb+rWrVtKJpPPRM250WhoaWlJnudpfn5erVZLuVxOUjygFxcXY+/N/v3aMgqFQvi+Vqvpiy++UL1eD4/1PC/cdu/evb4fCJlMRvl8PtYvc/7t7W0FQaBCoaC1tTUFQRA7bnV1Ve12W+VyOfwA6O6j67qqVCrh+2KxGLYZ3S/axknhLgRwSN2hvL6+vu/TG7Yzo0zDBKf0JLC699/e3g6DrVqtql6vx/aJhtthuK6rfD6vZrOpUqnUc/6D6v6AkTolHPNXQ1R330ulkmq12on+VUTNGTigF//+b/XH//Bv9e/+5l/oL/6Jo/X1dS0vLz+zwdwtk8mEo+JGo6EgCJRIJMIA931fnucpCILw5psJ5kKhEO6TyWSGPuf8/HzPB8TMzIwk6f79+5KelF5831e5XI4dX6lU5Lpu2Id8Ph/b3mw2w7bL5XLYjjmmu8buum5Pf0ZVG98P4QwM6XkOZc/zwqCampoK1z948EBS56Za9IkOE1oPHjwIn4ZwXTdW383n80okEgfqR7ValdT5gDCjVDNqj5ZRUqlUbHQ/yMbGRthutDxhPgDMduPq1avha/N7Oekbi4QzMITnNZSjpqenJT0ZqQ5je3v72M7farXCEXj3yPekHfRDZRSoOQNDMKH8vAVyVCqVkuu6CoJAzWZTqVRKk5OT4Z//0Rtn/QRBoGq1GgZrtVo90Gjz3r17kjpliSjTp2KxGPYhWqYYhvlroF6va2pqKhw93759O7bdJoQzMMBpevpoenpaQRDo/v37SqVSSqfT4ZMQ/coI5iaZebqhXq/33BgcRjRsl5aWwhtyhUJBMzMzyuVy+/ZhGKYM4vt+z81FST1PntiAsgaAUHT0bG72VSqVnlA0NwhNXTidTvfcpOseAT9Nv8A0zDPRUdEa+bDm5+f7jspH/Uz3YfGcMzACzK2Bo2LkDAAWIpwBwEKEMwBYiHAGAAsRzgBgIcIZACxEOAOAhQhnALAQ4QwAFiKcAcBChDMAWGjg3Bpzc3Pa2dnRo0ePtLOzE1vMut3d3dgxzK2B0878w7ATExM6f/78wGV2dnbMPYZtBoYzAODkUdYAAAsRzgBgIcIZACxEOAOAhQhnALAQ4QwAFiKcAcBChDMAWIhwBgALEc4AYCHCGQAsRDgDgIUIZwCw0NlBOzBlKHBwTBmKoxo4ZejnW99q9/Gevnks7X7/w8/He7HX30VaeP+VFwlnnHqO42juy6911pEmzjg6d0Y6d8bpLC90Xk9E1r16YeA4CacMZQ0AsBDhDAAWIpwBwEKEMwBYiHAGAAsRzgBgIcIZACxEOAOAhQhnALAQ4QwAFiKcAcBChDMwwAcffKDZ2Vk9fPhw3F3BKUI4AwO8/fbbchxHU1NThDROzMBZ6ZgyFOh4+PChfvvb3+r3v/+9fv3rX+vdd9/VxYsX++7LlKE4KqYMBQ5omJBmylAcFWUN4IAuXryoDz/8UBsbG890uaNYLMrzvJ6l1WqNu2uH1mg05HmeisXiuLtyZIQzcEjPS0h3y+Vyqlar4+7GqTeScF5YWJDjOOGysLAwcB/2Y79ndb+LFy/qxz/+sf785z/rd7/7nVKpVE87NiuXy/J9X77vK5PJSJLq9bqazeaYe3a6UXMGjujhw4f64IMP9PHHH+vtt9/WO++8o0uXLllfcy4WiwqCQOVyOfaBUq1WVa/X5Xme5ufne/Y3MpmM8vm8JKnVaimXyymRSGh6elpLS0vhft3tH6Sta9euqV6vS5ISiYRWVlb2bSd6btd1ValUwv08z4sdF+1Ts9lUqVSS67q6cOGCfN+XpJ42or8bI7pPNptVu93uud791g9CWQM4pIcPH2p2dlZTU1NyHEcbGxv68MMP932C41nx2muvSZI2NjbCddlsNhamUmd0vbi4GFvXbrdjwSxJpVJJjUbjUG1Fg7Ddbsdqyd3t9Dt3q9XqCeZ+fZKkIAjCYDbvo33KZrOx/ph9stmsJGl6elqStLq6Gm5vNptqt9tyXffAf1ERzsABPa+hbCSTSUmdsJM6o0UTMKb84ft++L67/JHJZHrKJCY0D9pWoVCQ7/sqFAqxPjUajfB1tJ1EIhE7/u7duz19MgHcHeTSkxKP6ff29nas3/3ONzU1pVarpXQ6HW43N1Xv378v6UlwHwTP7wBD6i5fbGxsPDeBHNX9tMaDBw8kdUaJ/UahGxsbunTpkqTOn/mmPCFJ+Xxeq6urarfbarVaB2pLUhh4L7/8sqQn4WzaMaFtFAoFlUql8L0ZWdfr9Z5Rr6TYh0EikQhHt1NTU0Odr7vMkslkVK/X9cUXX2hra0tBEMTaPQhGzsAAz/tIudtXX30lqRO0wzCjy+MQbat7FDwKJnyHPd+gfUxJaHV1NSxvHGbULDFyBgb6+OOPw1B+XgPZaDab4Z/7V69elSRNTk6GI93oDcIoM9oOgkDVajUcPZtyQCKRUDKZPFBbTzM5OSnf97W0tKSXX345LMV0lypc11UQBCoUCuEovN81D3O+IAhUKpVidelsNqtCoRCOjJPJZHhOc937nXcQwhkY4J133hl3F0YqWgYwPM8LQ8WUJqL12qjudf1KCGb0eNC29pNOp7W2tqYgCJTL5fbdb2ZmRrlcTktLS32Du/tpjP1EyzPd5ZjuwL569WpYTrl27dpQ7fdDWQNATKFQ6BnVrqys9JQ5zE28qEQi0VOXLZfLsdHjsG0NUqlUeoKy+9zJZLJvu5lMZuhgNlZWVnrO16/f0WuN1t8PiuecgRE4bXNrRJ9N7r5Jdtrs95z4QTFyBoBjZG4EXr9+/UjtEM4AcEzMDVDP88KblIdFWQMYgdNW1sDxY+QMABYinAHAQoQzAFiIcAYACxHOAGAhwhkALEQ4A4CFCGcAsNDAL6HMzc1pZ2dHjx490s7OTmwx63Z3d2PH8CUUnHaO40iSJiYmdP78+YHL7OzsmHsM2wwMZwDAyaOsAQAWIpwBwEKEMwBYiHAGAAsRzgBgIcIZACxEOAOAhQhnALAQ4QwAFiKcAcBChDMAWIhwBgALEc4AYKGzg3ZgylDg4JgyFEc1cMrQz7e+1e7jPX3zWNr9/oefj/dir7+LtPD+Ky8Szjj1HMfR3Jdf66wjTZxxdO6MdO6M01le6LyeiKx79cLAcRJOGcoaAGAhwhkALEQ4A4CFCGcAsBDhDAAWIpwBwEKEMwBYiHAGAAsRzgBgIcIZACxEOAOAhcYazpubm7p586Ycx9HNmze1ubk5zu4AgDXGEs4mlK9cuSJJ+sMf/iBJunLlCiENABpiVrrjnDJ0c3NTd+7c0aeffqo333xTt27d0uXLl4feDjwrmDIUR3UiU4YeNHQJaTzrmDIURzXSskZ3+WJ9fV3Ly8sDg/by5ctaXl7W+vq6JModwElpNpvyPE/FYnHcXTkRrVZLnufJ87y+78dpJOF82FDuRkgDJ2t1dVWSFASBms3mmHtz8ra2tsLXrVZrjD0Z4p+pOoxkMimpc6Pv9ddfP3J7JqSz2azeeOMNffTRR0duExiVhYWFcXfh0HzfD1+vrq4qlUqNsTcnL5VKxX4H4zSScG61Wrpz545+9atfHUvNOFqDvnHjBjVoWO9ZDOhGoyFJ8jxPvu/L933Nz8/33W9paSl8XygUwve1Wi0cnBWLRQVBIElKJBK6du2a6vW6XNfVzMyMcrmcXNeV1Bmpm2ObzaZKpVLsnN2B2Wq1lMvlwveZTEarq6tqt9sqFApKp9MD+3r79m2999574TbP82LroudcXFyMvc9kMsrn87G+RK/RXPPKykrf3/UwRlLWOK5yxHGVRwAMdv/+fUnS9evXw5qrCWyjWq3Gwk5Sz3tJymazYTBLUrvdDkMrKggCBUEg13WVTCbVaDR6glnqBKcpMzSbzVgwS1K9Xle73T5UXwfJZrM9Hw71er2nLt99je12+0i1+5HeEDxsSBPKwMlqNptqt9thSF6/fl2StLa2FtvPhE8mkwlH1903zxqNRhiUtVot3G8/5XJZlUpF0pPwLJfL4XHlclmSdPfuXUlPPkRc1w33KRQKPe2avhYKhXC/TCYTbn/ppZdUq9XC977v66WXXoq1Ua1Ww2sxbZhrCYKg58PLnMv0p/sD4yBO5Esow4Y0oQyMh7kROD09Lalz38h1XQVBEI5Yzc9EIhH+SS+pp/Sxvb0tqRPgpsQhqW+ASgrr2tEbkKVSKXxqwoykzUjcBN7MzEy4fzqdDksk0bZc1w1LHJKUz+eVSCSe9quIefDggSSFHxDd12K2R/shSS+//HKsr4dxot8Q3C+kP/vsM0IZGCMzGoyGognDe/fujey8BwlKafxPUDzNQa9lkLF8fbs7pN944w1JhDIwDt1/mnczwW1Gwe12W9VqNdy+uLgY2//ChQuSOmWFaJj2q/dGR5bRJ0Oi5ZDokkwmwxA0ZQ5zDdEat2krCIJYX6NlimFMTk5KUqwO3mq1wmsx20dhrF9LMiG9vLw8zm4Ap5qpK0eftDDMUwqNRkPpdDp82qFer/e9wSd1/rRfW1tTEAQ9N+4GMe33O848IWGe9AiC4KlfFhmmr4Pk8/nwKZDuc5mSyahG80wZCpxizWYz9rREt2vXrkl6chMunU7vW3+VnoyuK5VKLMwSiUR4M86MrPvp177UqfmaOncymey5wZjJZMIRtfk5qK/DWllZ6QnmTCYT3sQclROZWwM4bU7T3BrValX1en3gc73ZbFbtdjv2jPBxiT4b3e8vgGfRs/tfBIAT1f3Fj27mSQ8T1vs5ajCbkO/H87znIpglyhoAhmTKCdFH1oxyuRw+RpbP52PPDxuJROJYvhq9srISe17ZyGQyfb/R+KyirAGMwGkqa2A0GDkDgIUIZwCwEOEMABYinAHAQoQzAFiIcAYACxHOAGAhwhkALDTwSyhzc3Pa2dnRo0ePtLOzE1vMut3d3dgxfAkFp53jOJKkiYkJnT9/fuAyOzs75h7DNgPDGQBw8ihrAICFCGcAsBDhDAAWIpwBwEKEMwBYiHAGAAsRzgBgIcIZACxEOAOAhQhnALAQ4QwAFiKcAcBChDMAWOjsoB2YMhQ4OKYMxVENnDL0861vtft4T988lna//+Hn473Y6+8iLbz/youEM049x3E09+XXOutIE2ccnTsjnTvjdJYXOq8nIutevTBwnIRThrIGAFiIcAYACxHOwJg9/n/fjLsLsBDhDIxZa+2/jrsLsBDhDIzRztaftPN3/2fc3YCFCGdgjP7vo38YdxdgKcIZGCseO0V/hDMwRj/6p38x7i7AUoQzMEZ/+Vd/rXM//mfj7gYsRDgD4+Q4+uev/WrcvYCFCGdgzChtoB/CGQAsNNZw/uSTT3Tp0iU5jqM33nhDm5ub4+wOAFhj4Kx0o5gy9JNPPtFvfvMbPXz4MLb+hRde0C9/+UtVKhVdvnz5kJcEjB9ThuKoTnTK0P1CuRshjWcdU4biqE6krGHKF2+99dbAYJak77//Xp999pl+8pOfUO4ATkixWJTnebGl1WqNu1vHKpvNyvM8NZtNSeq5Tpuue6ThfNBQ7kZIA6PXaDTkeZ6CIOjZlsvlVCwWx9Cr0Wi327GfUdFA3traOrE+7Wckf0sNW74YVjSkKXcAx6fZbGppaUlSZ9Q4Pz8fbms0GlpaWlIQBGo2m0qlUuPq5rHxfX/fbclk8qnbT9pIwvmtt94aRbNyXVefffaZksnkSNoHjsPCwsK4uzC0+/fvS5IymYzy+XxsWzqdVjqd7jmmWq2qXq+H77tDPZvNqt1uq1wuq1QqhetrtZqSyaQ8zwvXFQoFpdNptVot5XI5JRIJTU9Phx8YklQul3s+GBYXF2NB2t3/6HbXdVWpVJ7at1wuF1tn+nqQ6y0UCrF+R9s4jJGUNVqtlm7cuKEf/ehHunjx4pHb+8UvfqHXX39df/zjH3Xjxg21Wi3t7e2xsFi5RP+nt50pZbz22mtD7V8sFmNBJXVGo9lstmff7t9DLpeLBbMkLS0txcoJ7XY7FnCmnUajEb7PZrM9I9x6vR6WXxqNRmx7EASHLs0c5Hq7+53L5Q51TmMk4Xz58mUtLy9rY2NDr7/++qFD2oTyV199pYsXL2p9fV3Ly8uUNIBjNswIr9FohGFeq9Xk+75831cikVC73Va1Wo3t73mefN9XrVYL17muGztOkr766qvYcZlMJtwnk8lIehJ81Wo1rBebfUwQB0GgRqOh7e3tWDuJRCIcOUdFA7xWq/WMzo/jeo9yY3GkNwQPG9KEMnCyhgmRBw8eSOqUIqJhXigUYtuNa9euSeoEv+u6kqSrV6+G26empnrO4bpurDyRz+fDEG+1WuE5yuVy7LhoH8wx9XpdnufpvffeG3ht/Rzlek2fj3Jj8UQepRs2pAll4GSZ0Pziiy+Ove1Lly71rDOhNWorKyvhCDaXy/WMckeh3/UexYl+fXu/kP7Zz35GKANjMD09LalTs11cXIxtM4/Ymfrq5OSkpN46saktm+1HEQRBLEhNGSORSCiZTIbniNazW61WWPYw27PZrJLJZBjQq6urB+7LSVzv04zla0kmpG/duqU7d+7oo48+0s9//nOtr68TyMAJSqVS4VMG0fptt2azqXQ6rbW1NQVB0HOzK5FI9DztcVj1er3nJpz5EMnn81pdXVW73e65uei6rtLptIrFYs/2w4zYT+p69zPWiY9MSO/t7TFSBsYknU7HbtBFlctlrXfMMUsAAAEFSURBVKyshDfLKpVKeJPO8DxPKysrx9KXRCIR1nSjfYg+0reystITzJlMJrzpV6lUwnKN0e+G4DBGfb1Pc6JzawCnBXNrHEz0OeeTCL5nAfM5A4CFCGcAsNDp/lsKgBVsm9fCBoycAcBChDMAWIhwBgALEc4AYCHCGQAsRDgDgIUIZwCwEOEMABYaOLfG3NycdnZ29OjRI+3s7MQWs253dzd2DHNr4LRzHEeSNDExofPnzw9cZmdnx9xj2GZgOAMATh5lDQCwEOEMABYinAHAQoQzAFiIcAYACxHOAGAhwhkALEQ4A4CFCGcAsBDhDAAWIpwBwEKEMwBYiHAGAAsRzgBgof8PYLsA9Zj1wQEAAAAASUVORK5CYII=;" parent="1" vertex="1">
                    <mxGeometry x="1230.0700000000002" y="740" width="265.93" height="260" as="geometry"/>
                </mxCell>
                <mxCell id="1237" value="Pickup" style="rounded=0;whiteSpace=wrap;html=1;strokeWidth=1;" parent="1" vertex="1">
                    <mxGeometry x="-1210" y="405" width="120" height="60" as="geometry"/>
                </mxCell>
                <mxCell id="1238" value="Weapon" style="rounded=0;whiteSpace=wrap;html=1;strokeWidth=1;" parent="1" vertex="1">
                    <mxGeometry x="-1460" y="760" width="120" height="60" as="geometry"/>
                </mxCell>
                <mxCell id="1242" value="Utilise" style="endArrow=none;html=1;endSize=12;startArrow=none;startSize=14;startFill=0;edgeStyle=orthogonalEdgeStyle;strokeWidth=1;entryX=0.5;entryY=0;entryDx=0;entryDy=0;endFill=0;" parent="1" source="1190" target="1255" edge="1">
                    <mxGeometry relative="1" as="geometry">
                        <mxPoint x="949" y="816.5" as="sourcePoint"/>
                        <mxPoint x="1109" y="816.5" as="targetPoint"/>
                        <Array as="points">
                            <mxPoint x="619" y="531.5"/>
                            <mxPoint x="699" y="531.5"/>
                        </Array>
                    </mxGeometry>
                </mxCell>
                <mxCell id="1243" value="1..n" style="edgeLabel;resizable=0;html=1;align=left;verticalAlign=top;strokeWidth=9;" parent="1242" connectable="0" vertex="1">
                    <mxGeometry x="-1" relative="1" as="geometry">
                        <mxPoint x="10" y="-16" as="offset"/>
                    </mxGeometry>
                </mxCell>
                <mxCell id="1244" value="1, n" style="edgeLabel;resizable=0;html=1;align=right;verticalAlign=top;strokeWidth=9;" parent="1242" connectable="0" vertex="1">
                    <mxGeometry x="1" relative="1" as="geometry">
                        <mxPoint x="10" y="-30" as="offset"/>
                    </mxGeometry>
                </mxCell>
                <mxCell id="1255" value="&lt;b&gt;Weapon&lt;/b&gt;" style="swimlane;fontStyle=0;align=center;verticalAlign=top;childLayout=stackLayout;horizontal=1;startSize=30;horizontalStack=0;resizeParent=1;resizeParentMax=0;resizeLast=0;collapsible=0;marginBottom=0;html=1;strokeWidth=1;" parent="1" vertex="1">
                    <mxGeometry x="589" y="786.5" width="220" height="278" as="geometry"/>
                </mxCell>
                <mxCell id="1256" value="attributes" style="text;html=1;strokeColor=none;fillColor=none;align=center;verticalAlign=middle;spacingLeft=4;spacingRight=4;overflow=hidden;rotatable=0;points=[[0,0.5],[1,0.5]];portConstraint=eastwest;" parent="1255" vertex="1">
                    <mxGeometry y="30" width="220" height="20" as="geometry"/>
                </mxCell>
                <mxCell id="1257" value="- damage: int" style="text;html=1;strokeColor=none;fillColor=none;align=left;verticalAlign=middle;spacingLeft=4;spacingRight=4;overflow=hidden;rotatable=0;points=[[0,0.5],[1,0.5]];portConstraint=eastwest;" parent="1255" vertex="1">
                    <mxGeometry y="50" width="220" height="20" as="geometry"/>
                </mxCell>
                <mxCell id="1264" value="- range: int" style="text;html=1;strokeColor=none;fillColor=none;align=left;verticalAlign=middle;spacingLeft=4;spacingRight=4;overflow=hidden;rotatable=0;points=[[0,0.5],[1,0.5]];portConstraint=eastwest;" parent="1255" vertex="1">
                    <mxGeometry y="70" width="220" height="20" as="geometry"/>
                </mxCell>
                <mxCell id="1265" value="- ammo: int" style="text;html=1;strokeColor=none;fillColor=none;align=left;verticalAlign=middle;spacingLeft=4;spacingRight=4;overflow=hidden;rotatable=0;points=[[0,0.5],[1,0.5]];portConstraint=eastwest;" parent="1255" vertex="1">
                    <mxGeometry y="90" width="220" height="20" as="geometry"/>
                </mxCell>
                <mxCell id="1259" value="- is_ready: bool" style="text;html=1;strokeColor=none;fillColor=none;align=left;verticalAlign=middle;spacingLeft=4;spacingRight=4;overflow=hidden;rotatable=0;points=[[0,0.5],[1,0.5]];portConstraint=eastwest;" parent="1255" vertex="1">
                    <mxGeometry y="110" width="220" height="20" as="geometry"/>
                </mxCell>
                <mxCell id="1260" value="" style="line;strokeWidth=1;fillColor=none;align=left;verticalAlign=middle;spacingTop=-1;spacingLeft=3;spacingRight=3;rotatable=0;labelPosition=right;points=[];portConstraint=eastwest;" parent="1255" vertex="1">
                    <mxGeometry y="130" width="220" height="8" as="geometry"/>
                </mxCell>
                <mxCell id="1261" value="operations" style="text;html=1;strokeColor=none;fillColor=none;align=center;verticalAlign=middle;spacingLeft=4;spacingRight=4;overflow=hidden;rotatable=0;points=[[0,0.5],[1,0.5]];portConstraint=eastwest;" parent="1255" vertex="1">
                    <mxGeometry y="138" width="220" height="20" as="geometry"/>
                </mxCell>
                <mxCell id="1330" value="+ get_damages(): int" style="text;html=1;strokeColor=none;fillColor=none;align=left;verticalAlign=middle;spacingLeft=4;spacingRight=4;overflow=hidden;rotatable=0;points=[[0,0.5],[1,0.5]];portConstraint=eastwest;" parent="1255" vertex="1">
                    <mxGeometry y="158" width="220" height="20" as="geometry"/>
                </mxCell>
                <mxCell id="1331" value="+ get_range(): int" style="text;html=1;strokeColor=none;fillColor=none;align=left;verticalAlign=middle;spacingLeft=4;spacingRight=4;overflow=hidden;rotatable=0;points=[[0,0.5],[1,0.5]];portConstraint=eastwest;" parent="1255" vertex="1">
                    <mxGeometry y="178" width="220" height="20" as="geometry"/>
                </mxCell>
                <mxCell id="1332" value="+ get_ammo(): int" style="text;html=1;strokeColor=none;fillColor=none;align=left;verticalAlign=middle;spacingLeft=4;spacingRight=4;overflow=hidden;rotatable=0;points=[[0,0.5],[1,0.5]];portConstraint=eastwest;" parent="1255" vertex="1">
                    <mxGeometry y="198" width="220" height="20" as="geometry"/>
                </mxCell>
                <mxCell id="1333" value="+ is_ready(): bool" style="text;html=1;strokeColor=none;fillColor=none;align=left;verticalAlign=middle;spacingLeft=4;spacingRight=4;overflow=hidden;rotatable=0;points=[[0,0.5],[1,0.5]];portConstraint=eastwest;" parent="1255" vertex="1">
                    <mxGeometry y="218" width="220" height="20" as="geometry"/>
                </mxCell>
                <mxCell id="1262" value="+ shoot(float): void" style="text;html=1;strokeColor=none;fillColor=none;align=left;verticalAlign=middle;spacingLeft=4;spacingRight=4;overflow=hidden;rotatable=0;points=[[0,0.5],[1,0.5]];portConstraint=eastwest;" parent="1255" vertex="1">
                    <mxGeometry y="238" width="220" height="20" as="geometry"/>
                </mxCell>
                <mxCell id="1263" value="+ reload(): void" style="text;html=1;strokeColor=none;fillColor=none;align=left;verticalAlign=middle;spacingLeft=4;spacingRight=4;overflow=hidden;rotatable=0;points=[[0,0.5],[1,0.5]];portConstraint=eastwest;" parent="1255" vertex="1">
                    <mxGeometry y="258" width="220" height="20" as="geometry"/>
                </mxCell>
                <mxCell id="1270" value="Attache" style="edgeStyle=none;html=1;endArrow=diamondThin;endFill=0;strokeWidth=2;startSize=9;endSize=9;" parent="1" source="1266" target="1177" edge="1">
                    <mxGeometry relative="1" as="geometry"/>
                </mxCell>
                <mxCell id="1277" value="1" style="edgeLabel;html=1;align=center;verticalAlign=middle;resizable=0;points=[];" parent="1270" connectable="0" vertex="1">
                    <mxGeometry x="-0.8132" y="1" relative="1" as="geometry">
                        <mxPoint x="7" y="2" as="offset"/>
                    </mxGeometry>
                </mxCell>
                <mxCell id="1278" value="1..n" style="edgeLabel;html=1;align=center;verticalAlign=middle;resizable=0;points=[];" parent="1270" connectable="0" vertex="1">
                    <mxGeometry x="0.6042" y="1" relative="1" as="geometry">
                        <mxPoint x="17" y="6" as="offset"/>
                    </mxGeometry>
                </mxCell>
                <mxCell id="1272" value="Contient" style="edgeStyle=none;html=1;exitX=1;exitY=0.5;exitDx=0;exitDy=0;entryX=0.5;entryY=0;entryDx=0;entryDy=0;startArrow=diamondThin;startFill=1;endArrow=none;endFill=0;strokeWidth=2;startSize=9;endSize=9;" parent="1" source="1170" target="1268" edge="1">
                    <mxGeometry x="0.4167" relative="1" as="geometry">
                        <Array as="points">
                            <mxPoint x="-1260" y="600"/>
                        </Array>
                        <mxPoint as="offset"/>
                    </mxGeometry>
                </mxCell>
                <mxCell id="1284" value="1" style="edgeLabel;html=1;align=center;verticalAlign=middle;resizable=0;points=[];" parent="1272" connectable="0" vertex="1">
                    <mxGeometry x="-0.3898" y="2" relative="1" as="geometry">
                        <mxPoint x="-64" y="-13" as="offset"/>
                    </mxGeometry>
                </mxCell>
                <mxCell id="1285" value="1" style="edgeLabel;html=1;align=center;verticalAlign=middle;resizable=0;points=[];" parent="1272" connectable="0" vertex="1">
                    <mxGeometry x="0.6431" y="3" relative="1" as="geometry">
                        <mxPoint x="7" y="33" as="offset"/>
                    </mxGeometry>
                </mxCell>
                <mxCell id="1281" value="" style="shape=image;verticalLabelPosition=bottom;labelBackgroundColor=#ffffff;verticalAlign=top;aspect=fixed;imageAspect=0;image=data:image/png,iVBORw0KGgoAAAANSUhEUgAAAnsAAAEwCAYAAADPQ7elAAAgAElEQVR4nOzdd5wV9b3/8dfMKdsLu/ReF1CwoNiwB+JV7BpLNJd4RU0UrwEVC2pURFBRBKMxUbEkWKJosMDP6DUmRgWDBVQQ6W0XtrD9nD1lZn5/7M549rDYssDu4f18PPbBsqfNOWfKez7fMobjOA4iIiIikpLMvb0AIiIiIrL7KOyJiIiIpDCFPREREZEUprAnIiIiksIU9kRERERSmMKeiIiISApT2BMRERFJYQp7IiIiIilMYU9EREQkhSnsiYiIiKQwhT0RERGRFKawJyIiIpLCFPZEREREUpjCnoiIiEgKU9gTERERSWEKeyIiIiIpTGFPREREJIUp7ImIiIikMIU9ERERkRSmsCciIiKSwhT2RERERFKYwp6IiIhIClPYExEREUlhCnsiIiIiKUxhT0RERCSFKeyJiIiIpDCFPREREZEUprAnIiIiksIU9kRERERSmMKeiIiISApT2BMRERFJYf69vQDJHMfBMAwcx9nbiyLyrdz11DCMvb0oIrIL7rFExxVpD3bXcaXNhT2X4zjaMKXNMs3GoriCnkjblryN2ra9l5ZE5NvtzuNKmw17tm0r7EmblLghqrIn0rYlVvZs21bYkzbN5/PtG5W9aDRKWloakydP5umnnyYtLW1vL5II0LgR1tfXM3LkSObMmcPgwYOxbRufz7e3F01EdsFtJfL5fMybN49rrrmGvLw8otHo3l40EUzTpL6+nuHDh/Pkk08yYMCA3XJcaXNhzz0Lq6ioYMeOHXt5aUR2VlJSQiwWA1D1WaSNcyt6AHV1dVRVVVFdXa1tV9qU7du379bjSpsbjeuWLlUtkbbGXSf9fr+3nqoJV6Ttc7dTt09UIBDYm4sj4nHXyd19XGlzYU9EREREWo/CnoiIiEgKU9gTERERSWFtboDG9zFixAjy8/OJx+OA+k1J63GHvEejUb766isqKyv39iKJyG5mGAaDBw+mZ8+eRCIRrx+VSGtwR4NHIhFWrly5V44r7Srs+Xw+LMti7ty5HHDAAdi2jWEYCnvSamzbxjRNysvL+cUvfsGbb76JaZqam0skhWVmZnLzzTdz8cUXE4vFNIBDWpVbRCgrK+N//ud/eOONN/b4caVdhT031FmW5YU8hT1pTS2tT1q/RFJT8iXUdEyR3cVdpxIn+d6T2mWtWvMjye6my/WJ7Du0vcuesDfXs3YZ9nTWJbubzu5F9h3a3mVP2JvrWbsMeyIiIiLy/SjsiYiIiKQwhT0RERGRFKawJyIiIpLCFPZEREREUpjCnoiIiEgKU9gTERERSWEKeyIiIiIpTGFPREREJIW1q2vjiohI++ReDN79PZmuYCGy+6iyJyLSChKve+n+nvj/fd23XQjeMAxdn1ZkN1JlT0TkR3ArVbsKL4lUtWoeeA3DIB6P4/f7vdsSw6A+L5HWpcqeiMgPlBhI3Iubf1OZcrAch5qYRdx2dqry7avcz8wwDIqLi5kzZw7Lly8HGj9D27Z3CtAi0joU9kTkR2up6dJ2mgec1rg9+cfexeNa+nvybbt6vuTbd/XcybfhODRYdsJjDVbXNHDNJxspDkcag0yLzbstL2vyZ5D8ObcXye/JNBsPNytXruSSSy7h2muv5fjjj2fhwoWEw2FM09wp8LW39yzSVinsiciPklipSfzdbPo38ec/vT35x72Py/2bmfR8Ld2W+PNtt+/quZMfWxmN89iaUkzTwDQNDMMhZNlURCxMt0rV4num2fO09P6Sb28vEr9P+KZP3ttvv83o0aP529/+BkBlZSVjx45l+vTpbN++HZ/P54W8xHVDRP4zCnsi8iM0r764B/Vt4Rgb6yNeJasubmEl3F4ZjfN1bQPbG2JUReMUh6PUxCzv9pJwlDW1DZRH4uyIxCkORWmwbMChOhoHIBS3WFvXQChuYTc9d4Nls6EuwrZwDPgmXBiGgWU7bKiPsKEuQmU0TllDjG0NMW+56uMWa2sjbA1FqYrG2R6OUR6JNXtfW0NRNtdHm965Q1UkhmEY1MQsnt+4g8fXlVMesShviIPjsH9eOq8eM5CemUFsx8FnGDiOTXE4yrZwdKfmyrjtUB+3AAfLdlhXF6Ei0vhe2lszcOJ7s2278TOur+cPf/gDY8aMobi4mA4dOnDeeefRt29fAKZOncp///d/8/nnn2Oappp1RVqZBmiIyA/mOAZuM6RpGITiFq9sqeT/ldRg2TYX9inEdmB7JMZ/9yvENE3+WVrLgq1V1MQsbBxyAwECBlzQO5/987N4ZXMl/yirI27b2EBB0E+mz+TXAzsSt+GVLZUMyUvnkx1h3i6t4b4De3BwQTYrq8PM21jB2toIFga/6NuBk7rmETANyhqiPL2uglV1DVg2+EzolBakY5qfa4o6sao2zNPrd1AaiWNZNkG/j85pfvbPTeeCvoXURePM27iDf5bVkWYajOmaS7/sNP5VVsfEwZ15bE0Zs1dtp19OGr9fXcqwvHRO6ZbH79eUkR3w8T/9O2IaBlvrIzy/aQcrahrAgYM7ZHJh3wLyg358wKraBv5vWzWjOmaxpCLEe2V1BE2D8QM6ckznXCzbxqBtD/RIHKiS2HS7ZcsWHnjgAWbNmgVAnz59uOmmm7jiiitYunQpEyZMYMmSJfztb3/jv/7rv3jssccYM2YMgUCAeDyOz+fb5UAYEfl+VNkTkR/MMJqqTYZBxHb43delTPp0CwOz0/mvbvn8bVsNl/57I8urwqT7fLxfVsekz7YQtx0mD+lK3IE3t9UwODed4fmZPLO+gju+LOHADhlMKOrMlzVhvqgOM6pTFt0y01i4rYa/bK5k+ortVMXjnNUzn64ZQYpDUX7x4Xo+LK/nzJ75FAR9XLl0ExvrG/vK3bhsK/O3VPKzngWc0yufBVursRyb4ztlEbYsfrF4Axvro/x6YEdGFGTy3MYd9MsMcESnLCzbYfrKbUxbUcLBHTIY3TWHh9eUceeXxZRFYsRthwbbwTDgJ51zKMpOpygnnfJonLnrywnFG5txt4VjXPvZFv60sYLDCrIYmpfOnK9Luf3z4qaKn8OqmgZ+93UZT6yt4LOqEBf0KWBDfZQ7vigmbttgGI0/bVRis6tbzTNNk+XLlzN+/Hgv6I0YMYI///nPXHHFFTQ0NHDooYfyzjvvcP7555OXl0dxcTFjx45l9uzZbN++Hb/f36zCpyqfyI+jyp6I/GCO42ADfsPgH+XV/HFtGfce2JNx/TsC0DndzxPryynKTcdxHJ5YX87Q3HTmHNobMDilex5bQzEOK8jCZ5o8ua6cXw3oyK8Hdgbg2E451EYtjijMxnEcvq5tYGlliBdH9ee0Hh285bjg/bXsl5fGM0cOACBgGvyrrA6fYVDeEOW14mo+/MkQBuSmA1CUs52i7HRGFGbzwoYd1ERt5h3ZDwyDQwqymLmqlKM6ZdM3K533tlfz0Nel/N/xgxjZKQeAfllBfvrPNUwZ2oU0v4+zeuTyu9WlXDO4M3nBAAAf76ilOmYztls+Udvm2Y0VfFoV5rOThpLh9wHQOzPIbV8UUxOLkxvwsyMSZ2NdhJH7deGSAY2fQWlDnKfWlxOxbLL8Pqzd/q3+OMkDKtyBGIsWLWL8+PEUFxcTDAY5+eSTefLJJ+nQoQORSIS0tDQsyyItLY3nn3+ehx56iFmzZrF+/Xquv/56/vWvfzF9+nSGDh0K4IXI5D6ZIvLdVNkTkR/McRoHEdiOw1sltfTODPKz3h1osCxitkNd3KZ/Vhq9M4MA1MQsMnwG0HiAfq+0FhMoTPMTsxubdTN8jbujsGWxuLyeTL+B2VTQ+rw6zIW9OnBi5xyilk3Esimpj/DhjnqKcjJYWFzFo6tLmfZlCef1zqdHRoB1dREChkGar/E1i+sbWFPXQJcMP7bjsCkUoXO6H6upUPRmcTWheGOwits2j6wt4/jOOYzslEMk3jiNSoMFuX4fQ/MysRyH98vryQ/4yAv6abBsbMdhQ12MNNNgQG46m+qjzN9SxcW9O5DuM6mNWURtm4Bh4sOkOtr4vB/tqOf4brlcMqAzDZZN3Hb4qqaB/KCfrICfuOPQFqNNYtCzLAvTNKmtreV3v/sdp556qtc/73//93/561//Sn5+vhfwAHy+xvAbi8W4+uqrmTdvHocffjgACxYsYOzYsSxcuNB7bsuy1I9P5EdQZU9EfjDHAJ9hUBmJsbImQlFOBhk+k/q4RXrAYHN9hNyAj2F5GRiGwZguuczbWMETa8qwcVhWGebSAR3p0RQGDy3I5PXiarpmBFlaWYeDwzm9CsgJ+GmIx9kWjjKubwFZAT9RyybNZ/LW9hoyDJM3Smr4oLyeuO0wvn9HfjWwExgGB+Rn0icryOyvSzmiYxYLNldxZGEWx3TKwQDG9sjlsXVl/H5NKQVBH4+vreCSfgX0ygzSYNksrQjzm8GdiTs2QZ8PcPi0MkR+wEdBWoCamMWyqjBFOWnYDgRNg7jt8EV1iO4ZAWzHoTzSOCBkVMccHCDDZ+A3TeosCwuHzul+NoeirK+LMLIwC8txCJgG9TGLreEofbKCjUHKMfDhtJmm3OT+ebZt4/f72bx5M/fffz+zZ88GYMCAAVx//fVcccUVxONxTNP0Rty6lTm3T14sFuPII49k4cKFXHnllbz22musX7+e008/nXvvvZdx48ZRWFhILBbD7/erH5/ID6CwJyI/mEPjAb8sEqcqFufgDhlYDmT7fYTiFn/bXkuP9AB9s4JEbZshuensl5fJa9uqyfIZ3Di0G6d2z8W2bWriNkcWZlMdreFPGyvo4PfxyCF9OKBDJo7j8GllGNMw6J4R/GYOOqC0wSInYPLUYX0YnJeOWzW0ncZJjXfEbE7ulsuX1Q1s3hylb2aQm/brRV6wsR9Y0PQxpmse/yqrwzAMzuyZx/8WdcEB6i2bsG0zPD8DEwPDaKxO/mnTDoblZeA4DqG4xceVIc7pkQ80TcMSi/PvHWEOKcjEAOK2TcR26JzRuKv1GwY4Dp/sCNElPUCaz8eG+np2xCyOKMyisQhpsLYuQnEoxlEdsxufu/EF9uh3vCuJQc1tWvX5fHz88cfceOONvP322wCMHDmSBx98kKOOOopIJEIgEPCaeBObYhObfuPxOB06dOD555/nrrvuYu7cuaxfv55rr72WTz75hBtvvJFhw4Z5AdN9nJp1f5hdVUfVRJ66FPZaQXKflW/bWBI7Gu+NDaulaRHUD0Z+KHdkaIbPxGcYVMdt/GbjNCZz15Tz9+21TB7SFcMw2B6KMmPlNo7smM0fRvbxnsNqGnjwUUU9f1xbxuQhXTi1Z4F3e9SyCfpM/lVWT4eAn+4ZgW/moHMc+uUEKY3EqYjGcYPe1voI+Wl+svw+nly7jQ/K63hsZF96ZqV5zxu3bfymyZVLNzKiQxb3HtSTrKa+dOCAAwEMLAdKGmKYhkE4bvHgqlK21Me4vH9HMKA+blESjnFUp2zMpu2mLmqxsT7KrwZ0xDAMcvw+0kyTf++oY1h+JgCvbqnkb9tquHn/rgAUh6JYjsMRhVmNU8kA6+ojhOIWR3bManrPbWPbTN5/uFW6BQsWcOWVV1JcXEwgEOD000/n0UcfpWPHjsRiMYLB4E7LnzwHn2EY+P1+LMvCtm1uueUWRo0axQ033MC///1v5s2bx8cff8ycOXMYPXo0pmnuNFq3LXxGbVlLI6YTA1/iscAN4aqepgaFvVbwn0x8uqc3oMRldfvL7K1lkfbLoLGC1j0jyFEds3hpSyXDctPYEoqxJRTj4A4Z5AR9+AyDzaEoNbE4f91cyarqBjL8Bsd2yubU7nkUpgfZUB9lWzjOzFWlPLexkoI0P6d3z+fITtkEffBuWQ0DstLokdHY5Os3G/sKjumSy9CcdO74soRTu4fwYfBpVYipw7uT5fexvj7K+rool/97IwVBP/2yg1zYu4D98jNosGyqYhZvbqtmZW0D+X6Dg/IzuahvIZ0zgmQHTMZ0yWXGim3URC22N8T4sipCfsDkqMIsDMcgw+ejQ9Dkj2vLWVcX4dTuuWwORdgUinBoYSa249AvO43zeufz4KoyohbsiMV5s7iWU7rncVHfjli2w4rqMBk+k84ZQSKWTZrPYGV1YzVzWF5G01yCTrNJmPeGxKAXj8cJBALU1NTw+OOPM3nyZCzLorCwkPHjxzNjxgwA7/q33xXG3L87juOFt2g0ygknnMBrr73Gb37zGxYsWMBXX33FmWeeybRp0xg3bhwdOnQgGo0SCATUrPsdEj//xLCezLIs7zsAfZapQmGvFSTuBKuqqtixY8dO/VK8CV4ti4yMDLp06bLTffbksrrLmZubS0FBgXcGpw1bvpemaVdMAy4f0JFQ3GbexipO6JzNpCFd+Lw6RLf0ICtrwrxRXMWp3fMpCPqpilssrwwzeVkxaT6TgdnpfFUb5leDOpHuM9kejvGvinr+77PNPDayN6M65XJspxyG56WT7W9qAgQsDHKDfh4Y0YuHV5fyVkkNPtPg4PwMsn0mT60rpTDNx9VFnYnZDlsaYry6tZolFfU8c0Q/nlhXzkndcumVmUZ1NM7auiizvi6lNBrn7gN6Ypom0w7ozh1fFPNGcTUHdchi7uF9mLGihAE5jSOMO6f7mbJ/N55au4N3ttdyXKdssvw+fjWgE10zgsRtyA36uXm/bmT5fbxeXE3QZ3BBnw78amBH4nZjk/R+eZl0z0zzJl8GGJKbQVZfHxl+H5btNFUO9862mVwNcoPeunXruP/++3nkkUcAKCoq4vrrr2f8+PHE43HvhPL7Vt2Sm3UDgQCxWIwuXbrw3HPPMXXqVB5//HE2bdrExIkT+fzzz7nuuusYOnQolmV5070kPpc0Sm62dUN1KBRi2bJlVFZWkpmZyX777Ufnzp2pqqqirq6Onj17KkCnCIW9VuBuSLFYjJdffpm5c+cSDAa9HZ57H9M0qampYcSIETz44IPk5OTs0Z2Su6P2+/28/PLLPPHEE5xyyilcc801ZGVlaaOW781tTrUdh15Z6dw/onez24fkZQDwiw/XkWYaPH54r2a3n/XPNbxRXENZpIIzuufx66Iu39xo2wz9fytYWxfhqI4ON+zXDaCxstX02n6jsb/YfnkZPHxon2bP/UlFPbd8XsLi0YPpmZXu/f39HrWc/a+1/O7rUv5ZVss/Rw9t9ri7vgiwYGsl04Y3bge9stJ4/PB+3u2OA1MP7Nn0u4MPg3N7FXJur0LvPr2yYWTHbCzbaaxA2g6Zfh8379+92Ws1BrjGPnwX9fvm8WbTpndu74JvXsfc+9U8+KZ/XiAQ4MMPP+Tmm2/m3XffBeDoo4/mnnvu4aijjiIajeL3Nx5afkjzakvNuj6fzxuBe+uttzJixAimTp3KkiVLmDt3LsuXL+fee+/lhBNOAFCz7i4kX+3GNE3eeecd5s6dy3vvvYfjOMRiMYqKipgwYQLRaJSFCxcyb968Zp+ptF8Ke60gcWe4fPlyPvjgA66++movPLlVM9M0qa+vp6ioqFn5PPnMOflvyc0TLfW7SF6WxP8n3t+2bQA2bdrE4sWLGTx4sBdKE8/+kjvv7uq1kiuXyR1+v2vZpH3yKjBNgc9K/NqbUpnVNFCiKmazvi5Cls8kbNv83/ZqtkdiDM9Pp6whRkkkRkk4ig/YEbP40/oKOgb97JfbOJI3bFn4DYNAU3UrcbtyX8PEIGY3BqOt4SgZPpMvqhtI9/uI2w6bQjFmrdrOSV1zKW2Ik2GaLK8M0TMzSDhusaKmgVe3VnFWj3xvvbYdh7jTOD9V45yCELMdAu42SeNlzhwaQ6hp4P0tzedu843LG7VtwGiqzTn4k54DGucIdLejuO1g4xBM6DNF00CRPSV5WhU3wL344otMnDiRrVu34vf7Offcc5kzZw6dOnXygp67z/uxgStxP2SaJrZtE4vFGDt2LMOHD2fSpEm8/vrrLF26lDPPPJO7776biy++mLy8vBabdfd1id+F4zgsXLiQ8847j+7du3P55ZczYMAASkpKePXVVxk/fjwHHnggW7du9R6buJ9vaVDHro5Ryff7vo+X1qew14rcFbZv377MmTPnez8mcUNyd6rJf3PDYeKGZ1mN06wmBkd3tvnEvyVuZO4O+6yzzqJ///4MGjSIjIyMnYKe+zhXcjMJND+LTg6J7jIn3j95eXXm3X41a3IjaaBoU1AK+Hxc1KeQB1dtZ9qXxXRJD1Abt/iqJszp3fO4ZkgX5q4t5+UtlVRHLbJ8PiqicdbXR5g4uDOHFjRWm9NMszEmGe7TJ/TvMgxvslDT1ximftI1lxO65PD7NWUM2l6DiUFJQwzbdrhxWFeCpsFvPtvCfSu30T0zQNRy2BiKcnCHDK4u6vLN+g8Eml7T1/SXgNH8YOZLeN+NF5AzCJo7n/wEEj4gwzCbHfTckJf43vzmN822e2MbSVx+d4BFdXU1v//977ntttuIxWIUFBTwq1/9imnTpgHf9M9rrS4hya0i0DgfX+/evXnhhRe46667eOyxx9i6dSsTJkxg2bJlXHvttQwePJhYLObtf9wT3H1Z4sDAkpISrrzySnr37s1bb71Fz549vftNnDiRKVOmcPfdd3PiiScCNNunA94xxJW4X/+2wLarfoIKeXuGwl4rclfaaDRKbW2tF9qSmydM09zpNvd2d0Pavn07wWCQDh06eE0Z7gXCkzeaWCxGRUUFmZmZ5Obmtrhc7uPcxxx44IEceOCBOy174v1diWGzpqaGUChEx44dvWVtqdLo3lZZWUlDQwOFhYUEg0Hv+dz3Iu1T8glB8jdp0rhejO2Rz9DcdN7cVk1t3KZ3dhoTBnWmKLexmfeqok4cWpDFBxV1xG2Hofnp3N2tB4VpgW8qeF5o2vVoTpfjNDabPnxIb94ormZ1bQMB0+TYzjmc2j23KZUazD2sL4uKq9geiZPpM/lZ7w4c1XSVjMQDYwvvfKfXbOHWnZZxV5/fd91vT0tuBYjH4wSDQb7++mvuu+8+Hn/8cQCGDh3Ktddey6WXXuo1s/r9/p0qSP/p+0p+Lvd6uaZp8tvf/pbhw4dzzz338NFHH/HYY4+xYsUK7rrrLo4//njgmxPSfTnwJa7Ptm3z5ptvsmnTJl5//XV69uxJKBQiEAhgWRbBYJDrrruOp59+mpKSEu/7NE2z2Yl7RUUF0WiUgoICb4Js9zjR0vee2CwPsG3bNnw+H506dWoW6qHtbAupRmFvN3E3rsRqWOLK7q789fX1zJs3j2AwyLhx45g/fz6vvPIKFRUVOI7DQQcdxEUXXcQBBxzg9Zlxg97mzZt57rnnWLJkCdXV1aSlpTFs2DBOPPFEFi9ezKhRoxg9erTXVy8QCPDEE0/w/vvvk5GRQTAY5KKLLuKQQw7xntedpd6dN+vFF1/k2muv9UbdffHFF4RCIbp06cLo0aP55S9/2azJxl22N954gzfeeIP169cTjUbJzc3l8MMP56yzzmLw4MFe4HM/l/YgsYndsizi8bh3oJOWWQ70zwrw60EJffIcm4ZYzLsu7OGFmRzeNJ8cgGNZRGLxZlWzH/SaTf+e2TOfb4KXQyxuNU1tYtApYDRd2u2b2yOxeOMVO37cy6YcwzAIBoO8++673Hbbbbz33nsAnHjiidx5552MGjXKq6C1FLxbY7tOfl43VLrNumeffTb7778/N9xwA6+//jrvv/8+P//5z5k2bRrnn38+mZmZRCKRnU5M9yWJJ+GhUIhnnnmG/v37M3bsWCKRCBkZjSdeblhPT09n0qRJLF682DtmhUIhli9fzrvvvsvnn3/uhb38/HyGDx/OOeecwwEHHEAsFvP6dP7xj38kKyuLYDDI8ccfzymnnMKLL77Ia6+9Rnl5OfF4nKKiIq655hqGDh3abN5EaX0Ke60oMYhlZ2d/633dnU59fT2PPPIIgUCAzMxMrrnmGkaOHMnQoUMpLS3lwQcf5K233uKFF15g4MCB3jUlV61axRVXXMHixYsZM2YMQ4cOpb6+nnfeeYeXX36ZNWvWcOuttzJ69OhmG3tZWRlbt26loqKCjz/+mCFDhnDIIYc0O4N238NHH33kdbp++OGHKS0t5dBDDyUYDLJkyRKee+45GhoauPzyy70dsM/n4/777/dGyR1xxBFkZWWxefNm7rrrLubPn88TTzzB8OHDmzXPtAfuAcc0TXJycvD7/Ts1aUhzLX46hkl6YNffu+HzkbbzjBD/IYPAt35XBmkBfZfJ5s2bx4033siWLVswDIOf//znzJw5k65duzZrKk08EdpdJ2/Nug4kNOsOHjyYv/zlL0ydOpW5c+dSXFzMpZdeyscff8zEiRMZMGAADQ0N+2xrQmLFrL6+ns8++4yRI0d6xYNEhmGQnp7OuHHjOOOMM7zWoNWrV3PxxRcTDoc56KCD6N27N2lpaWzevJkZM2bw0ksv8eSTT3LIIYdg2zb19fUUFxcTj8d555132Lx5MyUlJUyePJnDDjuMYcOGUVNTQ11dHXV1dd5y7ovfz56ivVsrchyHYDBITU0NTz/9dLPKXjQapVu3bvz0pz/17usaMGAAS5Ys4c9//jPTp0/nl7/8pXfbCSecwGWXXcYzzzzD1KlTMQyD6upqrr/+epYtW8b8+fMZO3asd/9wOMydd97Jgw8+SH5+vvd3t8PyjTfeyI033sjSpUs55phjmp2VJzdfpaWlkZuby2233cbhhx/Os88+S2Fh48jB6upqjjnmGG6++WZ+/vOfk5eXh2EYLFq0iOuuu47zzz+fWbNm0a1bN28ZFi1axM9+9jOuvPJK/vGPfzR7zfYgsZl+8eLFFBcXN6tQirR3iX0J3377baZPn048HqegoIAJEyZw22234fP5vObR5P55u3NbTu4O4zbrutWkqVOncuCBB3LPPfewdOlSHn74YVasWMEdd9zBMcccA7BPNucmfj/hcJhQKETPnj2btT4l9x7zrj4AACAASURBVDEtLCyksLDQ+7xycnK45JJLOPXUU5t1/wF45ZVXGDduHFOnTuWVV14BYPTo0YwePZrq6mrOP/98PvvsM2pra5k2bRoTJkxocTn3xlRk+xKFvVbkOA5paWlUV1dz6623Eo/HgcZKUFVVFccffzyjR4/e6TGGYbB161Yuv/xyfvnLXxIOh73gOHr0aPr378/atWsBCAaDvP7667zxxhvccccdjB07lmg06jUtZmZmcsUVV/Doo49SU1Oz0+tEo1FM06Suru47myBt28ayLCoqKrjvvvvIzc0lGo0Sj8fJy8vj7LPP5o477qCiosILllOmTKFfv348//zzOz3fySefzJNPPsl5553HBx98wKhRo9rVxu3u+Orq6pg2bRoNDQ37ZLOQpD7Lsti4cSMARx55JJdddhmXXHLJLgeM7entOPEE1e1v5jgO5557Lv3792f69Om8/fbb/P3vf2fjxo3cdNNNnHfeeftkJT65/7VlWXTo0KHFoOfe1x3o51ZD+/fvz5QpU1p8/rPOOosPP/yQZ599lq1bt9KnTx+v6bympga/38+aNWu47LLLmDBhArFYzGuydX923UdWWsu+t+bvRoZh0NDQQG5uLrNnz96pste5c2dvJ+kGB9M0qa2tpXfv3px//vneRb7djSArK4tu3bpRU1Pjld0XL15MIBBg1KhRxONxLxjG43Fs26a2tnaX8yK5fTASz+J2xefzUV9fz7Rp08jIyPBGCrsdnvv37+9VGgGqqqr48ssvOeKII1i4cKE3gjexGdkNwH/5y1845phjvJ10e9jQE0elbdmyxXvfIqkoOzubUCjEmDFjuOSSS7zLmCXOoefaWyOGXe4gtkgkwogRI7j77rt57733SEtLY926ddx8882ceeaZLV4xItUl7l/dfX9tbW2Lg2kSm+Pd3xP70q1du5ZPPvmE0tJSQqEQjuOQnZ3NypUrsW2b8vJyevdunHPTNE18Pp93fBs7dqx3vEpLS9vp+NNejgPtlcJeKzIMw6t6nXXWWd95X/ffWCxGr169KCoqarYBuEHRPctyd7RVVVUUFBR4V+Fw7+veP7EPTUuvl/jzfZZx+PDhBAKBZs+ZOFO9G1zLysoAWLFiBb/61a9abOKxLIu0tDSKi4t3ep22LnFHWF9fv5eXRmT3cvtS/eUvfyEvL49JkyY1a8KFvTeCMnkGAPdEOC0tjQ8++ICZM2dSWVlJNBrlwAMP5Oabb6awsJBYLLZHl7MtSPxu0tPTycjIYOvWrV6gS+5vmThrgxv0qqurmTVrFq+88gplZWXk5uZ6Fbm0tDS++uorevXq5b1e4vEoHA6z//77U1RU1GxGibY6Ij1VKey1IncFtiyLuro6b3qVXY3Gdf9NnKokudNsS0PYMzIyCIVC1NbW7tQHxbbtVuuX4r62Ow9f8tlf8v1ycnKwbZtDDz2Uc889t1kQdZfdnbPLvQxPe7pMm/veMzMzueyyy8jJyfEqlSKpwt2+4/E4Tz/9NF999RU33XQTmzZt4s477yQ3N7fZ4Az3MXtqG058rcSZBgAef/xx5syZw+effw7A6aefzq233sqhhx7a7L3tSxJbVjIzMxk8eDBr1qxpVhRwBxcCRCIRVqxYQU1NDccddxzV1dXcddddzJw5k4svvphTTjmFvn37kpOT4xUr5syZw8KFC3dqJnefNz093WtuV5Pt3qGwt5sknzG5/7phLrFTf3I1L3FDSN6xGYZB7969qa6uZt26dRx++OGEQiFvKgJ3rr3EjTfxsW5TbywW83aU0Wi0xebdxB1BSwE0+d9OnTqRl5dHJBLh0ksv/V6f0fdpTm4r3GXNyspi0qRJDBw4cG8vkshudfzxxzNlyhS++uorZs+ezZYtW5g+fTqDBg3yTnSS+37tTon7DLdLRSAQoKqqittvv52nnnqK6upqMjMzmTRpEldddRVdu3YlFAqRkZGxT4aMxP14ZmYmF1xwAddffz0fffQRhx12GA0NDd5sCn6/35thoWvXrhx//PGsXbuWhx9+mFNPPZVnnnmmxc8wPT3dC3LQWHSIRqNe/zxoDJFuH0t3ufbF72NvUdhrRe6KGwwGycnJ+db7Jm6A3zbfnHu7G8Ycx+HMM8/kscceY8aMGYwcOdILHe6kxS+++CK1tbVkZmbutGzp6Y3XCu3atSt+v7/ZZMfJ90187V1JDK0+n48bbriByZMn88gjj3DllVfudP/58+fz4Ycfcvfdd7fY96ctSwzd4XDYC877Yj8gSX2WZXH22WfTtWtXZsyYwWuvvcb8+fMpLS3l+uuv57TTTvP63CY2z8Hu2aaTp4eCxlkG/v3vfzNt2jQWLFgAwJAhQ7jlllu46KKLALzpqtrLfmZ3cL8Xv9/PWWedxbRp05g0aRKvvfYaHTp0aHbfBx54gI8//pinnnoKaJzeJhwO07FjxxY/w4ceeojHH3+cIUOGeM3k7nGmR48eZGRkkJWV5U2+7NqXv4+9QWGvFbk7o5KSEmbOnOn9PfHauOFwmN69e3P22WeTmZmJ4zhEo9FmzwHNg0VDQwMZGRle/70BAwYwa9Ysxo0bx5gxYzjnnHPo1q0bdXV1LFmyhK+//ppoNNqsydg9a3vjjTdYsWIF69evp6GhgRdffJFNmzbRu3dvTj75ZHJycrxlcDtk76pZOPl2x3G4+uqr+fTTT7nqqqv48ssvGT16NJ06daKsrIx33nmHJ554gtNOO22nawO3hw0/uQLrvgdNvSKpyDAMIpEIRx11FI8++igDBw5k9uzZvPfee2zYsIE1a9YwceJEoPmlE6F1t+nk/nmJ1+l9+umnmTVrFsuWLQMaR/zfcsstHHXUUd5lvILBoPf7vijxOwHo06cPs2bN4pe//CVnnHEGl19+Ob1796aiooJXXnmFP/3pT0ycOJFx48bhOA4DBw70qnqDBg1i5MiRBINB1q1bx6uvvkpZWRkHH3wwmzdv9o4Fy5cvZ9GiRUQiEdasWUNVVRUzZ84kKyuLk046if79+zcb1S27n8JeK0icn65Xr14UFhby2GOPNevP5XZ6raysZNSoUZx66qlkZmZimiZ9+vTx7pfYJAKN1bJ+/fqRm5vbrCn2pz/9KfPnz+epp57izTffJBQK4fP5GDlypHd9w1Ao5D2nu4N89913ee6550hLS2PAgAEsW7aMjz76iFGjRnHcccc1q0jm5eXRr18/b4b15ObdvLw8+vfv753FQeMZ3Zw5c9hvv/2YO3cur776Kn6/3zsY3HDDDUycOLHdXT0Ddj3IpT29B5Hvkhiu0tLSiEajdO/enRkzZjBo0CBuuukmNm/ezJQpU1izZg333nsvWVlZ3kwC7mNbI/AlTwfiNtuGQiFuv/125s6dS0VFBX6/n4kTJzJhwgR69+5NJBIhEAh4J8j78jaa3F3GNE3GjRuH3+9nzpw5XHvttWRnZxMOh0lLS+Oee+7h8ssv94JbYWEh999/P9nZ2dxzzz0UFBR4J7uDBw/mrrvuYuXKlfzhD3/wWpPWrFnDgw8+SE5ODtnZ2USjUR566CG6devGkCFD6N+/v1pF9jCFvVbg7kgCgQA/+9nPOOyww7xLzyTfLxaLkZ+f711hIycnh5tvvrnZhpj4nFlZWdx6663NdqLu78cccwxHH300q1atoqysjEAgwMiRI1m1apUX7hKregCXX345p59+erPmWdu2ycvL88r57gZ4zDHH8MwzzzBgwIBmy+T+O2rUKJ555hn69u3r/d2yLDp27Mgtt9zCGWecwcqVK6mrqyM7O5vBgwd7E3Lurfm5ROTbJfcZdqd1CgQC/PrXv6ZXr15MnjyZlStX8sgjj7B161ZmzpzJwIEDicVizeZO+7Hbd0ujbd3+XqtWrWLy5Mm8+uqrAF4QveCCCwgEAkSjUW9qj/bWL3h3SPweEvs7XnTRRRx77LEsXbqUyspKMjMz2X///Rk+fDiA1wfPcRyKiop47LHH+PDDD9m2bRuWZdGjRw+OPvpoMjIy6Nu3L4cccohXuDj66KN54YUXmg3YsG3bKzIACnp7mMJeK3B3Zm6VLrFS912CwSD777//Ts/lCgQC3sbnnqFWV1fz/PPPM2zYMEaNGsWQIUMYMmSI95iXX36Zuro6Bg0atNNQ+kGDBjFo0KBvXSY3cHbu3JnOnTvvctmSb3dfxz0jHD58uLfsrsT5BRX0RNqu5Kk43AFdp556Kp07d2bGjBm88sorLFiwgLKyMiZPnswZZ5zh9WX9sf34kgeluc19hmHwwgsvMGvWLJYsWQLAmDFjuOmmmzjhhBO85QsGgzs9x74uuXnd/Vx79erlTZniStxHuyzLIjs7mzFjxuz03PF4nL59+3on/bDzsaEl6v6yZynstYLkEWLfNfVJ4sCHxPu7O9TE+yU/nztNy4svvsjtt9/Ob3/7W0488UTy8/MpLy9n0aJF3HXXXZx++umceOKJXl9B166umpG8TO5oXrfUnnx23NLt7n3cIOf26XO1xhm/iOwZLY26N4zGq/AcdthhPPzwwwwaNIh7772XDz74gKuvvprVq1dz3XXX7RTSvq/kSpxbUYxGo9x555088cQTbNu2DdM0+c1vfsOECRPo16+fNxWM25qhfczOkj8X0zS940Fiy1JLg/Lck3i3wgrfHDPckbyJx4Jd9fVu6Tgje4bCXitI3hn+kDOWxI7+ic/V0u3uRpmVlcXMmTO55ZZbuPLKK+nWrRu5ubnU1NSwfft2LrzwQqZPn+5d2zCxX9n3KZ0nVioT30vysiXfnngfd7l39XrayEXaj8QDvNus261bN6ZOncqgQYOYNGkSmzdv5re//S2rV69m9uzZpKen79SP77teI/EE17IsgsEgGzZs8EaOxuNxOnXqxL333ssFF1zgvUZL03loH9NcS+G9pcveuZKb0t0uRC2FtORjQUvHhl0tj+wZCnvtSGL18KCDDuKpp57iH//4B6tXr6auro4OHTpQVFTECSecQHZ2drOgp7MoEfmxkptE/X6/F8bGjx9Pr169uOaaa1i1ahV//OMf2bJlC7Nnz2bgwIFEo1FvgvmWtDTa1g2VixYt4s4772Tx4sUAHHHEEcyYMYPjjjsO+KbytzunfNkXtBSQv8/v0n4o7LUjiZ1s3YEQ55xzTov3beli5SIi/4nE0OdejxbgpJNO4tlnn2X69Om89NJLLFy4kNLSUqZMmcKZZ57pzb+WXO1pqX+eWwm84447eOqpp9iwYQMAV199NVdddRWDBw8mHo97TYjav4l8N4W9diR5R+v2i3D7QLj9KdwLULv31Y5QRFpTYv9caJx4d8SIEfzud79j6NChTJ06laVLlzJhwgS++uorbrzxRq9pNrFvcmJrhTutSklJCRMnTuSvf/0rkUiEDh06cO+993LhhRc2m+JFLRYi35+Gw7QzyZ1sEztAuyEv+ZqHIiKtLbEvcCAQIB6P06VLF2699VaeeuopsrKy2Lp1K1OnTuXSSy/1BlHEYrFm3UsS58979913OfPMM3nhhReIRCKMGDGCBQsWMH78eLKysrxmWwU9kR9GYa+dSR4M0tJP4v1ERHaXxJNPd1RmIBBg3LhxLFiwgMGDBxMKhZg7dy6nnXYaa9eu9UbXuiHPNE0CgQAzZ85k/PjxfPTRRwCMHz+eZ599lmOOOcYb2e822yroifwwCnsiIvKjJFbY3GZdtzvJT37yE1588UXOP/98AN566y3OOecc5s+f743o9fv9VFdXc/HFF3PnnXeydu1aMjMzefTRR7nvvvu8/nnuLAeJ/ZZF5PtT2BMRkR8tsTUhedLe4cOH89BDD3HbbbcBsGzZMiZMmMCMGTMIBoMsWbKEk08+mXnz5lFbW8uwYcN47bXXuOKKK8jPz/cCoZptRf4zGqAhIiKtIjGMuZP2durUiSlTplBUVMRll13Gtm3bmDZtGu+//z4rV65k7dq1AFx00UXcdtttFBUVATS75KNCnsh/RmFPRERaTfJl1mzbJhgMctFFF9GzZ08uu+wyVq9ezeuvv+495qGHHuLCCy+ksLDQm2cvsdlWgU/kP6NmXBERaTUt9eNzZwc47rjjWLBgARdccAEARUVFvPXWW1x11VVe0Eu8/KIGnIm0DlX2RESkVbV0aS53FO3QoUOZM2cOJ554IsceeyyDBw8GaDYHn6p5Iq1LYU9ERHY7N7jZtk2nTp247LLLvP+r2VZk91LYExGRPSL5Wt2J1+9Ovp+ItB6FPRER2SPcvnvu74mXgASFPJHdRWFPRET2CIU5kb1Do3FFREREUpjCnoiIiEgKU9gTERERSWEKeyIiIiIpTGFPREREJIUp7ImIiIikMIU9ERERkRSmsCciIiKSwhT2RERERFKYwp6IiIhICmtXl0tzr5/oOA62be/yItoiP5Zt296/ieubiKSexG088bji7gdEWoN7Hei9eVxpV2HPDXU+nw/TNDFNFSaldbnrVCAQ8H7XyYRIajIMwzsQu8eVxG1fpDXtzeNKuwp7lmUBMGnSJAoLC4nH44AOxtJ6HMfBNE3C4TAff/wxgM7yRVKUW11paGjggQce4NVXXyUSiSjsSatyHAefz0coFPKOK26e2VPaVdhzN8y///3ve3lJZF+iZlyR1GZZFp988gmffPLJ3l4Ukd1Cpy8iIiIiKUxhT0RERCSFKeyJiIiIpLA2F/bc/lHqFC9tjduhVtOyiLQvydvrnu4cL7Ire2q6rzY3QMMdWRsIBAgEAnt5aUS+4fP5sCyLYDCoaVlE2gl3ahVo3IYDgQDBYJBoNLqXl0ykcbov27YJBoPeero7jiuG08ZKE7ZtY5ommzZtory8XEPgpU2xbZvs7Gx69+5Nenp6swOJiLQ97iHOMAzKy8tZt24daWlpqspLm2FZFpmZmfTr12+3HVfaXNgTERERkdbT5ppx3USrDCptXeLs+yLSNiVW9nRckbZudx1XVNkTERERSWHqECciIiKSwhT2RERERFKYwp6IiIhIClPYExEREUlhCnsiIiIiKUxhT0RERCSFKeyJiIiIpDCFPREREZEUprAnIiIiksIU9kRERERSmMKeiIiISApT2BMRERFJYQp7IiIiIilMYU9EREQkhSnsiYiIiKQwhT0RERGRFKawJyIiIpLCFPZEREREUpjCnoiIiEgKU9gTERERSWEKeyIiIiIpTGFPREREJIUp7ImIiIikMIU9ERERkRSmsCciIiKSwhT2RERERFKYwp6IiIhIClPYExEREUlhCnsiIiIiKUxhT0RERCSFKeyJiIiIpDCFPREREZEUprAnIiIiksIU9kRERERSmMKeiIiISApT2BMRERFJYQp7IiIiIilMYU9EREQkhSnsiYiIiKQwhT0RERGRFKawJyIiIpLCFPZEREREUpjCnoiIiEgKU9gTERERSWEKeyIiIiIpTGFPREREJIUp7ImIiIikMIU9ERERkRSmsCciIiKSwhT2RERERFKYwp6IiIhIClPYExEREUlhCnsiIiIiKUxhT0RERCSFKeyJiIiIpDCFPREREZEUprAnIiIiksIU9kRERERSmMKeiIiISApT2BMRERFJYQp7IiIiIinMv7cXQEREpLU5joNhGDiOs7cXReRbJa6nhmHsltdQZU9ERFLO7jpoiuwuu3OdVWVPRERSjlvZi0ajlJeXY1nW3l4kkWYMwyA3N5e8vDzgm3V2d2hzYU+ld2kv3PVUFQSRtse2bXw+H59++ilnn3021dXVOrZImxIIBLj++uuZMmUKsVgMv9+/74Q9943qACrtgdZTkbbJDXWWZVFXV0coFNrLSyTSnFt5ht1b1YM2GPbi8Th+v5+3336bzz//HL+/zS2i7KMMwyAWi9G9e3fGjBlDQUEBtm1jmur6KtLWJBYO3OOIKnvSlvj9fu/4sbsLB20uSVmWhd/v59lnn+Wpp55S5UTaDJ/PRzwe5+CDD2bYsGEUFBTowCHSDmg7lbZqT62bbS7suW/ccRzvR6QtcNdH27abraci0rapaCBt1Z5aN9tc+5P67ElblVhu13oqIiLtRZur7LlUMRERkd3BNE1s22b48OGcfvrp1NbWYpqmTt6k1bgDLgzDYOXKlSxatMhb7/aGNhv2tNGJiMju4B50R40axV133UU0GiUYDO7txZIU9dxzz7Fo0SJ8Pp/C3g/h8/k0qkp2u8S+eSKSOtzt2t3G3b64KjJIa0mcSqUt9PFuV2HPPRubOXMm++23H+FwGFAVUFqPbdv4/X6qqqp44IEH+PTTT/dq6V1EWl9in9uWfhdpDcl9u/fm+tUuw95xxx3HwQcfrKsXSKtz16ny8nL+/Oc/AzqZEEl12sYl1bWrsJdcenfL7tpQpbW4kyRrehUREUkV7SrsJZfbE39EWkNL65XWLxERac/a3Dx7IiIiItJ6FPZEREREUpjCnoiIiEgKU9gTERERSWEKeyIiIiIpTGFPREREJIUp7ImIiIikMIU9ERERkRSmsCciIiKSwhT2RERERFKYwp6IiIhICmtX18YVEdmTHMfBMAwcx/H+ZgDu/9zbdrpPwv91beVGiZ9PIn0+Irufwp6IyC54QcQwSIwkbuBzg16L91GI+dYg7H4+zT5DEdkt1IwrIrILXnXOCysOOA5O048bXBzHSQh6jvfYXVWz9gU7fT6G4YU6wzCwLKvFMCgirU+VPRFpFY0HbAPDcGjp2L2rg7phgOPs+vZdPfabChEtvp57n8Rl+6YB1r0DGBhNj9/5SdwwEnccFmyuxMbh3F4FOI6DaZpA43s1TYOIZfFmcTW1ls3P+3bEcpxdnk0bTQu9q4jTnpuBE5fbDXqmaVJfX88bb7wBwKmnnkpmZiaWZWGaZrt+vyLtgSp7IvIf+6ZyA3ZTgnErOY0H78agldjXzTCMpqbQ5hUf9+/eY93QkPg3Epv/jJYfB0kBYufnoCnkGQbNbmseOBxiDjy/sYL3Suua3ovBquowq2saMM3G4BaKO7y0pYp/ltY1vlsHnIRlS1w+B3Ba+Hvi+915Odq+xOW2bRvDMDBNk6+//prbb7+d888/n/PPP5/bb7+d1atX4/P5mt1XVT6R3UNhT0T+I4lNcbbjYDYdtBssm4hlA3gh0L0t1vT3xv83b+50mp4DoMGyG6OVYWA2vUaD1TwYuI91H2fZDnG7eVhyl9E0DGzHwWoWLoxmrxmKW0TdoNJ0e4bP4Jkj+zP7kF4YBpQ2RLn2s81sCMUAsByHDkEfTxzeh98d0gvHcfCbBj6z8TmjCe/XbmrybWwadry/g0M4/s37bW/NwInrgVuxcxyHN998k/POO4+ZM2cSCATw+/3cd999/OxnP+PNN9/0Kn9q1hXZfdSMKyI/npPQJNnUnFkRibFgaxXr6hqIWHB4YSandM8j0+9nc32EhSU1FIeipPtNTuyczcjCLBobU+HDslocBzL8Josr6vm6toHjOmVzZq8CllbU8c62GrZH4vykay4/6ZJL0GysJj6zvpzjO2ezoS7KB+V1VMcsTu+Rz+Eds70gFbUcFpVUsayqAdu2GZqfwRk98kn3mTiOQUk4yvzNlWyujxAwTfpmpXFhnwKyAiZbQ1FeL67hkr4FfFZVy4ubK1lcUc8JVSE21kcY17cDW0JxFm2r5dK+hd5gjc8q6/m/bTVUxSw6pwU4qVsuRbkZTQVFh0921FMWtRiYncZfNu6gOm5zeGE2p3TPI9hUMWzr1b3E6qlt2ziOg8/nY/v27fzpT3/ihhtuwLZtAoEAsVhjOA4EAixbtoyTTz6Ze+65h1/84hd07doVy7K8aqCadUVaj8KeiPxojuGAA7bj4DNMyhpi3PDZZj6sqOfELrlURy2WVzXw0665bKpvYOKnW1hfF+HQwmzWV0R4aXMlsw/uydGdc3Echz9t2MEX1WGKctII+gy2huP8bXsJa+sirKltIAaUhOPM37yRBccO5MAOWVi2w5TlWzm5Wx4x2ybT72NlbZg3SqpZeOwgemalYRgG968s4dlNlQzLSyfoM3l8/Q5KQlGuGdwF24Fbl2/l35VhjirMpMGy+LgyxJk98sj0Gywsrubm5Vu5pF8h/64M8fa2WgqDAb6uaSAvaGIahfzf9homf7aVy/t3xHEcPiyr45rPNtMx6Kd3ZpCFJTW8WlzFvCP70yk9QG3cZu76Cv5eVsc5PfJZWxelLm7x0uYqMn0G/9U9n5i9635/bUHiSFrLsvD5fAAsWbKEmTNn8tJLL2GaJqZpekEPIBaLNfV5hMmTJ7NkyRKuu+46jjjiiJ2eS6N1Rf5zCnsi8qMZjoHt2DiGQcyxefCrbbxfXs+rxw5kcG6Gd7+47TDp0y1sD8d56/hBFKYHAfjp379m3oYdHFaYTdBnErVtvqgKc9uwbozumgeOw/HvrGL216UsOm4Q++dnUhuNM/JvK9kejuPkOxSHoxSmBfh0R4hXjxtIt4wgtm3T49XlfFXTQI/MIG9vq+ah1aU8d1R/juuSC8DT68q4ftlWftG3Ixk+g+c3VvLWCYM4slNOs/cYtWw+qqjnlG65BH0mVw3qwhdVYSKWwx8O6wtAKG6zsjbKT7pkY5gGm+sj3PJ5MSPyM737bK6PcPI/VjN3bRk37t+dreEYS3eESTdMTuqWx9GdcthS38DFH27g06owJ3XLwzbaZnNm8iAM27bx+XzU1dXx+uuvM2nSJEpKSggEAsTj8RabZd1+eoFAgPnz5/Pee+/xwAMPcNppp5Gbm6vBGyKtqC2fNIpIG+c4DjYGfsNgRVUDfyut5epBnRicm0FdLE4obhG3HRaX1/HxjhDXFHWmMD1IZSRG3HYYkpPOtoY4YcumwbJZXhXmsoGdOKFzLlHbYWV1iJJwlKkHdGf//Awils0nlfX4TINsf2Ofu6U76ikJR3no0F50ywgSisWJ2Q5B0yTSFCjuWFHCz/sUcFznHKK2Q0Pc4qiOWZiGQUUkjt809U0LtAAAIABJREFUOKxjJg9+XcqyynoA4k1NknHH4bPKMIcVZOM4DtvDUf5ZVsuRHbOIWjZR26E+HufjinoOysvEABZX1LG2PsLMg3p5fRf9psGwvHS+rGnAcRpD6ob6CL8e2JGjO+UQsWzW1UWJOg59MxvDsOm0vXCTOAjD7Wfn8/lYuXIlN910ExdeeCElJSX4/X5isdi39r9zHIdYLIbf76e0tJSLL76YG264gRUrVniVPbdpV335RH48hT0R+dGcpmlWHMfhs6oQtg2HF2ZjOQ7pPh9+w8BnwOKKejL9JkPz0rEdhwy/D79pUBmzSPebZPt9LK+sp96yObpjNqYBQQOWVzeQ4TMZmpOB7UDQNHi/vJ6CgI/CND+O4/D30lpGdMikX1YatuMQ9PuojFpELZu8gI+YbbO+LsaJXXKwHIeAAUGfSXHYwnIcsgMmQZ/JjAN6UhG1uHzpJp7fUIG/aXBFdTTOpnD0/7d37+FRVGfgx78ze8sm2U0CgQRCEhCoSEEEoQZBRKyoLYgIgmKt0KJWBGsVRB/iTy0KCHgBARGF31O1rYK3UOrzw1rqhSqIgFVERcULdwgh5LLJ3mZ+f2zOMLsEL0hI2Lyf5wkhe51NZs68855z3kP/VulomkZFOEppMEr/Vum4NHBpUB6O8nV1kMG5GYQNk/cOVtM+zYPP7cA0Tdy6RjBqsK82QpY7NgP16+ogrT1OrsjPImwYuHWNvbVhAlGDnlmpTW42bmJtwUgkgsPhQNd1/vGPf3DttdeyYMECnE4nuq4TiUR+8GtHIhE0TcPpdLJ48WKuueYaSkpK0DQNh8NhBY0S8AlxfCTYE0IcN43YBAlN0zgcipKia+SnujFNMGylVsrDEbI9TtqkuDDMWPGSUNTg20At+V4XDl3j3YMBWnucFKS5gNg81fUHq+mQ5qWt12XNUt1YVkO3DC+tUlxomsaH5bWcm52G3+Ugapo4NY1/7avA5dBo43VxOBQhbBgUpHpA02Lj4DSN9QeraJXiJMvtxDQ1fpGdzkv9OtA/O41Jm75lQ2k1mqbxZVUQpw5n+GOB6pdVQbwOndPSPYTrtml3IEwEk54tvFSEo+wJhMlJcRAxTKJ1k1iqIgY7AyEuaO3DNE2+qgrRKsVNS0/d70TT+DYQIs2h09HnqZvZ3DQCm8SSKpFIBKfTyd69e5k7dy4jR45k48aNVretYRjH9R7qdT/44ANGjBjBjBkz2LVrFy6Xi2g0anX9nmozlYVobBLsNRJ7uQg15kX9/7u+hGhKTI5k9txOnYPhKFXRKE5dw63reByxMVc+p25lrZy6hseh89w3BzkUinJhTmyM3NaKWvJT3bRP8wCx4GdbZZCuGSnkel1W4eNva0J0y/CS4XISjBrsD4Y5GIzidTpw6TqBcJS5n+7n120yaJPiwuvQiZgmu2vCODQNt0OnLBTh/35Vyu86tMSl66gEmt/t4qGeBWS6HbyxvxLTNNlYFiA/1UOKw0HYMPngUIB8rxuPw4Fb14kYJp9W1NDC7STF6cClQSuPk321se7hdFesO/KFHeWkuRxc0iaDslCUbwMhflYX1Dk1jbBh8E0gREGqG1fd6x6z6vJJlJjN03Udl8vF2rVrmThxIlOmTCEUClkZuJ9KZQwNw2DatGn84Q9/4M0334zLGEq3bv3s55VoNFrvV33nmpO5bYZhWNthv100LJmg0UjsRWTt3+0Mw8AwDGs2G8jMNNG0aKaGrplomk6/lqk87XJwxwe7GHtaNvtrwmS4dC5rl8WlbTN5ZWc5kz/YyaiCFuyvDbPsq4OMKWjBwFw/EcNk06EAF7b2keF2YpgmFaEIn1bUclnbDJy6jmnCl5U1fF0VpF2aG4eu8WFZgHSnxvqD1Tz5xQFaeJy8suMQbh1uO701qU4HaBqX52Xy56272VkTItXl4KUdhzgtPYXrO2RTGzGY//k+2qe5SXM6+OhwDSHDZGDrdIKGyYqd5fTM9GJqsZmxGrC9OsjKnYfIdDvplZnKyl0VnOFLwTRN0l0OhuRlUrK7grmf7OE0XwobSqv4f3srKO7aBq/TwebyKtaXVTP59NxYaRgNPjtcw7rSai5p428yExLsgV44HMbtdhMIBHjuuecoLi62xuapQOJEUeP0nE4nq1atYv369dx3332MGTOGjIwMa5yfTN6IZz+fqDGPx6KyqHByzivq9dW5LPF20bAk2Gskx1og3M4e5Kmr3SNLRMkBIhqfpmnoxPbn7llp3H9mWxZ+foBnvyolEDW5oFU6UcPgzMxUHjgzjyVflvL8NwcJGSbXtW/J7zq0xK1p1EZNLsrxcX6rdKvAcUUowq/b+jm7Raq1LFpFKMqYghacnu6JlTc5WE0Ll5MhbTP54FCA3TVhUhw6i3sX0NnvjWUdDYMHzsxj1ta9rNp9GF2DbLeLR3q2IcPtpDps8kVVLe+XVePSNIKGyV1ntKFPdjo1EYM+LVIZlpcBJrh0jeH5WWwsD/C3b8ro3yqNPi1SOTPTS1F2mrU+7oDWPqb9PIeVO8vZUBYAE/7Pz9swvG6ptXSHxsU5fga1TgfURBc4r7WPS3Iz6go6N96J0B5AqUkYbrebrVu3smjRIhYuXAiA0+n8UWPzfuw2qIDkwIEDTJgwgffff59bbrmFHj16WMGllGg5Qv0ODMPgyy+/pKKiIu52j8dDq1atyMnJsf526rzS0FTioqysjK+++oqCggJatWpl3S4algR7jUQdfJWVlbz00ku89957VFRUWI2sw+GgRYsWdO3alSFDhtC2bdu4UgRCNAWmZtatLRtbPWNQbgaDcv18XRUkw+Uky+MEYitaxO7LYE9NiFYeB07dAXVBjtuh8UD3PNtatSZtUz082ivfWhLNNOHMrFQezUojZMa6gDYcrCbX62Ji59aE67pqC9Nj3cBqpQqANl43884uoDwUwTChhcdpPSbNrbPsnNMorQ1TGYlSmOpB17W6SSY6c89qh0M7ssTZz/xeni06jd01YQrS3GjA/T3ysOdR3LrG+I6tGdshmwPBKG28sXGIoWgUl8NBt4xU5vUqsLqPNU2jqz+Fh87KR6vru3VoJz+AScyShcNhXK7YtpeUlDBz5kzWr18fdxHa0FTXMcCyZcvYtGkT06ZNY+TIkdY2SpYvxlrLORJhzpw5rF27Nu52h8NBeno6vXr1YtSoUZx//vnWeQUa9vem3mfdunVMmTKFu+++m6uuuopIJILb7W6w9xUxEuw1EtUoBQIBli1bxttvv82wYcOora0FYldBW7ZsYdGiRaxYsYI5c+Zw1lln1Vt7qj6JGcAfMy7ihz7n6DVKRXOjmRomprWKRsSMdXW2T08BVMCl4dRjtfZ0LRZ4AYQNE4eGtUyZqf6tC/hiwY5mZfU0DRyaHhukX7fm7GeVtYwpbEHINHE7dArTPUTN2MQQB0fWmzXqgspMd6zJiy2nhpWVNIDsFBfZuKxtc2pHlmlTy8CZVnCq074uqATQ6yak6HUrZ5hm7D1cuk4brx5bos0Et8OBSWylEWu9X/Uamm69vs7JD1jsx7EaV+Vyudi1axdPP/00999/P4FAoEGzeceixnepyRtjxozhww8/ZNy4cXTo0IFQKGSN6VOfpTmyt8mfffYZ27dv595777UC5mAwyPbt23nuuecoKSnh5ZdfplevXladRPVc9d0ePP+QcZL2iTmJz1HPO3ToEFu3bmX//v1HvY9inxDU3AP4E0WCvUaidlyn04nb7Wbw4MG88sorcY+pqalh5cqVTJgwgcmTJ/PCCy/g8/mstLca02dfXsg+xq++A0U14uo5arCu+r89pf99z1GPla7lZsyWidM0DUddABOty6rV5eQwzVjwhu0+Z2yo2jFPHonBkP02h6ZRFgzzVXWIDmlu3I5YQBVbySN+/1Xdwlrd/RDLmh25H3Ri96n3c8am/sZtg7WPm0ceqzqfrO1MeA3741y2TN13fTbN9vPJOqbs26UuKF0uF2+88QYPPfQQq1atAmI9Dic70LNT3Y7hcJjp06fz3//+l6lTpzJ48GCg/ixfc6RpGm63m7Zt23LnnXcedf+bb77JxRdfTHFxMatXryYYDFqBsmrf1Xg+RU2MSRwLaN9nEu9TQaa9m1YF5SpjbC8xpF7H/ng5r5wYEuw1MnWgRCIRq2SB2tG9Xi+jR4/m008/ZcaMGaxbt45LLrmEUChkHViJB5f62R7EqSunaDQad/UL8YNl7a+lGspIJILL5Trmc5prlXuZJX006+9PQhBj+xfiSwDU95uLG8daz20QC9ZCEYPbftaaMzO9sfttgV7ic+zbVt/99W033/GcxMda25nwXavvvoTX/a7PezL3LdM0CYVCeDweQqEQS5cu5cEHH+Sbb76xZseeyEkYx8t+4blmzRo+/vhjpk6dyvjx4/H5fASDQdxud7Noh76L+nsGg8Gjump79+5NUVER27dvj78AqbuIh1gGbvfu3bhcLgoKCkhJiWXrVcCtGIZhBYZ79uzh4MGDpKam0qFDB+t29TdT26XOT+pn+/kJoLy8HKfTSVpamvU+zf3v+VNJsNfI7Duww+GIC5hqamrQNI127doRCoXYsWNHXHr7o48+4tVXX2X79u1UVFTg8XgoLCxk2LBh9OrVCzgyKFYNdK6treXFF19k7dq1lJeXk56eTt++fRk4cCCrVq1i0KBBdOvWDU3TrPE6+/fvZ8WKFWzevJmqqir8fj89evTg2muvxe/3W6n7ZD8YE8sahMPhuEZLnDwG0MqtM+WM1phRs1GzTac6+4Wax+Oxho88/vjjQMNOwjhe6hh0OBzs27eP2267jc2bNzNp0iT69OljFWG2t6nNlbrAV8GeShKUlZUd1e3tcDj4/PPPWbRoEevXr6e6uhrTNMnOzmbw4MFcd911tGnTxsrYqUzfO++8w1NPPcWHH35old8pLCzk8ssv5+qrr8br9Vrnk8QLGU3TrIuMbdu2MXv2bNxuN5MnT+a0005rNueXhibBXiOz7/gqeLAflG63m8OHDwPQokUL64p2/vz5zJw5E4/HQ7t27axyBCUlJTzzzDPcf//9XHnllVaXh9PpZNu2bUyfPp2VK1fSoUMH2rVrx969e3nzzTd56qmnePfdd/nLX/5Ct27drPE6b7/9Nvfeey/r16+nW7duZGdns2PHDp555hlWr17NzJkz6dq1a9xnSdaD0l46oEWLFjKouInQnNSNtBM/lRofvGHDBoAfvRLGyaYyVqZp8swzz7B582buvvtuRo0aZT0mWduj76N6dhJ7gEpLS1myZAkfffQRM2fOtAI2XdfZtGkTN954I59++im/+c1vyMvLwzAM/ve//3HPPffw1ltv8cgjj9CpUyfrPV566SUmTpyI1+vliiuuICsri2AwyH//+19uuukm/ve//1FcXExGRgZwdLmxYDCIz+djy5YtjB07lg8//JCZM2eSnZ19XMW5Rf0k2Gtkapq8x+OpN3h4//33eeKJJ+jRowf9+vWLCwaHDx/Ob3/7W7p27Yrf76e2tpb33nuPm2++mT/+8Y+0b9+ec889l2g0SjAYpLi4mJKSEubMmcM111xDy5YtCQaDvPXWW8yePduamq/s2bOHCRMmsHfvXpYsWcLQoUPx+XxUVFSwevVqxo4dy+9+9ztWr15NZmamlY5P1sZVNTyBQIB58+aRmZlJKBRK2s8rmgcVFJSWlvL0009TWVlpddueCidb++SNLVu2MH78eLZu3crVV1/N6aeffkp8hoag6zoHDhywZryqWbr79u1jy5YtzJkzh9tvv93qPt2/fz833HADX3/9Na+99hp9+/aNe72lS5cyfvx4srOzefrppwHYuHEjN998M23btmXFihV07NjRenwoFKK4uJg5c+aQn5/P5MmTgfgERyQSwefzsXnzZq655hoOHTpESUkJl156KXCkZ6q5Z2dPBAn2GplhGPh8PjZu3MjkyZOtrttoNEppaSmvvfYaPp+PRx99lNzcXKs79pZbbjnqtVJSUhgwYADz58/nwgsvZN26dfTt2xeXy8XKlSt58cUXeeCBB6znqrEWF110EW63m//85z+EQiEgllVcsGABW7ZsYeXKlQwdOtR6H7/fz5VXXomu64wcOZLXX3+dK664IulrJakGp7q6mscee8z6XQmRTJpit+0PoUp4VFZWct9995GRkdGsgz04UlzZXn8PYt31u3btYseOHVb27u2332bjxo0sXbqUvn37UlNTYz3X5XLx+9//nq1bt7JkyRI2b95Mz549Wb58OZWVlSxevJiOHTtSXV2N2+0mEong9Xq599572bBhA8uWLWP06NHk5+db4z7VDOq1a9cyZswYnE4nK1asoH///nETO5I5gXAySbDXyNSsp/LycjZv3kwwGLS6an0+H9dffz0jR46kqKjIGqNir3weDAb57LPP2LNnD4FAgPT0dKqqqvB6vVRVVVnjcV555RW8Xi9DhgyxBlqrRl1tg5ppq6xcuZL27dtzzjnnUFtbG9dlEg6HGTp0KPn5+Tz//PNcdtll1uyqZD047WObUlNTJdgTScW+JJrK7J0qGRUV1IRCIfx+P3fddReDBg0Cjl6xobkwDIPs7Gz++te/xt2+b98+Xn31VSZPnsz27dspKSkhEAiwZs0acnNzGTFihLVaivrdqQkWv/rVr3j44Yf597//TY8ePXjrrbc466yzOPvsswmFQni9Xmvlk1AoRGpqKpdddhmTJ09mw4YN5OfnW/tUTk4OH330ETfeeCOnnXYajz32GN27d4+bkWufPJKM55STSYK9RqbrOpWVlfTo0YPnn3/e6hZ0uVxkZmbGzWZSO7/T6eSLL75g8eLFrFu3jtLSUoLBIJFIhNTUVBwOB4FAwJo9pWkaBw4coKCggNTU1Ljp8+rAVFXy1ZdhGAQCAcrKyhgyZAhut9sq8wJYg5937NhBdXV13ODbZG1cVSMlY/ZEMlIn1EAgYF0oJl4ANkWqXYxEIvTp04dp06YxbNiwuPubI5XJs5dG0TSNnJwcxo0bRzQa5frrr7fGY3/77bekpaVZ47/V4+1/fzXL+cCBA4TDYfbu3UuXLl2OGZBFo1HS0tIwDIPy8nLgSAZ2+fLlzJs3j61bt3LllVdaWVjDMKzEgf2ziJ9Ggr1Gprps09LSyM7OPup+FYQ5HA7rgP3444+54YYb2Lx5M6NHj+aqq64iIyPDavS+/vprZs2aFdcVo+v6UQGdfTWO+opnAmRmZtKvXz/S09OtcR/27b7kkkvIzs7G5XIlfZFldeLz+XxMmTKFNm3ayFI/IqkYhkE4HGb16tUsWLDAurhsqt269m278cYbmThxIt26dbNm47rd7lMmO3kyqMAtGo3Su3dvNE3jvffeo0+fPmRlZREKhaitrY3r+rUKkxuG1RPk8/lwOp1kZmZaNfrq63LVdZ2amhog1huiOJ1OSkpKGDlyJJdeeimzZs1i3LhxLFq0CL/fL8uDNgAJ9hqZ2pGj0ah1MNkzb/arKzXGbvny5bzzzjssXLiQCRMmHPWaX3zxBTNmzLAaQdM0adu2LWvWrLGm0quZv5FIxAo21WNVIJiZmUlZWRmPPPLIj/osydq4qgbH7XYzcOBACgoKGnmLhGgYgwYNonfv3hQXF7Nz58647H9ToNrISCRCXl4e06dPZ9SoUaSlpREKhXC5XFKyo04oFIqrs6frOm63mz179qDrOjk5Oei6zoABA3j22Wf517/+xdChQ6muro4rleLxeNi0aRNer5d+/frhcDgoKipi+fLlfP7553Tu3DluzJ5KMKxfv57CwkLOPPNMINZ+1tbWcvnll7NgwQJycnIwDIPp06eTlZXF7NmzSUlJsYYtScB3Ykiw18jsmTI1TV79P/Fxaqfft28faWlp1oylQCCA2+22unxnzpxJTU0NPp/Peu7o0aN59tlnWbRoEYsXL7aCSZUu37hxo1VuRbn++uu56aabWLRokRVU2gfOVlZWsmzZMn7zm9/QsmVLIHmzenAk+6m6JNR6xYmFrYU4lZmmSWpqKtdddx0dO3bk4Ycf5uWXXwawehgak9qGSCTCkCFDuOOOOzjvvPOAI12E0HyXTFN0Xcfj8cRVWFA++eQT7rrrLvx+vzW28cILLyQ/P5877riDs846i/z8/LjnvPXWW8yaNYu+ffty7rnnAjBixAiWLFnCnXfeyd/+9jcraaDOI0uXLuXvf/87t99+O6effjqAdY4bNmwYOTk51NbWcuedd3L48GHmz59PamoqM2bMsC4wZD34E0OCvSYgMbCrr5GylzU544wzqK6u5s9//jNTp06lc+fOHD58mDfeeIMnnniCsrIyMjMzreKWkUiEQYMGcfvttzNjxgz27t3LiBEjyM/P58CBA7z++uu8+uqr1qwrlWm87rrrWLNmDbfeeiu7d+/m2muvpWPHjpSXl7NmzRrmzZvHvn37uPrqq4/a9mQ8OO2BucPhsJZlkmBPJIvEnob+/fvTqVMnioqKmD59OlVVVY3araveOy0tjeLiYq699lry8vIIh8PWMZnMbdAPZZomtbW1fPXVV/zpT3+yLtLVOLt33nmHqqoqnnzySaueXUFBAQsXLmT8+PFccMEFjB49mk6dOhEOh9m0aRPPP/88BQUFPProo7jdbqLRKP3792fu3LncddddDBgwgGHDhtGuXTsOHz7MO++8w4oVKxg6dCi33nqrtRxnOBwmGo1SXl5u9Vh5vV7uu+8+ysvLmTNnDsFgkHvuuYfMzExrqExz/nueCBLsNRJ7raHa2tq4n+sbA6aCimg0ylVXXcW2bdt44okneO2118jJyaGmpobq6mouvPBCxo8fz7hx4ygvL48bd3HbbbeRm5vLU089xeTJk60MYufOnRk9erRVTkQ9JyUlhYcffph27dqxcOFC/vKXv5CVlUUkEmHnzp1069aNRYsW0aJFi7hgVA5KIU5NqvdA9TKEw2Fyc3OtbM8999zDunXrrDFdJ2vyhjrZq0kY06dP5+KLLwawJodBcvcs/BDq8+u6TlFREQDvvvuuNblO0zR8Ph9jx45l6NCh9OvXLy57NmTIEF588UWefPJJnnvuOSuD6vf7GTt2LDfeeCNdunSxhhulpKQwadIk2rdvz7Jly3jiiSeAWO9H69atmT59OuPGjSM3N5dgMAhAXl4eAwYMoLCw0OpSjkQiZGZm8tBDD5GWlsb69evZuHEjv/zlL+M+lzh+Euw1EhXQ+f1+5syZE3d7fTu1CvYMwyAnJ4dZs2YxZMgQPv30U8rKyvD7/XTp0oXBgwfjcrlIT0+nQ4cO1oEfjUZp2bIlkyZN4pJLLmHbtm1UVlbi8Xjo1asXO3fuZMGCBdZ7qYa1Xbt2zJ49m2HDhvHBBx9QWlqK1+ulc+fOnHvuueTl5QFIoCdEkrBPtHK5XFbZjcGDB1NYWMjjjz/OvHnzgJNTk8/+HhMnTuTmm2+mS5cu1kxT+7iy5t7+qM/vdDr505/+RCAQOGpJTr/fT1ZWFkBc1kwF7v369aNPnz5s2bKF0tJSHA4HeXl5dOnSBYhfG1eNIx8+fDiDBg3ik08+oby8nJSUFDp06EBhYSEQmxCiutd/8YtfsHTpUlq1amVtk8omZ2dnM3fuXL788ktraJAUVT4xJNhrJOoA9Hg81vgHOHaZAPsVm5oReumll1rj9hKp21XGzel08sYbb9CnTx86d+5M586d4x7/zDPPEAwGrTpIagawOpjPP/98zj///KPeJ3FMhVyBCXHqs0+2stfWPP3003nggQcoKiri9ttvZ/fu3Q02ecM+CSM3N5eHHnrIWsVHLQEpRXfj2YeatGnT5piPU1lZ1Xbbf4cqMFPrq9up+qz1vVZGRoaVTbTfp84lSnp6urXcmn2b1fkmNTWV7t27x72G/H1/OqkZ0Ujs3bbRaNQa9KwOjkTqgFSNr5pJq65uE39W/1cH9K5du7j11lsZOXIkH3/8cdxrL1++nAcffJDBgwfTvXv3o6bOq9dTDbr9veyNhRyUQiQHe9CgvlwulzVe7qqrrqKkpITRo0dbWbcTOXbV3u6MGjWKkpISxowZg8/nsyaSySzNo9nPK6p4vv3LvgSeSiwkllhRQZfqwrW3/ar7PnHYjjonqefYz2nqb5l4zrP/nHhuU9ua7BUeTibJ7DWSxMH+ibd/13MSa+TV9zr2gcrRaBS/38+ECRO48847Oe+88+jatSter5eysjI2bdrEBRdcwPz5863xd4ldsokDn+1T4qXBFSJ52U+4KosH0Lt3bx577DH69u3L1KlTCQaDuFwua2LY8VLdtl6vl5kzZ3L11VfTunVr631VwAHSbZsoMUj/MRJXqzhW1tT+s/3+H/qc7zvnHWvMuvhpJNg7BdkPru97nBqL4fP5uOGGG+jTpw+vvfYamzZtoqamhj59+jBp0iQuuugi8vLy4hrRxKDvWGMJhRDJy94W2C80I5EIrVq14o9//CM9evRgypQpvP/++zidzrgM0g+lSjpFIhHOPvts5s6dy8CBAwGsJSLl4rLh1NfO/5BzzI99jmgcEuwlOXtqXNd1evbsSc+ePamqqiIYDOL3++NmstnH6MhBK4SAo0/qKsunZnkOHDiQv//97zz55JPMnj0b+HGTN9RjDcNg6tSpjB8/nk6dOsWNOZY2SYjjJ2P2klziVbnqCklPT6dly5ZWpXl7tXlpVIUQx1Lf5I1oNEqnTp249957eeGFFygsLLSycd9HBXqFhYW89NJL3HPPPXTq1Mka12W/+JSxW0IcHwn2mgF7V6y9PpZ9AKzqmpHyKUKI72LP8qn2Q9UA9Xq9jBgxglWrVjFq1Ki4FXcS2bttR40axT//+U+GDx+O1+s95lJZ0jYJcXwk2GsmEq+M7cGdut/+XQghvo9qQ+ylmkzTpFu3bixcuJBFixZZ44btWT57F/Djjz/OwoUL+fnPf25dhKrkGzUHAAAD00lEQVSLUrn4FOLEkGCvmahvltZ33SaEED9EYrcuxIrtZmdn84c//IE333yT3r17W926qtu2qKiIt99+mxtuuIHs7GyreHPi0BMhxE8nwZ4QQojjltitC1iTwjRNo1+/frz44osUFxdbddvuvvtuli9fTt++fa0VflQ5Drn4FOLEk9m4QgghTojEWqAq+CsoKGDatGkUFRVhmiYXXXQRHo8nrsBvYp03IcSJI8GeEEKIEyqxK9YwDFJSUvj1r39tPUaVg7IHdxLoCdEwpBtXCCHECZdYmN0+/u5YJVUk0BOiYUiwJ4QQokHUV4w5sbtWsnlCNDzpxhVCCNHgjrVeqgR6QjQ8yewJIYQQQiQxCfaEEEIIIZKYBHtCCCGEEElMgj0hhBBCiCQmwZ4QQgghRBKTYE8IIYQQIolJsCeEEEIIkcQk2BNCCCGESGIS7AkhhBBCJDFZQUMIIUSzpNbkVcu4CXGiJK4F3dgksyeEEKJZaWonYtE8NOa+Jpk9IYQQzYpaj9c0TTRNIxKJoGmarNMrThjTNNF1HU3TMAwDaNx1oCXYE+J7yJW/EMklEokAsHz5ctauXUs4HJZAT5xQ6kICoKKiAoBwONxo23NKB3tyJSZOtPr2J9nHhEhOhw8f5vDhw429GUI0uFMq2FOp0G+//ZacnByqqqok4BMnlGEYuFwuDhw4QHV1NSCZPSGEEKe2UzLYGz58eCNviWhO1H4nhBBCnIpkNq4QQoikZS+rIll60ZSczH1Tgj0hhBBJx37ylOy8aIoMwzhpFyCnVDeuEEII8UOosdwpKSm0b9+e8vJydF2X7J5oEiKRCF6vl6ysLABr32yoOQhNLtiTdLtoquqrti/7qRBNk67HOq569uzJhg0bAJlZL5oOde5Q+6TT2bDhWJML9hQ5iYqmRnUF2fdNOXkI0TSpY1PTtAY/kQpxvOznkIY8nzS5I0BdjXXp0oVzzjkHj8fTyFskxJFq6DU1NXTv3p309HRAgj0hmip7l5gcp+JU0JDduJrZxFJoDflhhTjRZH8VQgjR1DW5zJ4SjUalK1c0SZqmWWseSqAnhBCiqWuywZ7qzhWiKZPMnhBCiKauyXXjCiGEEEKIE0fSZ0IIIYQQSUyCPSGEEEKIJCbBnhBCCCFEEpNgTwghhBAiiUmwJ4QQQgiRxCTYE0IIIYRIYhLsCSGEEEIkMQn2hBBCCCGSmAR7QgghhBBJTII9IYQQQogkJsGeEEIIIUQSk2BPCCGEECKJSbAnhBBCCJHEJNgTQgghhEhiEuwJIYQQQiQxCfaEEEIIIZLY/wdbYp3ntRpAcQAAAABJRU5ErkJggg==;" parent="1" vertex="1">
                    <mxGeometry x="1617.5" y="780" width="295" height="141.23" as="geometry"/>
                </mxCell>
                <mxCell id="1268" value="Shield" style="rounded=0;whiteSpace=wrap;html=1;strokeWidth=1;" parent="1" vertex="1">
                    <mxGeometry x="-1320" y="760" width="120" height="60" as="geometry"/>
                </mxCell>
                <mxCell id="1190" value="&lt;b&gt;Bot&lt;/b&gt;" style="swimlane;fontStyle=0;align=center;verticalAlign=top;childLayout=stackLayout;horizontal=1;startSize=23;horizontalStack=0;resizeParent=1;resizeParentMax=0;resizeLast=0;collapsible=0;marginBottom=0;html=1;strokeWidth=1;" parent="1" vertex="1">
                    <mxGeometry x="309" y="336.5" width="240" height="391" as="geometry"/>
                </mxCell>
                <mxCell id="1191" value="attributes" style="text;html=1;strokeColor=none;fillColor=none;align=center;verticalAlign=middle;spacingLeft=4;spacingRight=4;overflow=hidden;rotatable=0;points=[[0,0.5],[1,0.5]];portConstraint=eastwest;" parent="1190" vertex="1">
                    <mxGeometry y="23" width="240" height="20" as="geometry"/>
                </mxCell>
                <mxCell id="1194" value="- coordinates : tuple" style="text;html=1;strokeColor=none;fillColor=none;align=left;verticalAlign=middle;spacingLeft=4;spacingRight=4;overflow=hidden;rotatable=0;points=[[0,0.5],[1,0.5]];portConstraint=eastwest;fontColor=#808080;" parent="1190" vertex="1">
                    <mxGeometry y="43" width="240" height="20" as="geometry"/>
                </mxCell>
                <mxCell id="1233" value="- heading : float" style="text;html=1;strokeColor=none;fillColor=none;align=left;verticalAlign=middle;spacingLeft=4;spacingRight=4;overflow=hidden;rotatable=0;points=[[0,0.5],[1,0.5]];portConstraint=eastwest;fontColor=#808080;" parent="1190" vertex="1">
                    <mxGeometry y="63" width="240" height="20" as="geometry"/>
                </mxCell>
                <mxCell id="1192" value="- name : str" style="text;html=1;strokeColor=none;fillColor=none;align=left;verticalAlign=middle;spacingLeft=4;spacingRight=4;overflow=hidden;rotatable=0;points=[[0,0.5],[1,0.5]];portConstraint=eastwest;" parent="1190" vertex="1">
                    <mxGeometry y="83" width="240" height="20" as="geometry"/>
                </mxCell>
                <mxCell id="1248" value="- health : int" style="text;html=1;strokeColor=none;fillColor=none;align=left;verticalAlign=middle;spacingLeft=4;spacingRight=4;overflow=hidden;rotatable=0;points=[[0,0.5],[1,0.5]];portConstraint=eastwest;" parent="1190" vertex="1">
                    <mxGeometry y="103" width="240" height="20" as="geometry"/>
                </mxCell>
                <mxCell id="1249" value="- speed : float" style="text;html=1;strokeColor=none;fillColor=none;align=left;verticalAlign=middle;spacingLeft=4;spacingRight=4;overflow=hidden;rotatable=0;points=[[0,0.5],[1,0.5]];portConstraint=eastwest;" parent="1190" vertex="1">
                    <mxGeometry y="123" width="240" height="20" as="geometry"/>
                </mxCell>
                <mxCell id="1250" value="- fov : int" style="text;html=1;strokeColor=none;fillColor=none;align=left;verticalAlign=middle;spacingLeft=4;spacingRight=4;overflow=hidden;rotatable=0;points=[[0,0.5],[1,0.5]];portConstraint=eastwest;" parent="1190" vertex="1">
                    <mxGeometry y="143" width="240" height="20" as="geometry"/>
                </mxCell>
                <mxCell id="1251" value="- weapon : Weapon" style="text;html=1;strokeColor=none;fillColor=none;align=left;verticalAlign=middle;spacingLeft=4;spacingRight=4;overflow=hidden;rotatable=0;points=[[0,0.5],[1,0.5]];portConstraint=eastwest;" parent="1190" vertex="1">
                    <mxGeometry y="163" width="240" height="20" as="geometry"/>
                </mxCell>
                <mxCell id="1252" value="- shield : Shield" style="text;html=1;strokeColor=none;fillColor=none;align=left;verticalAlign=middle;spacingLeft=4;spacingRight=4;overflow=hidden;rotatable=0;points=[[0,0.5],[1,0.5]];portConstraint=eastwest;" parent="1190" vertex="1">
                    <mxGeometry y="183" width="240" height="20" as="geometry"/>
                </mxCell>
                <mxCell id="1195" value="" style="line;strokeWidth=1;fillColor=none;align=left;verticalAlign=middle;spacingTop=-1;spacingLeft=3;spacingRight=3;rotatable=0;labelPosition=right;points=[];portConstraint=eastwest;" parent="1190" vertex="1">
                    <mxGeometry y="203" width="240" height="8" as="geometry"/>
                </mxCell>
                <mxCell id="1196" value="operations" style="text;html=1;strokeColor=none;fillColor=none;align=center;verticalAlign=middle;spacingLeft=4;spacingRight=4;overflow=hidden;rotatable=0;points=[[0,0.5],[1,0.5]];portConstraint=eastwest;" parent="1190" vertex="1">
                    <mxGeometry y="211" width="240" height="20" as="geometry"/>
                </mxCell>
                <mxCell id="1234" value="- init(string, tuple=(0,0), float=0.0) : void" style="text;html=1;strokeColor=none;fillColor=none;align=left;verticalAlign=middle;spacingLeft=4;spacingRight=4;overflow=hidden;rotatable=0;points=[[0,0.5],[1,0.5]];portConstraint=eastwest;" parent="1190" vertex="1">
                    <mxGeometry y="231" width="240" height="20" as="geometry"/>
                </mxCell>
                <mxCell id="1246" value="+ get_position() : tuple" style="text;html=1;strokeColor=none;fillColor=none;align=left;verticalAlign=middle;spacingLeft=4;spacingRight=4;overflow=hidden;rotatable=0;points=[[0,0.5],[1,0.5]];portConstraint=eastwest;fontColor=#808080;" parent="1190" vertex="1">
                    <mxGeometry y="251" width="240" height="20" as="geometry"/>
                </mxCell>
                <mxCell id="1247" value="+ get_heading() : tuple" style="text;html=1;strokeColor=none;fillColor=none;align=left;verticalAlign=middle;spacingLeft=4;spacingRight=4;overflow=hidden;rotatable=0;points=[[0,0.5],[1,0.5]];portConstraint=eastwest;fontColor=#808080;" parent="1190" vertex="1">
                    <mxGeometry y="271" width="240" height="20" as="geometry"/>
                </mxCell>
                <mxCell id="1197" value="+ shoot() : void" style="text;html=1;strokeColor=none;fillColor=none;align=left;verticalAlign=middle;spacingLeft=4;spacingRight=4;overflow=hidden;rotatable=0;points=[[0,0.5],[1,0.5]];portConstraint=eastwest;" parent="1190" vertex="1">
                    <mxGeometry y="291" width="240" height="20" as="geometry"/>
                </mxCell>
                <mxCell id="1253" value="+ forward() : void" style="text;html=1;strokeColor=none;fillColor=none;align=left;verticalAlign=middle;spacingLeft=4;spacingRight=4;overflow=hidden;rotatable=0;points=[[0,0.5],[1,0.5]];portConstraint=eastwest;" parent="1190" vertex="1">
                    <mxGeometry y="311" width="240" height="20" as="geometry"/>
                </mxCell>
                <mxCell id="1254" value="+ stop() : void" style="text;html=1;strokeColor=none;fillColor=none;align=left;verticalAlign=middle;spacingLeft=4;spacingRight=4;overflow=hidden;rotatable=0;points=[[0,0.5],[1,0.5]];portConstraint=eastwest;" parent="1190" vertex="1">
                    <mxGeometry y="331" width="240" height="20" as="geometry"/>
                </mxCell>
                <mxCell id="1209" value="+ turn(str) : void" style="text;html=1;strokeColor=none;fillColor=none;align=left;verticalAlign=middle;spacingLeft=4;spacingRight=4;overflow=hidden;rotatable=0;points=[[0,0.5],[1,0.5]];portConstraint=eastwest;" parent="1190" vertex="1">
                    <mxGeometry y="351" width="240" height="20" as="geometry"/>
                </mxCell>
                <mxCell id="1213" value="+ turn(float) : void" style="text;html=1;strokeColor=none;fillColor=none;align=left;verticalAlign=middle;spacingLeft=4;spacingRight=4;overflow=hidden;rotatable=0;points=[[0,0.5],[1,0.5]];portConstraint=eastwest;" parent="1190" vertex="1">
                    <mxGeometry y="371" width="240" height="20" as="geometry"/>
                </mxCell>
                <mxCell id="1170" value="Bot" style="rounded=0;whiteSpace=wrap;html=1;strokeWidth=1;" parent="1" vertex="1">
                    <mxGeometry x="-1460" y="570" width="120" height="60" as="geometry"/>
                </mxCell>
                <mxCell id="1271" value="Utilise" style="edgeStyle=none;html=1;exitX=0.5;exitY=1;exitDx=0;exitDy=0;entryX=0.5;entryY=0;entryDx=0;entryDy=0;startArrow=none;startFill=0;endArrow=none;endFill=0;strokeWidth=2;endSize=9;startSize=9;" parent="1" source="1170" target="1238" edge="1">
                    <mxGeometry relative="1" as="geometry"/>
                </mxCell>
                <mxCell id="1282" value="0..n" style="edgeLabel;html=1;align=center;verticalAlign=middle;resizable=0;points=[];" parent="1271" connectable="0" vertex="1">
                    <mxGeometry x="-0.4134" y="1" relative="1" as="geometry">
                        <mxPoint x="-18" y="-28" as="offset"/>
                    </mxGeometry>
                </mxCell>
                <mxCell id="1283" value="2" style="edgeLabel;html=1;align=center;verticalAlign=middle;resizable=0;points=[];" parent="1271" connectable="0" vertex="1">
                    <mxGeometry x="0.5806" y="-1" relative="1" as="geometry">
                        <mxPoint x="-9" y="17" as="offset"/>
                    </mxGeometry>
                </mxCell>
                <mxCell id="1177" value="Arena" style="rounded=0;whiteSpace=wrap;html=1;strokeWidth=1;" parent="1" vertex="1">
                    <mxGeometry x="-1320" y="293.5" width="120" height="60" as="geometry"/>
                </mxCell>
                <mxCell id="1266" value="Game" style="rounded=0;whiteSpace=wrap;html=1;strokeWidth=1;" parent="1" vertex="1">
                    <mxGeometry x="-1320" y="154.5" width="120" height="60" as="geometry"/>
                </mxCell>
                <mxCell id="1287" value="&lt;b&gt;Game&lt;/b&gt;" style="swimlane;fontStyle=0;align=center;verticalAlign=top;childLayout=stackLayout;horizontal=1;startSize=30;horizontalStack=0;resizeParent=1;resizeParentMax=0;resizeLast=0;collapsible=0;marginBottom=0;html=1;strokeWidth=1;" parent="1" vertex="1">
                    <mxGeometry x="1685" y="107" width="190" height="158" as="geometry"/>
                </mxCell>
                <mxCell id="1288" value="attributes" style="text;html=1;strokeColor=none;fillColor=none;align=center;verticalAlign=middle;spacingLeft=4;spacingRight=4;overflow=hidden;rotatable=0;points=[[0,0.5],[1,0.5]];portConstraint=eastwest;" parent="1287" vertex="1">
                    <mxGeometry y="30" width="190" height="20" as="geometry"/>
                </mxCell>
                <mxCell id="1289" value="- arena: list(Arena())" style="text;html=1;strokeColor=none;fillColor=none;align=left;verticalAlign=middle;spacingLeft=4;spacingRight=4;overflow=hidden;rotatable=0;points=[[0,0.5],[1,0.5]];portConstraint=eastwest;" parent="1287" vertex="1">
                    <mxGeometry y="50" width="190" height="20" as="geometry"/>
                </mxCell>
                <mxCell id="1329" style="edgeStyle=none;html=1;exitX=1;exitY=0.5;exitDx=0;exitDy=0;entryX=0.5;entryY=0;entryDx=0;entryDy=0;startArrow=none;startFill=0;endArrow=open;endFill=0;startSize=11;endSize=9;strokeWidth=2;" parent="1287" source="1326" target="1287" edge="1">
                    <mxGeometry relative="1" as="geometry">
                        <Array as="points">
                            <mxPoint x="220" y="80"/>
                            <mxPoint x="220" y="-30"/>
                            <mxPoint x="95" y="-30"/>
                        </Array>
                    </mxGeometry>
                </mxCell>
                <mxCell id="1326" value="instance: Singleton" style="text;html=1;strokeColor=none;fillColor=none;align=left;verticalAlign=middle;spacingLeft=4;spacingRight=4;overflow=hidden;rotatable=0;points=[[0,0.5],[1,0.5]];portConstraint=eastwest;" parent="1287" vertex="1">
                    <mxGeometry y="70" width="190" height="20" as="geometry"/>
                </mxCell>
                <mxCell id="1291" value="" style="line;strokeWidth=1;fillColor=none;align=left;verticalAlign=middle;spacingTop=-1;spacingLeft=3;spacingRight=3;rotatable=0;labelPosition=right;points=[];portConstraint=eastwest;" parent="1287" vertex="1">
                    <mxGeometry y="90" width="190" height="8" as="geometry"/>
                </mxCell>
                <mxCell id="1292" value="operations" style="text;html=1;strokeColor=none;fillColor=none;align=center;verticalAlign=middle;spacingLeft=4;spacingRight=4;overflow=hidden;rotatable=0;points=[[0,0.5],[1,0.5]];portConstraint=eastwest;" parent="1287" vertex="1">
                    <mxGeometry y="98" width="190" height="20" as="geometry"/>
                </mxCell>
                <mxCell id="1328" value="- init()" style="text;html=1;strokeColor=none;fillColor=none;align=left;verticalAlign=middle;spacingLeft=4;spacingRight=4;overflow=hidden;rotatable=0;points=[[0,0.5],[1,0.5]];portConstraint=eastwest;" parent="1287" vertex="1">
                    <mxGeometry y="118" width="190" height="20" as="geometry"/>
                </mxCell>
                <mxCell id="1327" value="+ get_instance() : Game" style="text;html=1;strokeColor=none;fillColor=none;align=left;verticalAlign=middle;spacingLeft=4;spacingRight=4;overflow=hidden;rotatable=0;points=[[0,0.5],[1,0.5]];portConstraint=eastwest;" parent="1287" vertex="1">
                    <mxGeometry y="138" width="190" height="20" as="geometry"/>
                </mxCell>
                <mxCell id="1318" value="&lt;b&gt;Arena&lt;/b&gt;" style="swimlane;fontStyle=0;align=center;verticalAlign=top;childLayout=stackLayout;horizontal=1;startSize=30;horizontalStack=0;resizeParent=1;resizeParentMax=0;resizeLast=0;collapsible=0;marginBottom=0;html=1;strokeWidth=1;" parent="1" vertex="1">
                    <mxGeometry x="1670" y="337" width="190" height="118" as="geometry"/>
                </mxCell>
                <mxCell id="1319" value="attributes" style="text;html=1;strokeColor=none;fillColor=none;align=center;verticalAlign=middle;spacingLeft=4;spacingRight=4;overflow=hidden;rotatable=0;points=[[0,0.5],[1,0.5]];portConstraint=eastwest;" parent="1318" vertex="1">
                    <mxGeometry y="30" width="190" height="20" as="geometry"/>
                </mxCell>
                <mxCell id="1324" value="destroy() : void" style="text;html=1;strokeColor=none;fillColor=none;align=left;verticalAlign=middle;spacingLeft=4;spacingRight=4;overflow=hidden;rotatable=0;points=[[0,0.5],[1,0.5]];portConstraint=eastwest;" parent="1318" vertex="1">
                    <mxGeometry y="50" width="190" height="20" as="geometry"/>
                </mxCell>
                <mxCell id="1321" value="" style="line;strokeWidth=1;fillColor=none;align=left;verticalAlign=middle;spacingTop=-1;spacingLeft=3;spacingRight=3;rotatable=0;labelPosition=right;points=[];portConstraint=eastwest;" parent="1318" vertex="1">
                    <mxGeometry y="70" width="190" height="8" as="geometry"/>
                </mxCell>
                <mxCell id="1322" value="operations" style="text;html=1;strokeColor=none;fillColor=none;align=center;verticalAlign=middle;spacingLeft=4;spacingRight=4;overflow=hidden;rotatable=0;points=[[0,0.5],[1,0.5]];portConstraint=eastwest;" parent="1318" vertex="1">
                    <mxGeometry y="78" width="190" height="20" as="geometry"/>
                </mxCell>
                <mxCell id="1323" value="destroy() : void" style="text;html=1;strokeColor=none;fillColor=none;align=left;verticalAlign=middle;spacingLeft=4;spacingRight=4;overflow=hidden;rotatable=0;points=[[0,0.5],[1,0.5]];portConstraint=eastwest;" parent="1318" vertex="1">
                    <mxGeometry y="98" width="190" height="20" as="geometry"/>
                </mxCell>
                <mxCell id="1325" value="" style="shape=image;verticalLabelPosition=bottom;labelBackgroundColor=#ffffff;verticalAlign=top;aspect=fixed;imageAspect=0;image=data:image/png,iVBORw0KGgoAAAANSUhEUgAAAU0AAADECAYAAAAbOHNgAAAXp0lEQVR4nO3dT4gb1x0H8O/EuTS7291eUpKG7aLRNeC9+GCkkDiwo1PIwQfJvmwPWSrdCkEqZcEtmIKEoZhSTQmE6mTNwZCEYNjZw7ZZCR8MJWvck9kRYjE+1uvam/aQRD2E9zL/pJ0naTT68/3AwFp6evMkjX/6zXsz72kAeiAiokheSboBRESzhEGTiEgBgyYRkQIGTSIiBQyaREQKGDSJiBQwaBIRKWDQJCJSwKBJRKSAQZOISAGDJhGRAgZNIiIFDJpERAoYNImIFDBoEhEpYNAkIlLAoElEpIBBk4hIAYMmEZECBk0iIgUMmkREChg0iYgUvBpXxb1etJWBT09PI9e5trbGOlkn62SdY69T07TIdTDTJCJSwKBJRKQgttNzokGeP3/OOlnnxOpcXV0d2/4YNCkRd+7cwe9+97ukm0ELYn19HQ8fPhxLXQyalJhMJoM//vGP55ZbWVmJVN+LFy8i75t1Lk6dzWYT9+7di7zf8zBoUqLefvvtc8vM+sgs60y2zkePHo01aHIgiIhIAYMmEZECBk0iIgWx9WlG7buI2m/BOuerzp/85Cd49dVXI9U9b++ddU62ztdeew2vvPIK1tbWlPpU+2GmSUSkgEGTiEgBgyYRkQIGTSIiBQyaREQKGDSJiBQwaBIRKWDQJCJSwKBJE2Ga5sCp4D7//HP86le/mmCLiIbDoEkTsb6+DtM0cXJyEvr87du3le4WIUpKbLdRTvNUUaxz8nVev34dt27dwp/+9Cf87W9/w3//+198++23OD09xb179/D111/j9u3bofua9ffOOpOt85tvvsH333+P09PTsfwwM9Okiblx4wYajQa63a7n8b/+9a+4du0a1tfXE2oZUXQMmjQxH374IS5evIg//OEP8rF79+7h0aNH+PWvf51gy4iiY9CkiRLZ5rNnzwAwy6TZw+UuaKJEtnlwcIBvvvkGT58+xV/+8pekm0UUGTNNmrgbN27gn//8J/79738zy6SZw6BJE/fhhx/i7bffxv/+9z/2ZdLMmfjp+dHRkecSgZcvX0Z+7fLycqRyrHP66/zggw/wr3/9CycnJ32v3VStc1beO+sMymQykfeVtIkHzd/85jf4xz/+Mend0pT64osvkm4CTYFut4vV1dWkmxFJIgNBv//973Hjxo0kdk1EU+To6Aibm5tJN0PJxBdW++677+LaJRHNqNXV1cDdOlxYjYioj5OTE3S73bEEtbjxOk0iStyTJ0+wtLSEb7/9duonbmGmSUSJ+/7775NuQmQMmkREChg0iYgUMGgSESlg0CQPy7KgaRo0TYNlWTO7D6K4MGguGBGs/FutVku6aUQzgUFzQdRqNWiaBgBoNpvo9Xro9XpwHAcAUKlUAAD5fF4+l8/nE2vvIOK9aJqGTqeTdHNowTBoLoBOpyODomEYnmCYSqXQ6/VgGEZSzSOaKbEFzbW1tdDtwoULce2SRrC3twegf39jOp2GpmnI5XKeTE9kr265XK5vN8B52u124DXpdFo+XyqV5A8AAOi6Dk3TUCqVAu3v1/Wg8l5oMs7OzvDy5Uv85z//wenpqVwELcomyvfb/AurhW0qmGkugFQqBV3XAQC2bY8UJGzbBgD0ej1ZZy6Xk8/ncjlPGZUstlarIZvNQtd1+dpisQjHcWRb6/U6qtWqfI3jOOj1eqjX6yiVSigUCp7X67qOSqXiaWPU90IUhkFzQRwfH4c+rjoQZBgGyuUyAMgMUASfdrst/3YHtijcXQg3b96Uj1+7dk3+PWikvd1uwzRNAMDOzo58XPxt2zba7Xbk90LUD4PmAhHZV7PZDDxXqVQCQeU8qVTK8+/79+/Lvy9fvqxU14MHD+TfhUJBBvNsNhvp9U+ePJF/u5fPcLfDXcbP/16I+mHQXEDuEXJ3RugOeklyj+67t2kdzafFwqC5ANrtthwoGWTUBc6iZnVhLl26JP8+PDxU3vdbb70l/3Yvn+Fuh7sM0bAYNBeEaZqh1zX2uxRpGJlMRg6oNBoN+Xi//lS3VCols17TND39l51OB5qmye4Dd3AWp/WZTAbFYhEA8Mknn8jnd3d3AQDFYnGm1qGh6cWguQAymYwMSOISHffoeavVkpccjUoESPcovSACaj/lcllebO/u1xSvE0HP/X5EuVKphHq9jmazKUfbNU2D4zioVquo1+tjeX9EGoBeHBX3euHVvvfee3j33Xe5RtACEZchGYYxtuBM80GsEWRZFpaXl/HGG2/IQbmo10+eN9v7nTt3UK1W8fDhw751qlx+x0yTYuW+DGl7ezvh1hCNjgur0ViVSiV5vaSb4zi8rIf6WlpawvLyMn7605/KbJALq9FCqNfroZcLMWDSvGDQJCJSwKBJRKSAQZOISAGDJhGRAgZNIiIFDJpERAoYNImIFMR2cfsgjx8/xvXr15PYNRFNkY8++ijpJihjpklEpCC2TLPfrU0XLlyYyV8XIorP2dkZNE2TC6sB45uww7+w2qgSOT3/6quvOMsREeHo6CjpJijj6TkRkQIGTSIiBQyaREQKGDSJiBQwaBIRKWDQJCJSwKBJRKSAQZOISMHcL6wmFvpqtVpy3WxKRjqdhuM4fZd3HpVYKljQdV2uw07TjQurESVgb29PLuRWLBaTbg7NqbkPmmJ1xLizzFKphHQ6Hes+plGtVoOmaYGt0+kEyh4fH8eWZcZB0zTUarWkm0FTJpF7z2k+1Go1VCqVQCBst9sJtYgofnOZaVqWFch8/ERm2Ol0BmZIuVxuYBZVKpWgaRpM04TjOJ5ylmUBQGAfmqYFstJcLodcLod2uz2w3cAPfYPnvT9/mUH1iHaqOjg4CD0NzmQycp1z8fmILZfLhbajVCp5vrewrN3/vYp/q/J/H/42uT+zSqXS93P0Z9mlUimwD8uyPJ+BuwzNprkMmvl8XvZtVavVvuUcx4Gu67Ksruu4deuWfL5Wq8G2bfm82ERAAH48/S8Wi566er0e8vm8LNdsNuXjjuPAcZzAqZ9t29je3pblRBvcxH9cf5v8ZXZ2duRzhmHE0nWQSqVgmubAzFJ8PqId/ZimiUaj4fl83MHcsiwUCgW0Wi1ZplAoKLe53W5D13VZT6/Xg23bnmDm/kyr1Wro51wqlVCpVOTAluM4ME0zEBQLhQI2NjbQ6/XQbDZhmmZo1wXNjrkMmiocx5F/b21teQ7obrc7ln2kUilPAE2lUtB1PbSse7TXMAxPG0QA3d/f77svUaZcLsvHtre34ThO4D+r6GN0t01FvV5Hq9VCNpvtm0VGpes69vb2APz4+ZycnMjnd3d3YRiG7JtOpVIDfxD7uXnzpqceACgWiwM/0zCmaaJarcofUNEef1AsFovyu7h06RIA4OnTp8rtpukxdUEzbFBhmFOwKHRd92SNgDdoffzxx7JNowQEAIHTbsdxAkE5LBNz/wc8ODgIbbPbwcGBbLPYREYWx3/WTCYjs7Dj4+OhB0+2trYCj7k/H8dxcOXKlZHaCvyQzdu27fl8RNdKVCKzXl9f9zx++fJlAN7P+Z133gm8/smTJ8M0nabE1AVN/2ln2OnnpKRSKc/++/W1nceyLGSzWc8per9Mcxz83QRii/sKguPjY1SrVVQqlVj3M6pisTg1xxjNnqkLmtNKXAMIBPsZz9NoNGAYxtCnwcKVK1dCT7NVy8RJZF/j3r+u64HMfJjuE8MwlE/F/cSPj7v7AADu378PAHjzzTdHqp+mG4PmAP5O/Xa7DcdxAqdlALCxsdE3WKVSKc+dKpZlKZ0OCqJvbFCWevXqVQDhp7v+to06eh6WdYu+x0FdCMPY2try9BdalgXTNJUzdtG/GzaK7f98dF2X3R1+xWIRlUpFvqbT6aBSqaBYLI79vdN0iS1orq2thW4XLlyIa5djt7+/7+n7EqfYYRljuVyGruvQdV2WFxlpvV73PH54eChHUlVP98Wpfb/LoESXAhDsH37w4MGIn0iQfx9bW1tyQGec6vU6DMOQ7/3w8HCogaB8Pi9Hus/rN280GoH+T/E51+t1VKtV2R5d11EsFlGv10d+r4vo7OwML1++lAuriUXQomyifL/Nv7Ba2KZCAxBLZ06/PqL33nsP7777biwLq52eno5txHsera2tYWNjI+lmjE2pVEKn04klSNNkHB0dYXNzE5ZlYXl5GW+88YbM1Me1GuWdO3dQrVbx8OHDvnWqDDbP1R1B3W4Xm5ubSTdjal28eBFff/110s0YSqfT8Zz2djodmKaJZrOZYKtoEc1V0Lx48SKePXuWdDMoBg8ePAj0X/brKiGK01wFTSB6Sk+zJZ/PM0DSVODoORGRgrnLNIlo9nS7Xbz22mt48eIFzs7OAAArKyuRXvvixYuBzz9//nzk9rkxaBJR4n7729/GWn/YtdXDYtAkosR9+umnWF5exs9//nN5Wdzq6mqk1447kzwPgyYRJW5paQlLS0tYWVmRwXJaB3XnfmE1Ipp+cS6s5saF1YiIJoxBk4hIQSJ9mo8fP8b169eT2DURTZGPPvoo6SYoY6ZJRKQgkUxzFn9diIiAhILmV199FcvUcEQ0W46OjpJugjKenhMRKWDQJCJSwKBJRKSAQZOISEFsA0H9bm2apYXViGgyzs7OoGmaXFgNGN8aQW7juJ+dmSYRkQIGTSIiBQyaREQKGDTxw/rZmqah3W7HUn+tVoOmaZ6t0+nEsq845XI5T9vT6bTSetFE84BBcwLK5TJ6vR56vd5MrtPd6XRkcOz1enL98ePjYzSbTWiahlqtlmQTiSZmboNmu90OZHeapsGyrEDZer2OXq+HTCaTQEvV5XI55HK5ie1P13VUq1Xs7e0Fnsvn83AcB5VKJbZMnWiazGXQbLfbyGazaLVaMsMTG6kplUrQdR3lcrlvmVQqhWq1iu3t7Qm2jCgZcxk079+/D13XQzPHfD4PALAsK5CF+pVKJaTTaXl6Oqg/0p/N9stqzyP6CcPaJPoUbduGbduecu4sz59lp9PpwD5KpZLnM/CXEUzTxM7Ozrntvnr1KhzHYbZJc28ug+b6+jocxxnYz5bP52X2Wa1W+5ZzHAe6rsuyuq7j1q1bnjKapqFYLMoyjUZjqHZrmoadnR1Zj2EYnmC2t7cnHzcMw5NBix8Iy7KQzWbRbDY92bU/KJqmiUajgV6vB8dx4DhOIMiLAHj58uVz255KpaDrOu7fvz/UeyeaFXO5sFo+n0c+n4emaahUKgAw0qm54zjy762tLU+mKQLzxx9/LB+r1+vQdV1pH6Ie92nw9vY2CoUCOp2OHHw5T6PRgGEYMqMWj2WzWViWJR/XdV32UYqAd3JyElrnm2++Gfl9dLvdyGWJBC6sNoKwwZthL2sRmVaxWISmaUMNnui6HghYx8fH8u9utxtaRtXBwQEA7/svFAoAgKdPn0aux7btQFtEFuoOiltbW4HXMuARnW/qgqZ/4GYcAzj1eh2tVgu2bU91n5u7GyDs1DspKkF7Y2MjxpYQJW/qgmZcxCnmkydPxlrvxsaG5/QdUAsywpUrV+A4zsgXvRuGEahD/FCsr68r1SWCdZR+yk6nA8dxIvV/Es2yuQyapVIpkFGKwRt3X984iCDhHnTKZrMAgLfeeityPVevXgUQftrsD4KpVAq2bYfWs729Ddu2PYM629vb0HV9qPdeLBbxySefnFvu7t27fa9YIJoncxk0gR8Cl7t/cH9/P5brNDOZDJrNJiqVityXP/OMIpVKyfb5+3MfPHjgKVuv1wPlRJDM5/NotVooFAqe/mB3P6yKer1+7pUI7XYblUpl6KsGiGaJBiCWK76fPXsW+vgHH3yA999/f64XVhMX1zuOM/IA0TTodDrQdR2GYQTuCrIsC4VCAc1mc+xZPM2/o6MjbG5u4ssvv8TKygp+8YtfyMvjJjl6/rOf/SxyHYmsRjlv/JcE3bx5E4ZhzEXABH7MgsXEJuLHIJ1Ow3Ec3mlFC2VuT88nSdf1wOVRYfdpzzpxj757wg4GTFo0zDTHgIGDaHEw0yQiUsCF1YgocVxYjWiAeZsBftAsUePgn/lqknOpUhCDJk0MZ4AfjhhwEzNcUbIYNCMQ82r2e26ck4xEMemZ28dllmaA7/e9hun1ekPfPDBp4odrmLle6QcMmiMSl+GIu4D881jSD2ZpBvhSqSTvIHNvs7i+E43f1AbNWq2GUqk0Uh1RZlMX/Wths7KLbMM0TTiOc+5aQ/2IzNA/o7qfv+9qmJnb/bPMjzpz+3l1+ctMwwzwYbPZq9jf3w9tq/uOJ/9x4z9W3RmdO2sNO6bdq5Wm02nUarWh+kj9x5d7X6I9Yp5X9222/n3535v7WBf7aLfbnnKL1K0ytUFzVFFmU0+n0/JuFzHvpnvyYJFFisfdWYfqLYO2bWN7e9uThboPNHGAD5oSL8rM7YA32xWzsvsP6vNmbhf/yfz7cZ+GijL+7NrfdTBrM8Cn02lUKpWBM06J70LM5t9PoVDAxsaGzFRN0wxMYl2pVOSdVY1GQ06crULM2C/qcRwHpmnK710c52FnRO7vNJ1Oe/pQm80mCoVCIEnIZrPyeK5Wq0O1eVbNZdDsN5u6m2VZcBzHU+batWsAEFufmvvgNAzDM+nvuNZBT6VSnoAugpDfeTO3i1mhBt3ZdOvWrcDsSTs7O31nYJrUDPCjzkO6t7eHZrMp7/Qa5YynWCzKLolLly4B8E4dWKlUUCwW5aBYJpNBsVhU3s/u7q6nnlQqBcMw5OTWUbTbbTiO40kw8vk8DMPA7u6up2y1WpXfu/gxHNcxPO3mMmhGmU398PAQgPcWSDGl27jn3AQQOurpPsh2d3dlF8Co3RL+0zTHcQJB6LyZ2/f3988dqd3f3w90W4iMY9b/A7nXkDJNc+jBk3feeSfwmDi+xGcUVkaFmMtUtFNstm0rDVCJ7N7/4ybmenULO2sYZh7ZWTRVQdPdp1epVAIHQRzCZkpPYraeTCYj97+/vz/09XhhC6uprlekwn/6LrawH6xZnQFedNH4s61pU61WA9/DrIzqz5LYgubp6WnoNmhhNXdfSrVa9fRJqoxGR5lNXfy6T8PlLX7ic/BPJhxF2MJqw9ja2up7mq1SBpiPGeDDjqlRiR8W/4J2qlm66F5RORUPIz5z//+Vg4ODWH94geDCamtra31jiH8T5aNs/epQMVWZ5rhEmU1dBBXxuJv/oBX/YeI85fSfkotgGTb7+6CZ2/3Pib5bVaKvd9AorugDDsuI/Z/VJGeAH3X0POw9i77HcTMMwzOIUqvVYNu28ui56Ev2D/iFzfoP/Ng95ZbJZKDruueSL8uyYNs2bt68qdSeeTaXQTPqbOpiJNp/Wc3du3c95crlMnRd9/R/ioNTXE4SdimHCn9XRKFQQKvVCg0eg2ZuF8sHi8cPDw/lqK3Kf0T3aGu/y6BEl4L/8idN0wLZyizNAB/2nqvVamAwcRz29vY83xeAoYJzuVxGq9XyHPPu49JNHA9h3+nx8bGnm4wTTActzMzt8zab+iziDPDR5HI5pFKpWIL0tOHM7Qnrdru4ffs2AOD58+dYXV2Vz3322Wf45S9/iT//+c9JNW/h3Lhxw3NAcwb4IP+s/+12G7Zto9VqJdgqGmSuguba2pq8bObzzz/3PPf666/j8uXLI13/R2pEJ71fvV73ZFGLPMJ79+7dwIXh/bplaDrMXdD87LPPkm4GUWTlcnng/fg0feZyIIiIKC4MmkREChg0iYgUMGgSESngwmpElDgurEZENKcYNImIFDBoEhEpYNAkIlKQyB1B3W4XR0dHSeyaiKbILN7WnEjQbDQaiU//RUQ0jIkHzb///e84PT3F8+fP8ejRI5ydnUV+7dLSUqRyrJN1ss7ZqjPq66dBIpmmuFZqeXlZ6XWq5Vkn62Sds1vntOJAEBGRgonP3C6cnZ3h8ePHSmn5ixcvIpVbWVlhnayTdc5gna+//rpciZQzt/ssLS1hc3NzLG/Yj3WyTtY5+3VOK56eExEpYNAkIlLAoElEpCC2gSAionnETJOISAGDJhGRAgZNIiIFDJpERAoYNImIFDBoEhEpYNAkIlLAoElEpIBBk4hIAYMmEZGC/wN72Zgwj3qr8wAAAABJRU5ErkJggg==;" parent="1" vertex="1">
                    <mxGeometry x="2060" y="214.5" width="333" height="196" as="geometry"/>
                </mxCell>
                <mxCell id="1334" value="" style="shape=image;verticalLabelPosition=bottom;labelBackgroundColor=#ffffff;verticalAlign=top;aspect=fixed;imageAspect=0;image=data:image/png,iVBORw0KGgoAAAANSUhEUgAAAXgAAACsCAYAAABxRbcrAAAgAElEQVR4nOzdZ2AU1d7H8e/2nmyy6b1AEkgDQglJpPdepHsVCyJguXbk6rVgA8WOFBs2VHoVkA6h1wChBwIkgVTS27bnBVwfQEDFwCbhfN6wTM7u/Gc3+8uZM2dmJHa73Y4gCIJQ70gdXYAgCIJwe4iAFwRBqKdEwAuCINRTIuAFQRDqKRHwgiAI9ZQIeEEQhHpKBLwgCEI9JQJeEAShnpI7ugDhztu1axcHDhxwdBk1LiIigsTEREeXIQi1hgj4u9D8+fOZNGmSo8uocY8++qgIeEG4ghiiEQRBqKdED/4u9+yzzxIWFuboMm5ZRkYGEydOdHQZglAriYC/y/Xq1Yt27do5uoxblpKSUq8D/vTp07zwwguOLuO2cHd35/PPP3d0GfWaCHhBqMUKCwuZN2+eo8u4LYKCghxdQr0nxuAFQRDqKdGDF/4CK8VntvDde+/xzfIUcl2a8+CEl/l3r1hc1LJ/9Mq26nS2Lb9ASN94vEV346buu+8+3n77bUeX8Y+FhIRgsVgcXcZdQQS88KfseQeY+9kPbJH14tMNn6Pb9Aljp/5IdLQffcM9UPyD1zafXMrkV3MZ30sE/J/R6/X4+/s7ugyhDhFfKeFPWMg7c4KzWnc6DO5N60B/Yke8wNczX6RngIazc58gUq9Dpw+i73/mkbzzKx7wbUBUdCj+0Yl079GRKI8AWj36GZuXTKFb1860ivDCSRvBvV9uYPmnn7DsxDQefXgGa5a8Ta9oN3SB8Tzy0W9kVNgcvfGCUKeJgBf+hJ3qqiqwgValRAIgNRHib0BavI53Xkyhy4LjXEybStCa1/n0twxknmEMeWUG7w1silvoYD76dgKNVAWcOn8Rc7ErPT7ZyPFVIzj50k9IHx5Ht+CHefeVMHb/sonAcT+xbsaDOGVuZvnOLETE/312WxXFuefJysoiK+s82XlFlFdbEffmvPvccIjGbrdz6NChO1nLP6bT6QgJCXF0GfWMFI3eCQUWcnLyKbe4oqw8wW8/b8PuWUCOPYxO0a7InCJoGqXml1Lwd2lMXJwf1rMe+Fg9CQqyoyOHiiozVr9wov2NGL2b0kyxnwu5FsCO1VpOzsl9zE0ex0ZnNVLPeALaF1MB6Bz9FtQpNkpztvJuv2HMyjdhUijQ+SVw/3P/5v4uYegdXZ5wR90w4M1mMzExMXeyln+sTZs2bNy40dFl1DMyXAIiiHTexrLlc5lricPpfDK/bFQy/KlYmoasZPF3y3EPO83GdC8imxthV8mNXy5jN78uXw3ybRyJa8+/Q9Ws4RBnMiSE3dOFwR7d6BMfgpu7L8FBPiLcb4kMo39rxn/2HY/5HefHqT9x+EAaF5qoqTiTycXyaiQ6b8LDXSg5nE4+1VRU2dC4NyS6gROlGSc5mVkKShVOLiZcNFBmVeLh6YY0L42zdi/CTDbOnjhORpEFtSmEqAgfdDKJozdcuIY4yCr8KYmxIV3uG4pt9myWf/cFhYYIejw6lPZNA2n9dj5vvP8zn+92pvnDLzOwVSVbLzjjqTNgaxBBZLk3OgPExprx1xxFZlKQlzyPH9VhPPhyfxoFFNKj01b2HZTy6ND+5H07n+k7VYQm9uK+YV0xauSI2Pi77FSX5XB8w1IWm85zqNSOW7QL1lM7WTx7OftPp3HsvC+j3+3JyVFvsK5BGEGKfM5bevPehwkc+GgKC9LtKKtLMES0o0OYlcPlvgwb0R/lwom8Yx/OG6FH+ODHTeTaQO7cjBHPP829jY3is6pl/lLAe3l50atXr9tdyy2xWq188803f9KqmtxD2zlgCyGhkQ8axQ0OPVRfJO3AUbLxoFFsCC4Kx/+62ix5pKxYwZ5sCxpjADFJrYny0l79RTIXk3UujdTUQowNwomO8EYtqcnapei8mjDwmSYMfObqnxhaPcyncx++alnY620vPeg3mBaXlz36SCss+2bwiXNrxkwcRccQ0+VfPl8e+uTr358b3XxADdZ9fXZrJbmnDnAgz4PE1kForv4p5uJszqYdIbVQS1hEJOFeemr07bzt7FSX5XE4+TckrmZyci1Yfc9jjm/FsFG+xO1fxYw3l7LnRCs0VgNxoz9lasIOnkz6meQdUo6ebMgTUx9CtXw6845db+Q+h03ff8s2S3fG9PAgbdViZs7vSI/GbW7PHlf1eXb+moqufXsina+ZlmuroijvHEcPZ1Kl8iA8Khh3g1ocXLzsLwV8w4YN+eKLL253Lbekqqrq5gFvLuLcoU18+/6HbAx7lh+DPa8f8LYKLhxez1dvf0dG2GBeCAuuFQFvzljLx29/S3WTMBQF69hVbuKt+5tc/UWyV5G9ex4T39hLq5feIiLMm384Pf22kHo24d5e5QQ7axz2BbTbSknfvYofpn1DsvNDRP0h4MFencOeXz7k9d2hvPzBS4R56etYz1SK3qMxQ1/8lCdjStn83Zcs3reVxT+eRau0UnH+OBkl5RjsAH40ifZEqtahk4LdZgeZGp1ei0qnQymVoFDKKLtQQklFIbKiSqxaGzarhYr8DE6dlqJp3InuEU5Ya3w77FTnn2bXmq957YV99FqdSKTzNZ+W3ULpuT3MmfoT53x78lyAH24GdY1XUlfV/yEa80VOn8wkt6QM2w3nEVgpzUplzYolbDlVQoPwO1rhTdgoObiZAyH/YsHbnTg7/1Ombz9Czn1NCL4yIZUG1KWVmLxtFMp11NZfb6lPKx4e5tga7LZSMg4eJbfCQqXz9VpIULqqKLlowLu6ArlRRR1Ld8BGef5JVn/2Guc9rBRetOEb1QhNRgrJx4twi3AlwF2NzWzGbr/iOyFT4hISRXTAT/z05vtIctMpdWuN0dcb7baVfPdhJk4XzlEW70rz3v1I2FiAVCpD4xRKXItgDDW+HXaqctJIPV+IufQGfz5kKhRWOc6qCtKd1dhQUAv7Ng5T/wNeaSIssSu9T24kQ3a9j96OuSST3etXsfuiBy3jXVDWmt8QK4WZmVQG3ouvTs1FgxFdYQnlNq6Z4CrDrcUgXgzrTrmHOzJpnUukO0YidSY8sRd9yeXwwRu1MtFy+BOEV1bjYVTXsXyXoHYOo/vjz+CTZwZkaN2DadIyGpeiaEL2HiNfZcIjrh2aiAao3GJw8VSi0MQwZOJjuDVthspVw46UU5w+IiHDrMA5rB0Pj3QlNaManVNreoa0pGlwHE96beLg+SqUOk+M6tsRJRLU3pF0HWzl+MfTbtBGita/KQMee5Y2TiEEOtX/SPs76v+7ITfg5SPlnFaBpOp6DSwUZh1k1Q8/suScCldpNeXSXNyTmuLXtRFGh367JcgVcqwlZVTetJ0C9+h43O9QVXWZRKrBPTgAl103+WClbkS3dbtzRdUoCQqND60GPEira3/k645v46Srl/0+US6QhMGBlx66dCKwSTEHF1Uwb0cVcr0fcV0aEHfNy7Xu9S9a13j9V5KgMPoQqDt1k06LFL13CFHeYnr09dT/gP9TMpx8m/PAxOl0Kc1mz/yVHCwNJ7KBF1pHl4YMl6BgDPPSyaqIIS/nPAXeYRhrcA/jmWeewWg01twL3mGlpaWOLqGe0hKcNJCRMTaMXkpHFyPcorsz4M3bebvzD4TOfAb94ikcaPoyL3VqQ4QtA0vKMUry/fD2cEbp8H1zCZombYlLf5w+idNR6wPo/PRQshZ/y6JjOtr2NLJ0eRphHXvQq7k/qltYw7hx42jevHmNV36nHD9+nMGDB9/6C9jy2bdoKVvTnGjbzcDiZadp3LUHPZr53dL7WX/I0bv5oa9lOzLWqmzWfPwy26Of537jQZYsKCBhwkO0cKk146q1yl0S8FpiH/6IGXYtLno50JSxsxsgd3dGOup1ElUul5pJvbln1JO0ssnR6GvHRCulaycmrU+m1GJHKlehNzqjskYR3k6KWitljF9LFBott9rHCg0NJTY2tkZrru0kKmei732Vn/qocJUqcek6kFDzpfdzrH8rlP/g/RRuA3kLJmz5CpmbGplMyT2Pvk1LpRGD1JeRYVbU106dFH53lwS8BKXeFdPv/1dh9LncPzO6XTEUI0Otd6pds1AkKoxevlw9iKL8vXepVF47yU/4UxIpCq0R98sfvExnEO9nbSZR4ez1v09Ihtbofvk7q8C5Vn1Za58aC3h79UmWvTSWf03djEVtosX9b/Lx0605vewr5l/wp7W/FKtTPPcPj8Pp5i9EQcZRDh4006hbHB61oyMt/BN2GxaLFaQyZDJpHZuVcmdYrZemAUqlUiQ3OKvqiy++YNasWXeyrL/F3d2dhISEP233v20Vbr8aCvgSdr3/FONOdGJ99q+EFa5j0osfMHWFB90BdA3p9a8kXCQKlBXF5BWXUWWVoTMacZJVklNYgcRqwYoctdrKiXVzmb7IhScTonAzqsRZaXWc9exvvDphOZq+I3lsQDPc5CLi4dIF/aqqqsjLy2P16tXk5eXRq1cvgoKC0Gj+uCcxatQopk270XRBxyspKeHUqVN/2m7evHki5O+Qmgl46yk2roBHJj1MU2c56Dvw0gehXLBZObBwA5QeZ/E3xzErfAmV7eWr71ZzMt+JxDH/4eXQlcQ//it+Ojvl1XJChj9Lx1OLWbXPhGleAo0eiafuzvEQwE51hQ23rh2Ib94Akwh34NIZ2OfPn2fz5s0sXLgQk8mEwWBg/PjxdOvWjc6dO+Pp6enoMv8Wg8Hwl47n3GgPRah5NRPw9krKSpToNZcPdkilyJ1c0J4/Q/XvJ8rZKDu6mR9y8/DpMYb7PU8wc/pCtowyYzXH8u9l04hb9xSDVl6k4cDhDKh04bGRItwdx46looisU5euGGixyHD1D8RTVc5FixYfT1dsF45zRuaNb8VpTpZKsZeWg5MJZ4rJq1DhFRiMr9FGrt2L+KBy5JXFFFfYKDx6nHPFlVg1ATSJ1HDu0AkKzDL0HkGEBXmjd/z0pdumqqqKrKwsUlJS2LBhA3a7nbFjx5KQkIBWq+XkyZNMnjyZ1atX06VLF1xcXBxdslCH1UzAS90JbVzFqp3HKIhqibM1j4MrfmHtBVdcrzgT2mIxU5V/kuQl2WR6GtD7hWOtLoQGzYn306Aw6P9RQXl5eSxYsOAfb059d/z48b/QykbxuT18//qz/JzpgbvEiuc9fenidpqtlbGMG9mdsu8n8JZ2NOPSXmDMocYkOudzpsiZRsFyzmZaCGs/nHtbVrH+x6UcyikDjxaMGBPN3nEv8YvVj+jWwxjd9jgffbobmZsBpVssgx8dy6AWXrf0e3D69Ola//kXFBSwcuVK9uzZQ0JCAp07d6a4uJiVK1f+3qZbt25s2bKFyZMnI7vu2df1Q3l5ea3/vG4mJiaGBg0aOLqMm6qhgPen3chEFn/xDR9VpeAjzeHovkw82vfDcPF/jSRovUNpbtIRZDHRMMAb34ZxtKr+nqtOUpPKUepVmAuPsfdgJg2a+v7lWS0FBQWsWLGiRjapPktLS/vLbaUuIbTv/gwPuO3kh205ZOdXXPcOHOqIYbz1qoFvHpgEA9/joYKVzFm5mZU5FRzO1NC0Y2Oy1yezZLMMbbk33V+dygf3qvim34fohv3Il/dKWfzhJOatOUz3Fl63tOd27ty5Wv35l5aWkpKSQk5ODo0aNUKhULBly5brtrXb7URERJCSknKHqwSqSzh3NJW0Yhdi4sNwvU3DauXl5bX687qZffv2MWLECJ5++mlHl3JTNXSQVYF/57G8ZZ7Hd5tOki7XEdF3FP3b+JOfasVe4oy/E9hU7vjJ0vntt22cSjuJVR9K0+hExg5xwVkiRRbWkQf6eNMw0k6XrjuwF5b/rVu2hYWF1dqrXtYm48eP58CBA3+hpQSt0QW/AD9crftRKOUokVFcWExJZRHFRVXY1HZASWBsIzwU+Tg561F4uKI1G9BZTlFWVU1VaQGZ591xi22FV5Ab52Qe+AUYkUrKsFmlaHVq5FI7KrUSrDe+JNyfadOmDTNmzLjFZ99+hYWFrF27lt27d2O1WomMjKRt27b4+fkhl///V7G0tJTt27ezdu1aXFxcmD179h2t01qSyd71i1hT1ZGwlmG3bT1ubm519vs6ceJER5fwl9TcPHiJC+E9R/FWz6sXeyb2oPFVS8J4tEmXq5a8En35QXRfnrr8OPDpP1xJQ3A4OS4BgWh/3ciM906jTb9AldtN4ljlQUR8AEYOUCSVIPcIo1m4KwWq/w07eNCqbzzzf3mTl/brKS51pcOwhvX2Lk5Go5H+/fuTmJjIunXrSElJ4fDhw7Rq1Yq2bdui1+vZtGkTS5YswWg04u/vT3R09B0PeInaRETb3rgZovCux8dD7gZ3yYlOwt8nRecZQceBD2D1c8PN1p57TWbc3HQ09g7h6AUbTl1a0Ts0lujSV3jaxRuVwYWuj41FGmzC27M9/U0WPBu7UuDvSerpXKqcvHExBNJ7wig0IU5IJVqiBz3H84atnK1S4BbajKTm/vX6LFKpVIqXlxeDBg2iVatWbNu2jR07drBx40YkEglyuZyAgAC6dOlC48aN/+Z9kcvZ//07zE6tovRiJaaGSXTrEkRRWjqGmE40LNrGuiw5XpVnSMnIJfdkFsW+zejocoaV+4sJbnM/D/fzJ2vTAuYvSaHcL46qAT0Iq9jF3IWrOZLtRHyvVpC6jd3p+UhCOjH24f5Euilu2/sl/DMi4IUbkKBy9iGqpc/l/0fS0u/So5DAhtdcqTCAgMuPYjp5/d7eFHT5px38aXJl88D/3+2Xu4TTZVituQD/HaNQKAgNDcXX15emTZuyc+dOSkpKSEhIIDIy8rrz4P9cFenJc5l7qgdP9vfkRPIilqnb4pR1FDeveDyy9rL1sJrwkp3MOWSgb58QMr/7ih87jqRv2G5+mDaPhgGx7J21F0ViU/wvprNt3XqK1Kms3pdFeJsoLLvnMueYF/f2aUH2yi944UsffhmfJG7mXUvV+4C3F6azJ8NKYICCA9PmUth3OC1Lj5Ltk0Bzn6svJ2XLPcT85Tso9k1iWOfwq68mmb2CZyeV8+wHA/FBEGqGWq0mMjKS4OBgrFYrer3+H80Tl8q1hHcbyoheVuae2MuBwqrrnDkuxzO2LX36N8F5yVJ2NunBwNZGNn/+C8eO2Fn/23KKTqegKS1EGtkdebQU7+hEevVLomjqKgLa9GHQwBZYpZuZPvsYRYiAr63qecBbuXh4NTPWy3hgaC+aDR+C1VTGikcmcWz0L38IeKqKyUg/Tb48Fsu1L+XSinGP26hlF9cT6gmttmYuTi2RyDC4GlFLCpHJZSiUCirySjmbeYbzBUWUlsgBKVqjE1qFEoVCjlarQqrWoJFYsSuNBEd0IfHNcSS5K1EYdBRv+Y6zpzWo5Bq0OgvpaecosYSReSgNm6H7XX7Vzdqtfge89QzrF64g+attHC0pYmD2GTTNbUxeton89Y/h8koga4634uvXm5Iyfza/npRjVIK98DiL3pvBF9+vI/2iisgRbzDtgQomvG7mv48cY8CDP2E2BZA4ZATRR+cwbWMxsQPHMH5UE07++CEfz0nmvD6J8R++yUOJQWhk9fhAlXkbr7aYRuiSr7g/QAFUcf7QZlbMP0z44+NINNXfedy1nxSdpz8NLq7i3adG86u7Aqf2Q4i70ZC5TIt3bDcadk3hg4f6Mtktkj6PPEHv3+cpm2gz8gGWjZtIu8bPYw3tx0cfdcP1Dm2N8PfV74CX+ZPYpTURtiRG/+se8t4/SkHcEMbGbSbt6ffpXzWJH3eUY7VZqCwtoqBEh5MJJMaG9Bo9kEGPmylaN4me49eyvXtDcnLlmCuKKZd1YcrPz6JcOoUv3B9i/ooQdv68igVTtrAvp4pWz33DswNb4+usRlGfwx2AKgqz8ii1/G82jR1rdSWlhSVU2m51wqNwa4z0+GAzXaQqlDI7j7z9LXaJHIm9M4NesYEEJDI5comdR5GhlEsYOWct98tVKKU9eG9/V6RKOZLIb+jzghWbRIpcrkAm6Upb+6UDwFL68cGyHky22kEqR6VSimtF1WL1/LORIpPJkMoVKOQyJBJAJkchkyJXKZFLJUhsNmx2+9U3Hy4/x85V85n6/AjaPvox+9MLsP7v51IpyqataeYupzzjICs/foSEuM48/d5c0vSR9Gvtyc5JQ4kITGTc7N0UVf2dmfy1iY2KC/v45qn2eCt1eDcdwntL93MieToPxDfAReNBi+Efsz3n0rkKdksBWz4aRLCTL3HD32NbfhVFpzfx0aj2hBpMNO73X5an5mJ29GbVaxJkSjUquQSJRIpcoUIhlyFXqNBoNWg0GtRKBXKFEpVCdqmNSo1SJgGJDKVaiVwqRaZQodZq0WrUKBUyZHIFSoX80gmJEhlKlQatVotWraTe91/quHoe8CCVyZGayykuq8RqtQMylCoJZQWFWHQuOB/ayvqDpziVfoFL17ezcfHQWr6cvx1L23FMnTCMRu5arj37RqZQ49awOT0fn8q6A8c5lb6Fb94cw4hHX2XRxi0seDGU/XuPUlRZVyPNTGHuKY6cVtL7rZ9Z8+tnPNqqklVfbUPT5312n1zM4JK5fDD/MBarnerMJXz6mYwJm3ax8vVOqHIz2bV0FSnl7Zmyah7PN8xh4+Y9ZBSJqwgKwp1Sv4dokOHaMIZmxdOZt9LIPQZ3TJoAovs0ZsZ7H7D18/50CHuT6S+dwLNhJOERnngaq/FoEEmjwyuZ+9ar7GrakJBAd5QSF4KDVagNPoQHuqB28qJlr6F0fW8K4wZMx9SoE0OHNKFoyyIWrT1MoakFD45viZu2rs4RVuEeksDAYYf4cNoE+s32pkf/JCg1ERzsg5NbELHRzmysrMSEHcpKKZN5ERRkwlDkT4AujdKyTHavXMemvXPQKTSEDOhAVZUZEOPygnAn1POAB4lPO176st3VC6O+Y9/oy49/6cLL133mCB5/++olgy+/zPI2lxcE3cPYqfcw9spGA4byzD+suXawg0yDd0wPxrwWyb5f13L6YgV6YwnHtq1njVTPjgMKIu5zo1wiQWoKJtxtJYu+XUZc6V7SqrVEBYfQZUAwEd2TCPf1JiAkGF+TmHMhCHdKvQ944VbZqS7OZO+KH5m9LROVTyw9hgwiyfUMC7+dz+I55fh1Gs2Ybl6s752Hb1BHur+cxvuzlrPeFExc5xgSe0SRJ/+ZRT/NZLVnEwYMH0FPZx0Kcfr7bWLm/L4N7M+2UF1hQesWTHTTICTZxzl05CwlChOhEeF4VJ/jRE4xZXnFVDn7Eqq5yPHzVbgEN6NVjA8a8fHUG38p4C9cuMCXX355u2u5JRbLH2asCzVCitYjkn7PfUS/q5aH8+SkLjx5xZLQb5peeuD9HDO7X/MyYybSc8xtLVT4XSk7pz/Bk3vDaBWqoLLCRJfRA9Fs+5mlh0pQqJQYYzoQX7GaWbsrCTJJOZ1WSURcMJYLxzhj68/Hs8cRoxYJX1/8pYA/ceIEo0aNut21CILwT8mU+HYax+TRWha/P4kdyTvxy9PQ47nX6GlZznPfp3LQUoAkoBdPvNKabSMfI7nlZ3yTtJkxPZM5VWwlRi127OuLej+LRhDuJlKpCt+wYFxlKlSaGwW1HPeQADy0BnQ6DR7uTsiNJlztlVRUi3MX6pMb/qmWy+XMnDnzL7/Q+PHjef3111GpHHcQzdvb22HrFoTaR4l7YCMayE6x9P3nWKNW4BTdgeiKHC44ujThjrhhwEul0r81LPPmm28ycuRI9Hpx2SFBcAw9zUdNxsPog9bNna73P08b1xBMlSEEXXWQtRkxdi889AY6jX+b5sFOKPXNeehTL0zi0hL1ihhsE4R6Q4F3bHv+tx8bHN3i8iMTnqHNrmjngeflR0Gt215+5E1sZ7EHXN+IMXhBEIR6SgS8IAhCPSUCXhAEoZ4SY/DCDdkvnmTJ7Fksr2hEZ8U5jhWF0LermSnfZtD7sX/RO8anXt8/VRD+MbsNq8VMtcWGRCJDppAjl0mRXNvGasVisSNTyJFd+/N/QAS8cEMSlwb0Hfcmfa9ZPqvVdZsLt1lZWRmZmZmOLkP4y2yUX0hh9mvj+M/CdLQ+Lbjv2Zf59/AWXDVZqfQYv/44nbemnKPP5Nd4on8MhhqqQAS8INQR33//Pd9//72jyxD+Kns1BReOcDInjo/WfYXH+jms3L+f9J5NMbleEb2GEMItWaQVZlPtHVxj4Q5iDF4QBOH2sJmpLCikVBpOZIQv7r5OaFRFFJVce08EC2WKKMZP6Iq2qqpGS7hBD95O1YUDbD3tTHzrIDQ1uko7lReOc6TMiYZ+nuhVt/A3xl5BXkYpal839NKrR6ssZflkXsjFagwmRFyaVqjjjEYjAwYMcHQZt4W7u7ujS7i97HZs1ZVUWCRYrPabDJfoaDr6VZrehhKus84q8tL2surz/zLx5BBWL34E/xpdpZ3q3DQO5fji6+F2awFfeog5Hx+k5ev301x35SbYsZZfJCP9JOZAHxHwQp0XHBzM/PnzHV2GcCukclTORoySU+RfLMdQUoXFqkN1By+XfZ2AL+Ps7h0cOp1PaY2swkzhmUNsXp/M4Wzwjokn3luPu1GHvPwUqxetZf95GT5+UordWpBg3kVyehUV5eAZ0ZJ2SaFUHdvOpj1HyS2V4R4VT2zlAmb9tJ1dDT0YE1LI5r2ZWBU6vCPb0qWZESejE/kX9rMkeR9HslWEN4/CqSyd1LTzVJuaM2jAPQToxeEHQRBuI6kCvbs/7uoFfPveB2iycjFE90GVvZPfTuuJbGQic9UBaJ1IswAj8tuQ+9dJOS2+sT15WH6MX76rgTVU53N0w0K++WYP+rg2eGGj5Nh6FmSHYZbuYfb2Cho28mDzzK9Z0XgCL1V8zrTzLejYEA4cy0DlN4ZLJ1nbqUrfzJcbMhnRvZirrgJvt1B4JpkN686ieaYrJYfWcaQAMnZuocw3EVn5MSkoJdMAACAASURBVI5esODm60z14dl8YvBjcv+G4gCEIAi3kRwn7xg639cXSWoB0tCmNEtqjo/yHAXld6qCP1DjGdEQ3akaij+pCidPL7yMUjLPnuDYiVC8tVXYKCR1435UHd/kuYdC2JG/nBWVEuRaV2J6PcyTCef5efZacgurUXl74e+azomyfM4cVCB9rBk+OjUDhyTgfnQ/jYJzWbY1g+wMM2cvmnG5tGJMEQn0GjYE08p3WLA/C89SX+xpO0guTOKF/g3xqJktFARBuA4JCr0ncb1GEdfryuUB+Fx+5Du0ZgfAr3X7xynkzoQm9OcJYwTH96zjxzUbsAUWUxochEJhp6yojGp7GbnZxeAMMqUaV28PDLJc5AoJZem7mJN8Eot3EMEBnhgUV5wEkL2OKS+upNFLA4luYGJfxpUrlqIzaNBrtCgVSpz8I0nsmETwwHu53xSN7rZvuCAIgmPd/oC3lHJ27yq+mvELu0+VIA1qRxsPyJKYSBjWl8Ofv0n/FQZMdjM4X/tkCUqdGvuFvcyf/xt+DfUocaZS609j1zn8981qGpeu59OJafh7u+BhsFBW/r8e/P8406RHf5LO/sCKH7/AKo+g73+a1fDMIEEQhNrnhgGvvec/rIhU4/VP1yDT4de0O+Nea0FptRSNswk3nZV+SMia/QKnI4bx/ggfVr7wbyoat6TfwC501frgqnLnoaeaI9UakCQ1pXtBOVKNGswKXP2M2GY34367FhfJkxSUW5Fr9GiloDa6orS1pLsFQIrW2RUneRfG/CeGgYXlWNDg6uddY6cCC4Ig1FY3vuGHwYfwmjilSiJD4+xJsLPnVYuNWNG0isMw7V3unVMG4Y/w/b2NcfFSXu6BK3H3crrU2MmAq881r6t3+n0M3fcPK3W65v9aTL4hmP7YUBAEod5y4FxBGabm45i7dzRWux2JVIFSKaYu3mndunVDKq2784lsNpujSxCEWsuxiSqVoxR3cHeoqho+NVoQhNpDpOtdyMnJCT8/v9u6joqKCiorK3FxcfnzxjXEaDTesXUJQl0gsdvt9pp4ocDAQFJTU8VNtwUA5s+fz6pVq5g5c6ajSxHqiYMHD1JDcfWPzZw5E61Wy3333efoUgCIiYm57nLRgxcEoU5o1qwZFovlzxveQe+9956jSwC44R++unt0TRAEQbgp0YMXbsJGRf5Zjp/KRhkQQyNPcXqY4HgGg4GhQ4c6ugyHmzNnDkVFRTdtIwJeuD67hbKco6z56Rtm766g/ZjXRMALtYKbm5s4tgNs3LjxTwNeDNEI12erpjQ/g7T0fKq59g40giDUBaIHL1yfVImTXyztu2VTtmmvo6sRBOEWiB68cH0SORond3w8nVE4uhZBEG6JCHhBEIR6SgS8IAhCPSXG4IWbkOMe1Y1xoe2Rqmvi0qKCINxJogcv3JRUocbg5IxOKX5VhLrMjqXiPOs/f5g4Zw0atzA6PjGDHVm35+aoloqTbJiznn1H1jL1ydf5LccxZ+CKHrwgCPWftYqMVR/wn6/lPLszg66WbXz8/jx+mB9GwGNJuFgs2OwSZEoFSomNSrMVbDbsSJApVShldixV1ZhtIJHJUCoUSGwWqs3XPK/ajN0OpQcWMHliIS9se41H32+DRCbBbK5GIlMgtVuw2ECKDavNjs1qwy6Vo5DYMFvtSOVKVEpZjdyUSAS8IAj1ntVcROqeVHwenczQcBNSeweefK855ooyTn49gTemLeBQvhtJo8czMXYn3V9YhlPlRQqqdLT672w+aXuOKaOf4+ujUqI63cdzLw7EZfss3vh8AakFl573ZuxOut0/g2KNFo2tjPwyDWnDCujvZySiVyyZW3fj1fvfJGZ8zadH9DQq2cGClPMUH08n0zOR+0LP8fPGLIJ7vsO3U4cSXAPpLPa7BUGo9+x2C+Vl1Rh0mkuhJ1HjrNfB2c38sLWUxAm/sHv5WFSLF7L0cA7V5ZE8te4YyZPiObh6GyczTnDW3ISx701n2usP0KRsP3N2lHHPy9c8z6k/XxxM5+jK/9Ip+H4mvzOQa29G9/9slDt34YMNP/G04hCH7vmSgyuew2PLZo4U18zJhSLgBUGo96QyDR4+ruQeO05WuQVrRTYHNy5nweKtnFMY8XJ3xcU/kGCdBGulFXvDltwTqEXnbEAm1+HTvB8PDvHnyMyXeXTsK3y+/BBFLm5XPc9SacXeMJJoF9k1a5cgkUqxWixUVJZTWWXGYrEDCoLjYghyMuFidCI4yAOVlz++thJKymvmTmViiEYQhHpPKjfQKKkzXu/O4fOvc2mkzmN/ShZO3g2IrjjNnt/mY9+VTarRj8HeRciu7PraL4Wxe2R7hhv82Zp8gkq7Di9bFnt+m49t5x+fJ9E6o7PvYO++s2iQ4mVwRlmdz/blCyitPkGuvClc+3fgNhABLwhC/SdVYGo2iOeelPHL/C1skrnSIL4XA3vEIj+6jl+WbmJ/ugtdHx9EF++THKjQ4SQBdWAigzr6IivK5ODWtezIAvfG99BjwD145uxkwVXPO8GBCj1OElD6tabfwFR2XZAQndSShiGNCbwnnqJ1ZygxhtE6pgmRMjdUukD0KiMRXfui81cj0wSSMKgdIbqaGVwRd3QSbgtxRyehpikUCiwWC8HBwZw6dcrR5ThceHg4x48fB258w49614NPTU3lu+++c3QZtYaXlxdPP/20o8sQBMEB6l3AnzhxgsmTJzu6jFojJiZGBLwg3KXELBpBEIR6qt714K80atQoRowY4egyHKJdu3aOLkEQBAer1wEfHBxM27ZtHV2GIAiCQ4ghGkEQhHpKBLwgCEI9Va+HaP4qu62crL2LmTLhTb5MPoc+vDOP//dlHu0Ri5vqBn8D7VXknzvKoUMWGnWLw+OqZhayFoyn09OzSM+tQIKCoD6v88U7XUj75Fl2Jk3j04GBd2LTBKHesdvtlJffnsv81iU2259fzkAEPFaK03fz05dzyOvyIUfmRnJqzifM2LKelAgfWnpKKC6vwmaXonIyYVJWcD6vFLv5IodX/cys39x4Ij4CvbKakuIyzBI1zi46bHbQDfiIw6/eSxAbGJv4X5YdSaIRgN2GubyIwqISKu1KDM5OaKiizCpHr1NjL7tIscSAm15GZWEB+aXVSBVanE1GdAqx0yXc3dLT09HpdI4uo04QAW+v4mLOWYqKGjJoUDt8nZX4DH6WULMcnSWTpZ9NYeaKA+RfKELZZRKze64mftB8XBp6oSgtIE8SjmG6kXjFbn5ZvI0sWSMGPf4kfaos2IoyOHLoIEWcotApnu4RWgpX2zEXZ7Dtp+lM+e43TlkC6DjiQTqSzJKLUYx5oDuV3z7KW5rnmTNCwtcT3mTmzmz0HnGMeOUVRrULQOXo90wQhDpBBDw2rGYzlmolqsvDMRKtHk1RJegD6PrYOyQOyiR14VsMnbKG1K4ynMMe4puNz+O85is+W6iiR7Mq1nydR/TgZxhekszsdcmEBBVTsS+ZiRNWopZbKCzQs+tEIQ0wU3BuL78d3Iup8+MMdj7O0pRNbFLkYvGOuqIuC3krpvPKPl8mvfEY0gNL+fXzJbSJH0eMuiZuBSAIdUu7du2wWmvmMrr/VHp6OjKZDH9/f0eXclMi4CUKtE4u6Ay5HD2WRZK7F1UntrJg0wW8AmUcOZyPxnySlQv3UmntBhIJ8gbhhOil5ANgx2KpovBcKkcXlnPKTYuTrwq53I6y3b+Z/eq9BBmLWTauJxOT0wnBjtVWTcmF0+xYMZdCHwMy90iM2jxOlZVTUV1GWZkZm8pOdWUVlZmpzP22EBeFBr+GBiyVNlDfgcvQCUIts3r1akeX8LuJEyei1+tr/VniIuBR4uLXmJi4TSz4eTqfHfTEfPYEWfpm9HLJJnn9IYLjm9ChTQy7T5qprL4crlI5Sr0K88U00vObEN2uAx7qYBr4+RES24SA46dgUzI/zSrGpK3gWGEQrRPckOyWo3cJonnHTlSbg4gK8ccvLJKg8nUcnrWD+T8UIU/NoTpBimtMW3omeRLVphlBLiZCmyUS4SzCXRCEv0YEPBLUpmDaDxyJTPMbW9NyUPnEM6hLJ1p6F2ItVLArvQxldF+eeVJLwwYaRg/ww0muRR+VQNfuCuxesUQ1NLF54z7OnbKjDQinYYP23B+/l9zscxQDhnZjebBHFAXOQzH6JtBCZqTqt2TSTp9F6hpI4ybtua+LhJ2nLbh2HExITCDOLaN4419z+HlHOqeLK3AOraR27KAKglAX1J6At9soPbOer2euIgM9vtHt6N87kQD9lT1WO1W5pzi0ZyvJeSYSk+6heZChBlauwOATQ89HYuh51XIveo2OoNc1rVvEXX4Q0IrhT7X631JiE/pf0aoJz7Ts+4c1BfZ6kKYA+PJITOerftYwpCndr2kf2W8ME/v9rY35c+Yizp48wNatGWiCo0hsHYFJo6iRm/wKglB71Jo5d3ZbBcdWzWL+cRuuhnJS185n/fGiP7STKis4uuxrPpi+juxaU30dI5FiObeLn7+cxbKD2VSK3QJBqJdqTUTa7Rc5sS+bpvc9zujhfYj1KudAWh5XT+WXoNDbyC3wIVZTRqVa4aBq6zi5EluxlcAAOZVKJRKbRPTeBaEeqjVDNHZ7ETlZZkzuLqjlBag1Csorq/nDfUqkwQx45XV62W0YjEpHlFoPKPBuM5RnmvSkQuuLm1YcuBWE+qjWBDyo0OisnCupuHkziYGARjUx7n43k6Lz8Efn4eg6BKF+slvKOblmKlO2RTHx9e64O6iOWjNEI5G44h+q5kT6eYpLssnJKsHX0+VO3HhcEAShBhWw46dXGfvYp2zPKsLiwEpqTQ9eKnUiNiGSg33jCZAbadxxNO+Y0vj0zS/IC+lMD9kqvj0dyqj7BtHUT+vocgVBEG7AhlTWjEeeK+WjFMdWUmsCHqkc7x4fkmb+8KrF3eLaXH6USKs/PksQBKGWcaPl4H64zNvu6EJqzxCNIAiCULNEwAuCINRTtWeI5jYoKioiIyPD0WUIgnC3kUjReIYRF+GJIydz1+uAT01NZcGCBY4uQxCEu41MhV/7cXzW3rFl1OuA9/LyIioq6s8bCoIg1EM1GvBTpkxBqXTs2aWHDx/+/XFISAgdOnRwYDWOl5OTwzvvvHPH15uamopWK6azCoIj1VjAT5gwgeLi4pp6uVsmk4lTo64kkUiQy+/8jlpsbCwxMTF3fL2CIPy/Gvvmjx49uqZe6h9ZtGgR3377raPLqDXc3d15/vnnHV2GIAgOIKZJCoIg1FMi4AVBEOopEfDmUs5s/ppxfeOJjm5N70cm82tqDtU3eYq1Io/dP77K26uz7liZgiAIf9ddHvBm8s6sZfrb81D2nsTcn96gs+Ywi39YyZH8G18Dzm6zUJafxfli8x2sVRAE4e+5uwPeXEn+oX0ccR3AYyPbEBHZjvtenMjL47rS0LaHjx9pj79Ri3P8I/ywO5vqU78wPMIFV+/2vLYmE3tlPinz36B7lBv60A48+/UWcqr+cIsSQRAEh7irA95us1FVWkSR0YiTXAISBS6+vvh4y0mZ9wPrJZ2Ztesgv/bLZ8J7n/DhCxPJ+ddSjp6cSSdZIbmntrFk6UHiXlnO9hlDsKZtZt2BnD/ehUoQBMEB6vWZrH9GIpWhNppwzT9PdqkZL62NnCM7SD55hoxjZQSHNcDbxZeAljFok89zplRCaHQDXNXlRESa2GMuJjNlPT//uoXvNAokfp1o0K6QCjwRp/gIguBod3XAo1DhFtmcJpbpfPWlP8NbKEn5dRVH1OHEBbuzI2U3W7dp2Ln5IM7BbWgpOcwnCxaQbHBix4GLaBK9iWzbi0fD72VgQjCurh74eLqKcBcEoVa4uwMeBa7+bXjw+UI+n/4VLy+V4Ne0Gw88MJgkjxw0M2bw8+cfUxbQmYnP3E8HQzRnnp/Ce++aiIhLolVcAt3lMP3r6UxYqCOy6xBG/asbUR5aJI7eNEEQ7np3ecADci1+rYbydquh1/zAjUEvfsygF69c1pFXf+x4Tbsw3m838vbWKAiCcAvu6oOsgiAI9ZnowQvCbTJ58mSsVqujy6iVXnrpJUeXcFcQAX8z9hLOHclFGeCLu151g90dO1XZx9h9Ihu1RxAuKjnOrkqy1i1g8UkPBo7qToSTGlvRbr77cBll94xkbMcgset0F3jllVeorr7ZOdF3LxHwd4bImZspPszC6cvYk1WE+SaT26UqPS6uLsjP7+TnFRs4mHWe4+t+Yfp7n7Ms9SJWu43CnbN568PP+GFbJqJPdydYyN7xE299tYKTBeXi3AThrnR39+DNZaSvm8b46VuR+ITRqmU0yqObWHdCQtP+93KPdB2Lf1tMYZmVwmbpLFx3Dis+tOzRgNxVGzll0eIb05l7ezak7PxB9q3bysrVh9iT/yDxeTZMqjMs3XSSx1vI2Ll4A+WuRrBUkLVnAd/PmseeDAumiDb07xhCVmoWppatCM7exBp7AqO6x2BU1/Jr2+dt4t3nZ7Cz8HKAynX43vMobzzZBtcrmtlLskjNqsTN0wdPo4zcTV/yn69LGT7lKdqbauoGMTbK87LIuliJk08wHrpyzuzcS66sA1KpHHLW8N9x0zhosQEydO4x9Hl8HINiTLd9xpO7uzszZ868zWup/Z544om/d49key5bv/iEL9YdprDKg4Sn/sOz7fyu6JXasZTkkrZnDSsO5KIPa0fvhMZ4OiluQ/V1010d8HabheKzRziQ7sxjI6Kp2L+dQ5Jo7h0oZd/2XaRFqXB1iSW+SzSK3T+z6mJHZr8+gBAfPZXhMZw7vYclS5ezQNWGUO1F7EYvvOKcSGgShumcC806OLN71TaOPVDIkl9NdO5i4phMiUtwC/o94En8yd0sXLiHNZ4mWkhPsOTL1eRcDGToCz1RKerAzlXFOXZutBD/+ZPEa2UglaN1b4D+qkY2ik9s5vt1JXTq2Q9Pp2LWfbuI5I0XkGwZSvs+/jVVDJkH1rNiTznNho7EQ6clvN9YntW44eWkRHL2DMlr7PSe/zRxlJOxYwWLpq6k6ecjaHijv6OWg8x4dimKHn0Z3DXymu366zQaDf369bvVDas3JkyY8Lfa2zJ28NPKbAJ7D6dvxi88NW0dI9rdj8/vLSTINHIq8tLYMG87wQ/E0bu2d4rusLs64AFQ6XFv3oLOTfxZuuxjFqxayiY9FBV4M+ipdiD1JjzMF6cULVGd+tAtKZaC/atYkrKHjT9+z+piLzqFVhKiU+PsqsBQ7U6Qjxs2lRJjk0Q6pv7GT5/tZUWjnkwK3cixSgsVRZkc2b6J9WvnM3+Lgl4thtCiW1M2L9mOKmEYSeE+qGV1ZCa9zJPIxCTaGC73mszFnFjzCW9M/IZ9lT60G9KHyLxk1szaxI4cDb4DzCw5F8mYh3RMWbKTwj5+aApTWfD260xem0tEt4d56bE2lG6cxUffrOC8e3een/AgTW1b+OTlqaw5YyfykSl8/FAln3R/l8PeFk5lG+nSrze+ufOZ/GUmXax6ioNzmPPNPPZmezPorYk8E2YDuTfRSW1IsuWz59RKLq49zq5fP+Wdad+z86wN39ZDeKq3G7/N+Zn1+3PwGjyBN9p4s3XtG7R7Tc/wF8YwvG9zvOrA3966z0b52eOkBTRnZOfOxJRk8u60fZw034/PFR10idRMmcWAu9QFD10lleIMlKuIgJdKkarUaFVKdD5RdHusC88/0AYvlQJtxRb+syH5ckMJaq0aifk4v0ycxIHek3nmJTXln6298Wtro+jRbTlDP95G+w8n4Fe4EXNRBpt+3sDP5V149vHRmEt/RWrLY8/a3Vw0X2Tfjv2cvNiGABfXuvHhlM7lgbC5KCUSJFoXoke8zL8s6znuPYDJrzxM6wAdpTuq2FwaQrd+LeH4x+TGtaHvkCZs7LCcDXk9abZ5Fh8fasR/P3qY0ysX8OY7+/GWV9Bs9MsEHPmVNfM/YdH6DEz3v8bc+CpmPTeJL5oOIevMWbT3fcpHrjuZvWAD0ug4hgyJpXlwOcs3niPswXd4yv0AH3yyiD0TtNhLfmBI4EJUSNGYmjL8rSn07eRN1/h7KT68ksmfJLNxm5ZDZ13oMn4Cj/VoSaBeQlTnPvTfO52HR44lnXl80j/A0e/6XcBG6cWLlMldUMllyDUa1JXVfzwWJnWnRd9RRHUeiVynQa0QAX+lOpEht58ElW8UvXokcWDCf0l6J4+gdg/z2ls9aey7nQlPVjI6ohSbB0ilfjSJlTP+se786h1BaFMPPErLqESPj78/vhun8d60Qjrnl0OcltBGQUgkzgzoHoj0JwkKrZGAQD0nHnmEob8E424IIGjdbKa6NGLYy1Potuxzpv+8ndgnO+OprwNjibqBfLn9XbobFIAECVVc2FPO2uffoF/Lr0i872me6WxHoTfgpM5mx5q9HJz/BWEf2LGYlZye9i8+1qUjTfg3PZMSkLVuRYdl37NwWxnNmnek08BuDL6wgn+vfJYZY3vyqcSO1aIlqV1rojWxtO2RQONyO2G795GSV0mgXo/UXE7u/nnM/HIqr0tsWCytiBjSHZtuGD8c/5gOSkAiRU4FWUe38evcRSxcvog1x4IZFxyLLTSKFlEN8HdVUZaynB9nfcKrP8KDb73D2F41NaQk3JwUrUGPrLSMMqv1JgfJpSg1OpSaO1haHXJXB7xE5UzMfR+y/r7LC5IeYsamh5hxZaPvkxl7+eErl/+959X1lL16gxftP4w3r1oQT/6wyw+fWcB2APpwYPgn139+587UrfNibVjNFsxmAAkSqRLvFvfx2aoBvLh9Dh8u2M/uI65g05K7bh4/5NzDp3sW0S/CRPG8Rwh/bSVpY3WUrd5A8lENF379jp82nEfv5ozT4RS0Gxbx3YlCLlZH8diXs3imdxR6tQppxUqemjqLNav30tgjlbPnPWkc70ZpejkytRbXJv/i49eHMSg+GJ1CifrCt6yVZqFQqVApAexUZJxgxU8/ssnQl9ffjcLjnY3IACQSJBLAvJMPxi9Fcf9bnPiwJUYHvst3Hyl6v0B8sg5xJi8P90Pb2N+kGaEKC1XlFqQqBVjM2OUqlHVlONMBxGiicOtkOtycN/FcfCyRkZFERjWn84A3+frH/9C7SRO6PPUDJV7tGNinLVF5W/jw04VUR0bR1M2AAhmmjgMYLDlOSewYnm2wldE9RvJVig9PTJrImDZurJv4ACO/zSeuy5O8O6Mv5d+MJalpNHEjJpGcUYWtopw900bzwFubcek5kv5JDbFn7mflcSU9EgxseGMELaNaMejF2aSWKvDwdUX9exZIUJt8iG7kQdbX43nq3UVky51xVmpwcXJCq5AhUcTz+oqZvDxMhLsjSINb0CswhXcGdqD9hD10GdEBj8INvNP7Bebu38Mv77/A1M3Zji6zVpPY7fZ6NUV40aJF9O/fH4C33377rj2hQiK5lGQxMTGkpKQ4uJqaV124jOdbzqbV2m8Z7l87h7JUKhXV1dUEBARw5syZv/18q6WU7LRT5FTYAAkKtTPu3l6YdFbycstROTnjpFNe1UuzVZVQZFbhov/f9FMrlUVFlFRWYzHbkKj0uJqcUN6ga2e3mqmqqMSu1qOR12zPuHHjxhw5cuTSeup47EycOBG9Xs/TTz/t6FJu6q4eohHqLoncjbDWUXip6+vuuY3yvN1Mfeh+5plD8NNJQOlN68GP8Eh3V7auOI1fq3jio7xRXvGcwr1zmX4hkRf7h18abqKK84d2sv/MaY5vO0N1SBtGPNqNEN31Et5G+cXT7FqzA1nCYO4JUN2hbRVuFxHwQp30f+3da2xTdRzG8W9ru17GurKu7NKOOcalQMuGTNjAC4gaROsNRI0ziIsBJUNJMMYASkTFxCgvpi4mBAYaEoMxAzXiULnIJULGBsiACWMyzDbW3W/daM/xhSQSJSIS6Xr2+7z+t+dpc/L05JxfzzEOyWXxxtxIx/if6YlPncQLr2xiiTdIxbZ1FO/eyT7Pk2RP9mKzBzm5r4yahg4uWtxMnpZM+foP+bj9AhOHTCTY1onO5mCYw403O4aW8moqqg9S9mUQd8oYJk9KoOHHs1hum8IIUyNHd1TTZfiZ9cXbcIU8pE1PIFB9il9bdSSP9eFL7KXybJgxvhEkdp3iqyozd4xqZ9f+WlRzPGkTppCTbpNBxQFECl6IKKAzJ+K9dQoZx3dSe2I3J2v6yEzrZHvpdzRa3WR67iQty0DdmWZ62w/ydUkZW/d0M3W+nyxTDLGGLpp6mjl1+BiNncfoanHT+vo0Di/ezM3fbGahs5wNhetIWOrhbH2AUOUByro7ObS3ml5Fh8lVx1OTLrB6q5Hla55jWs2nFKxKZftLx1n43AHynnmMR51ectJtkf6qxGXkIqsQUUGH7tKxsaqoqICiGohzOHGkpjHcbqZPyWTGg16cM57m6RnjyLh9Aa+vLMQ/wXnplbFkTs9n+Zo3WTCqkb2V5wheVP7cQoyZhPFTmZ3rI2/aSNqO7Odom4HkJB21u35gT+U5Ov46iK43Eu97gtfeWcn83BQ5eh9gpOCFiAJqfzu11Sdo6tXjTk3EhB6b5x4Kn3+KmZ546r//iDdKT/x5IztjDOakJBymyytXRVVUUFUUBXR6E7FxzdTWdaG0Bggoly3V/fGDojcYiR02nvvmzWKKbzgJLRdo7OihJdD6x7Z0OgzJLpI0ey0kuskpGo07f/48BQUFkY4xKIVCoet8B4WuC1V8sXoxR+L1KKqVEXf5yfOYqN9fT7DlNAdOlnP0bAO/hmy47XE4Y92oG0soaTXD386W9NFw6HPWLP+WUG86cwtyiZleyoq3CunKNtKk6DGZ7Sg0sG9PNTOzp+LtqOL0yTOk+4aT6Mkmb2gxJatWUm6t4aI67j9/smjfJysrK8nPz7/6wgiTgtc4m82G3++P3APbsQAAAj1JREFUdIxBadOmTSiKcvWFV6TDMtTL46ve45b2EGAgdmgqI8eNxh3fx5z8dMyxYZqcCaT6eghbUvDljCZZWULRG7Xo7HbM9gzsWLFMnskDY7vp6w3S3hygJRjGkpjJBI8b/dK3ebeqAewJDJ1twT02E+XF5WT3OxiRbiXH8wt1Lf1YnRm4bh7GghXx5NV1YbGZmaEfzshR3XyQYsdxjZ8u2vdJv9+Pz+eLdIyrkjl4jdL6HHw0uN45eK3R0hx8tJBz8EIIoVFS8EIIoVFS8EIIoVFS8EJcoir9tJZvYP6Ctyg98ht/fVy20t9JTVkxLz/7EI+s+IRD57ojklOIf0sKXggAejlfuY33V3/EjqN1BK+wQh9jZkhGCr1VdfT3GHG4Ym94SiGuhabHJOvr66moqIh0DBEVdMRYPcydP4fDpSGu+GRPVUHVm3F57me810BPnwpW+YOPGLg0XfBFRUUUFRVFOoaICmaSPF4coQrijOeuvERnIilzFq+WzLqx0YT4jzRd8EIMBD09PWzZsiXSMSKuo6Mj0hEGHc0VfEZGBosWLYp0jAHD5XJFOkL0Uhr46bMjWGfdhu34dk457+beMfHX/DaBQIB58+b9DwGF+GeaK/isrCyKi4sjHUNEKb3Ty8Oz0xg7LI6b1Fba6psIh8IYWxoIWK733jJC3Fiau1WBEAPF2rVrCYfDV184CC1btizSEQYFKXghhNAomYMXQgiNkoIXQgiNkoIXQgiNkoIXQgiNkoIXQgiN+h1aY6wKeoNEbwAAAABJRU5ErkJggg==;" parent="1" vertex="1">
                    <mxGeometry x="1120" y="335" width="376" height="172" as="geometry"/>
                </mxCell>
                <mxCell id="1347" value="" style="shape=image;verticalLabelPosition=bottom;labelBackgroundColor=#ffffff;verticalAlign=top;aspect=fixed;imageAspect=0;image=data:image/png,iVBORw0KGgoAAAANSUhEUgAAAvgAAAI6CAYAAABSAjxcAAAgAElEQVR4nOzdf3TT9b0/8OenUKBMqvxK+OEQL6CwK8GkdAOBKxud1NP2cM42tpsgUNbMs0TpV50HxSaHHwng5R4da9cEZ6NFbLPp5jk9LUq3cuTe9ipa24ziDqgwcVohVZm2YKEt5PsH+3zM76Zp0k9+PB/n5LT9/Hzl80nbV955vd9v4bbbbvOAiIiIiIhSQobcARARERERUewwwScioiHr7++XOwSilHPt2jVcuHABn332Ga5cueKz7p///CcuXbokU2TJ4erVqxgYGJA7jIQwWu4AiIgoufT39+Orr77CpEmTkJHBdiKi/v5+dHd349q1axAEAePHj8f48eMDtrt06RK+/vprTJ06NehxLl26hFGjRmHSpEk+y3t7ezFq1Ch861vfimnc3d3d6Ovrg8fjwejRo3HjjTdKv9N9fX3o7u6Gx+NBRkYGJkyYgDFjxgC4/kakp6cHfX19EAQBmZmZuPHGGyM6bjxdvHgJA1cHMNnv+qUjJvhERDQkmZmZmDJlitxhECWEq1ev4quvvkJ2djbGjBkjvQEePXq0lBADwMDAAHp7e8MeS0yI/WVlZSErKyumcff09ODatWuYPHmy9HN3dzduuukmeDwedHd344YbbsC4ceNw+fJldHd3Y/LkyRAEAd3d3Rg1ahSmTp0Kj8eDL7/8Ej09PZgwYULY48bbjTdmx/0cyYIJPhFRGhgYGMA///lPjB8/Xkoyxo4di8zMTFy8eBEejwdjxozxaYW7dOkSent7A1rhxGOFaoUkSicDAwM+yXxmZiYyMjLg8fiOYdLT04OsrCx8/fXXQY9z4cIFXL16FQB8WvnF1nDg+u+smEQLgoAbbrgBwPXW9osXL2LSpEm4cOECMjMzceXKFWRlZYVs9b969SqysrIgCIJ0bLEEqK+vDxkZGRg3bhwAYNy4cfj666/R19eHsWPH4urVq5gwYQIAQBAEjBkzRoo93HGD6e3txcWLl6SYAeBb3/oWPJ5r+Prr3n+df6zP36Yvv/xK2jYzMxMTJ94EQRDQ09ODgYGrmDgx/m8mEh0/WyUiSiMZGRmYMmUKbrzxRly+fBlXrlzB5MmTMWXKFFy9elVK/r/++mtcvnwZEydOxNSpU5GZmYkvv/xS5uiJEs/YsWN9WqevXbuGa9eu+bTEi6U3Y8eODXmcSZMmYezYsRg/fryU3Pf09ODq1auYPHkyJk2ahP7+fly+fBljx471qdG/cuVKwKcFEydODFomJLrpppt84unv70dmZqa0/6hRo0LuO3nyZJ/1/f390vMNd9xQrl67hqyscVAqFZgw4QZcvHQJHg+gVCowZcpkXL58RXqT8+WXX2FgYABTFVOhUEyVlpEvJvhERGlE/Jg/MzMTo0aNwrhx4yAIAgRBwOjRo3Ht2jUA1xOG8ePHS//Eb7jhBly7do2da4kG8dVXXyErK0v63RkYGMDly5elFu+huHLlCm644QYIgoCMjAyMHTsWfX19UjIv/j5euXLFJ6kWzy+2okdynitXrvi09ke676VLl+DxeIK+mQh23GBGjcqQ4hePI/6tGjVqFDJGZUifEFy5cgXZ2ROQ8a+/WzfemI0rfX3S3y66jiU6REQUQOxY5y0jIwPXrl0L27JHlM6+/PLLgM6wPT09UpI+VGJ9uzexpdy7FT8jI8OnlXwo5+rr60NPTw9uuukmn995/xKjYLw/6Yv0uMPlASAI3xxP/Ht09SoTfG9M8ImIKIAgCAEtYuIIIUQUqLu7GxkZGcjO/qaj55UrVzAwMIDu7m6fbT/77DNkZ2eHLdkBrv8e3nTTTUE73o4dOxY9PT0AINXKD5U4+o//OUaPHh0wTKd/wn/58mX09vZi4sSJAQl8qOPGggDA4/nmb5PYsp+Rwb9N3liiQ0REAcaOHYuvv/5a+ud56dIlZGRk+NT5EtF1YgLvndwD13+Ppk6dKj3Elu6pU6cOmtwDwJgxY6RO8MA3LeYApBZ7sSY/lCtXrgRtjR8YGMBXX30VNAkfM2YMrl27Jp3r8uXLUkd88ZiXLl0KmtyHO24sjB07Ft3dPbjm8fxrtJ8ejPlXySF9gy34REQUYPz48fB4PPjnP/8pjaIzEsPcESWbgYEBqbX7s88+k5YHG89+qLKzs9Hd3Y0vvvhCSrC9a/nHjRuHvr6+sMmtOHyl/5uAr7/+Wvod9z/n2LFjkZ2djZ6eHvT09CAjIwM33nij9AnepUuXcO3aNXzxxRc++06cOHHQ4w7XTTfdiC+//AqfdV2/1uIoOuRLuO222wYvsgojkhotIiIiIiIKLZYlkENuwWdCT0REREQUW/459nAS/ogTfCb2REREREQjQ8y9o0n0B03wmdgTEREREckjmkQ/ZII/nMSebwqIiIiIiIKLdl6ESPcNmuAPJUFnMk9EREREFLlg+XOkSb/H4xl024AEP5KEnUk9EREREVHseOfXgyXwgyX5Pgn+YIn7cNcTEREREdF1oZL0SMpxwiX5o703CifUeib1RERERERDN1ir/WAt9aHWj/Y/eLgTh1sWyToiIiIiIgpM6EMl+4O15gdL8sMOkxlpch9tUs83A0RERESUKoYyOk641vtgSXsknWtFoyMtvRns58GWExERERGlsqHkwcFa6b2XB2u5D5Xk+y+PaCZb/2BPnz4dyW5ElICGM/U1ERERxd+cOXOk74fSci8adBz8SFvuiSh58PeYiIgoMQmCEJDUe/8cSSt+RrCVoTApICIiIiKKv+Hk5AEJfqidxe+Z5BMRERERxU+wvHsok9FmBFsYzQGJiIiIiCi2osnPw7bgD+VAREREREQUG8PJwUf39w+EPZD0FSzRISIiIiKKt77+fqnDrIB/fRV8v/p//80yYHRm5vWBdAZr/mcNPhERERFR/GWOHh2Q0IdK7IMl+RF1smVyT0REREQ0coaThw9ag09ERETREwQh4OFyuaI+ntPpHPYxhkIQBDidzhE5FxHFRsTj4LMVn4iIKDq1tbXweDzweDwoKSlBfn6+3CERUQIbLO+Oehx8JvRERESxt2rVKnR1dUk/W61Wn9Z9/+Tfe10wixYtglKpDLou2KcGLpdLOo+4Tq/XS/uI64PFQkTyGGpenjGUjYmIiGh4jhw5ApVKJf1sNpulFn6LxYLGxkYpGVcqlbBYLCFb/vPz8zF9+nS43e6A8yiVSpSUlEjH1Wg0AduI6xwOh88xxf2WL18eq6dNRHESLI8X5s2b54lk1Bzxo0UAOHv2bLxjJaI4EQSBb+qJRlCwlvf29nao1Wq4XC6o1WppucvlgkajQXt7O06dOgWdTufz++pyuaTlq1evBgAcPnw44PhOpzNgX6VSic2bN6OgoEA6hxiD+DMAn3Vi/LW1tdBqtbG5IEQUliAIuOWWW6TvQ42mE24kHXayJSIiijPvGvza2lpoNBopudfr9dI/8WCt7N683wwAQGNjY9jtvUt0urq6Bm2gO3XqVMB5FApF2H2IKPFElOCztY+IiCg2tFotFAoFDh06BKfTCYfDgfb2dng8HqkVPRJ79uwJ22FXoVBIbyrER1VVVdhjzp8/HwB8Rujx7i9ARCMvmjx8yC34TPaJiIii53Q60dXVhYKCAmmZ2GJeXFwsLRNLYsQhKvV6fUBn2qqqKjQ2NgYMYynua7VapWNEMtylWq2GQqHA1q1bffYnopE13HybJTpERERxptPppFIZnU4Hi8UCtVoNrVYLlUolrVu7dq3Uug9cr9UX93U4HEE701osFuh0uoDlbrcbZrPZ55yR1NG73W40NjZCEAS8/PLLPh2CiSg5RNTJ1v/7jz76aOQjJaKYYCdbIiKixCUIAmbNmhXQwZadbImIiIiI0hQTfCIiIiKiFMIEn4iIiIgohYRN8FmnS0REREQkv6Hk5WzBJyIiIiJKIUzwiYiIiIhSCBN8IiIiIqIUwgSfiIiIiCiFMMEnIiIiIkohTPCJiIiIiFIIE3wiIiIiohQyWu4AiIiIEonL5cJ7770nPd5//3309PTg4sWL6OnpQU9Pj9whEqWlCRMm4IYbbsCECRMwYcIE3Hbbbbj99tulh1qtljvEhCHMmzfP4z1wvvi9x+Px+d572UcffTTykRJRTAiCwEnsiPw0NTXh0KFDaGhowKhRo6BSqXD77bfjtttuw2233YabbrpJSiomTJggd7hEacfj8UhvsHt6evDVV1/h/fffl96Ed3R04OrVqygsLERBQQHy8vLkDjlqgiBg1qxZEAQBgiBIy8Sv/sv8vweY4BOlHSb4REBvby8aGhqkpH7evHkoKChAYWEh7rzzTrnDI6Io/PWvf5V+rz/44AMp2S8sLERWVpbc4UWMCT4RDRkTfEpnFy5cwO7du7Fv3z7cc8890j//W265Re7QiCiGPvroIynZ//Of/4yHHnoITzzxBCZNmiR3aIOKRYLPTrZERJQW9uzZg9mzZ6Ovrw8ff/wxXn31VTzwwANM7olS0C233IIHHngAr776Kj7++GP09fVh9uzZ2LNnj9yhjQgm+ERElNKeffZZ3HrrrThx4gTeeOMNlJeXY/r06XKHRUQjZPr06SgvL8cbb7yBEydO4NZbb8Wzzz4rd1hxxQSfiIhS0iuvvILFixfjj3/8I6qrq1FbW4s77rhD7rCISCZ33HEHamtrUV1djT/+8Y9YvHgxXnnlFbnDigsOk0lERClnx44dOHDgAP77v/8bP/7xj+UOh4gSyN133427774bf/rTn/Doo4/ixIkT2LZtm9xhxRRb8ImIKKVs3LgRzc3NaGlpYXJPRCH9+Mc/RktLC5qbm7Fx40a5w4kpJvhERJQSPvzwQ6xYsQLjxo1DU1MTZsyYIXdIFITL5YIgCLBarbLG4XQ6pZFHxJhcLpesMdHImzFjBpqamjBu3DgsX74cH374odwhxQQTfCIiSnpHjhzBsmXLUFhYiGeeeUbucCiMyspKqFQqtLS0yB0KkeSZZ55BUVERli1bhiNHjsgdzrAxwScioqRWVVWFwsJC/OY3v8Fjjz0mdzg0iPr6elRXV6OxsVFaJrag6/V6aZxvsYU/3Dpv4bZTKpVwOp0AAKvVivz8fOh0OmmdqLKyUtpXr9f7HF9cLgiCdCzxnPn5+SH3896OEttjjz2G8vJyFBYWoqqqSu5whoUJPhERJa0jR45g8+bNcDgcWLt2rdzh0CBcLhemTZsGtVqN1atXByTqra2t8Hg8qK2thdls9imZCbdusGMUFRVJrbItLS1Yvnw5amtrAQBut1va95NPPoHH44HFYoHD4ZCWK5VKlJSUSOt0Ol3A+YPtJ1Kr1ZxgMEn85Cc/gcPhwObNm5O6JZ8JPhERJaUPP/wQ69evx8GDB6XWWEpslZWVyM3NBQAsX748oEzn8ccfBwBotVqoVCpUVlZGtG6wY6xatQqtra0Arr/JMJlMQfcVJ0EqKCiQtnW5XOjq6sIDDzwAADCZTFAoFDh06FDY/Sh56XQ6vPDCC1i/fn3S1uRzmEwiIkpK69evx//7f/8PP/nJT+QOhSLU2tqKjo6OoK3cADB//vyQ+4ZbN9h2Wq1WanWfNm1aZMH+y6lTpwBcb4UXTZs2DWfPnh3ScSi5rF27Fn//+9+xYcMGNDc3yx3OkLEFn4iIks7GjRvx7//+76y5TyIulwsdHR1ob2+Hx+OBx+OBQqHwKdMRk2kAOH/+PGbPnh3ROm+htlu9ejW2bt0qfYIQKfENg3erfLjzU+p47LHH8J3vfCcph9Bkgk9EREllx44d6Ozs5Gg5SUYcPce7JVytVvuU6Rw4cADA9SEsu7q6pJKXwdZ5C7Xd8uXL0djYiFWrVg0pbrVaDYVCIZUEWa3WsOen1PLMM8+gs7MTO3bskDuUIWGCT0RESeOVV17BgQMH8MILL8gdCg1RfX19QOu5mHR7EwQBOp0OtbW1Pm8GBls32HYFBQVQKBTQarUAIH2NZHQbt9sNh8MBQRBgNpsHPb8/jqKT3F544QUcOHAAr7zyityhREyYN2+ex7tnt/i9+PFZsGUfffTRyEdKRDEhCAJHc6CktXjxYmzdupUz1KYYl8sFjUaD9vb2gMQ53LqhbGe1WtHS0oLDhw/HPH5KfX/605+wZ88evPPOO3E/lyAImDVrljT0qrhM/Oq/zP97gC34RESUJJ599llMnjyZyT0NmdVqhdlslka7IRqqH//4x5g8eTKeffZZuUOJCFvwidIMW/ApWd16662orq7G3XffLXcoRJSG/ud//gfFxcVxHzqTLfhERJQW9uzZg6VLlzK5JyLZ3H333Vi6dGlSfBLEFnyiNMMWfEo2Fy5cwOzZs/HGG2/gjjvukDscIkpj7777Lu666y6cPXsWkyZNiss52IJPREQpb/fu3SguLmZyT0Syu+OOO1BcXIzdu3fLHUpYwuzZt4ZuwYdvCz7+1YLf2dk54oESUWywBZ+SSW9vLyZMmICPP/4Y06dPlzscIiKcO3cO3/72t9HT04OsrKyYH18QBMyYMeN6q7x/Cz4ia8EfnZk5GkMt0SEiIhoJDQ0NuOeee5jcE1HCmD59Ou655x40NDRg7dq1cTnH6NGjWaJDRESp6dChQ5wxlIgSTkFBAQ4dOiR3GCExwSciooTV0NCAwsJCucMgIvJRWFiIhoYGucMIiQk+ERElpKamJsybNw+33HKL3KEQEfm45ZZbMG/ePDQ1NckdSlBM8ImIKCGxPIeIElkil+mMljsAIiKiYBoaGvDyyy8Peb8zZ87gpZdewqFDh/Dhhx/i008/jUN08TFjxgzceuutKCgowE9/+lPMmTMnpsd/44030NDQgLa2Npw7dw6ffvopvvjii5ieI1VNnjwZM2bMwPTp05GTk4PCwkLcddddssRy9uxZHDp0CI2Njfj000+le0nBifdtxowZWL16NQoKCjB79uxhH7ewsBBr167Fr3/96xhEGVtswSciooTjcrkwatQo3HnnnUPa75lnnsHChQtx7tw5mM1mvP3229IIcIn+uHr1Kt5++22YzWacO3cOCxcuxDPPPDPsazkwMICdO3di1qxZMBgMEAQBDz/8MF588UWcOnVK9uedLI+TJ0/ixRdfxMMPPwxBEGAwGDBr1izs3LkTAwMDw75PkXjttdewYsUKLF68GK2trVi/fj3279+P1tZW2a9Poj7E3yu73Y7169ejtbUVixcvxooVK/Daa68N637ceeedGDVqFFwuV4zucOxwJluiNMNx8CkZ/P73v8crr7yCl156KaLtP/vsMxgMBrjdbjz99NPIzc2Nc4Tx19raikceeQRKpRJ2ux1Tp04d8jEqKyuxZ88e5OXl4Wc/+xnuvffeOESavl577TX84Q9/QFNTE7Zu3YoHHnggLud59913YTKZ8MEHH+CJJ57AunXr4nKedFJTU4Pdu3dj3rx5sFqtUU+k99Of/hQ/+tGP8J//+Z8xi40z2RIRUUp67733cNttt0W8vcFgwBdffIHm5uaUSO4BIDc3F83Nzfjiiy9gMBiGvP+GDRtQV1eHl156CdXV1Uzu4+Dee+9FdXU1XnrpJdTV1WH9+vUxP0ddXR2WLVuGH/zgB/jb3/7G5D5G1q1bh7/97W/4wQ9+gGXLlqGuri6q49x+++147733Yhzd8DHBJyKihPPee+/h9ttvj2jbZ555Bm63G6+//nqco5LH66+/DrfbHXG5zocffohly5Zh/Pjx+POf/yxbnXg6ueuuu/DnP/8ZN9xwA5YtW4YPP/wwJsfdt28ffvGLX+D3v/89SktLY3JM8lVaWorf//73+MUvfoF9+/YNef/bbruNCT4REVEk3n///Yha8M+cOYOHH34YTz/99AhEJZ+nn34aDz/8MM6cOTPotvfddx8mTpyI/fv3j0Bk5M1ut2PixIm47777hn2suro67N69Gy+++CI/fYmze++9Fy+++CJ279495Jb82267De+//36cIoseE3wiIko4PT09uPHGGwfd7qWXXoJer0+ZspxQcnNzodfrB+2TsH79eqhUqoSegCfVNTQ0YOHChdiwYUPUx3j33XexYcMGHDhwAPfcc08Mo6NQ7rnnHhw4cAAbNmzAu+++G/F+N954I3p6euIYWXSY4BMRUcLp6enBhAkTBt0uncbKH2zM7crKSrjdbtjt9hGMioLZv38/zp8/j8rKyqj2N5lMsFgsbLkfYffeey8sFgtMJlPE+0yYMAEXL16MY1TRYYJPREQJ5+LFixEl+B9++GHUo18kmzvuuCNkbffAwAD27NmD7du3j3BUFMr27duxZ8+eIQ+h+dprr+GDDz5gzb1MSktL8cEHH0Q8hOaECRPYgk/JhfWbRDSYeLUWR9qC/+mnn+Lmm2+Who4TBAH5+fnSeu/l3g//cautVqvPer1eL63Lz8+HUqn02d7pdErH8T5esHN5xxMuJqfTGXb9+fPnQ05mtHv3buTl5Y14h1rxuvk/x0WLFkX0nJxOJ5RKZdB1SqUyousbyXnkGKf8rrvuQl5eHnbv3j2k/Xbv3o0nnngi6vOK18z7OvoL93oHEPSeiq95/+28H/7rrFZryGPE4rUTbv1w7vkTTzwR8X1LqQQ/1MXkI/JHomtvb49qWDYiSi9GoxHt7e1xOXakfytra2t9JrZxuVw+iYXFYvFZv3r1ahQXF0vrrVYrzGYz2tvbpW0cDoeUeGzcuBFdXV0+CcORI0ewevXqoPH4n8/lcgUkMf4xezweaLXasDH//Oc/D3kNqqqq8LOf/Syi6xVrCoUCjY2NPss6OjqgUCh8loV6zm63Gx6PR3odiffB7XYHPV801877fo+kn/3sZ6iqqop4+48++ggnT56MeihMp9MJjUbjc42Kiop8kvzBXu+ixsZGKYkORqlUoqSkRDpGSUnJkPOb4b52RLG+5+vWrcPJkycjmvcpUXO6qFvw5Z6ZLJkfycBoNModAhEliUT7e6FWq3H27NmQ6zdu3IiOjg7pZ7PZjNraWqjVamlZe3s7Ghsb4XK5oNVqoVAofOqpW1tbsXz58oji2bdvn3SsaPnH7O2NN97AxIkTZa3XVqlUUjLodDqhUqlki8VfuGsXb/feey8mTpyIN954I6LtGxoaUFhYGPX5HnroIZSUlPgkv+IbDPH+DPZ6F61evRoPPfRQ0PO4XC50dXX5TOwlnse/1X4w8XjtxOKeFxYWJnVndZboUIDS0lIsWLBA7jCIKEksWLAgoeqFGxsbsWrVqpDrDxw4ICURYmLhnRAB198kKBQKqVOrWq1Ga2urtL6joyPizr3isU+dOhX5kwgTs7/hJoWxkJubiyNHjgC4/ulGIo1qFO7ajYShJIqNjY1RdxoXk+5gr3232w2tVhvx6x24niRPmzYtoHxH3F6lUkGj0fgk9B6PZ0gdVIH4vHZicc8LCgoCPl1IJkzwyUdNTQ2amppgs9nkDoWIkoTNZkNTUxNqampkOb9Op/MpgfRvwTSbzT7rGxsbcfz48UGPO23aNOmTAO8WQbGV0bsFdDAKhcJnDHv/mP3rpIcSc1tbG1asWBFxLPGwatUq6Q1Qa2tr0CRzsOccqVheu5GwYsUKtLW1RbTtp59+itmzZw/rfPPnz49qP+/Xu6i6uhoOhyPop0/Hjx+HxWLxud5Dbb0HYvPaicc9nz17dsg+L8mACT5JTp8+DaPRCJvNhqysLLnDIaIkkZWVBZvNBqPRiNOnT4/4+f3rc/1rnsX6XLHG22KxRHTc8+fPS8mWWKZjtVqjamXs6urCnDlzQsbsX28+lJjPnTuHGTNmDCmeWNNqtdIboI6OjoAWYmDw5xypWF67kTBjxgycO3cuom2Hcy/FN5zRflLk/Xr3PmZJSUnIenaTySTdh9raWpjNZulTAv86+lBi8dqJxz0fyn1LREzwSWIwGFBWVoaVK1fKHQoRJZmVK1eirKwsoTvnq9VqqcVRbJEUkwn/lkex3MG7XEKtVuPll19Ga2urT+3xYEKVRUQbs79PP/0U06dPH/KxY02lUkGv1ydM/X0k124kTJ8+PeKW4OHeS5VKJZW7eFu0aBGsVuuQXu+iqqoqnD9/HgcOHJCWWa1WLFq0yGc78U1wuNmWz5w5EzTxj9VrJ5b3fCj3LRExwScA19+FZ2dnY8uWLXKHQkRJasuWLcjOzh5yDe5IMplMUKlUPi2SwRICjUaD1atX+5ThiGU658+fH1J5jtjxMZYxe/viiy8wderUqI8fK7m5uXA4HAlVfz/YtRsJU6dOxRdffBHx9hkZ0admjz/+OBwOh8/oN3q9HufPn5d+LyN9vXsTO4qLTCYTOjo6fN4oWK1WnzcJRUVFMJvNPsepqKhAUVFRwPFj+dqJ1T0fzn1IBMkdPcVEfX09qqurWXdPRMNms9lQXV2N+vp6uUMJqbq6Gh0dHVLnQZPJhNraWmg0Gp86/sOHD/vsJ7Z+Dpbc+9cDFxUVBZQN+dcUD1a/LMacyMTa6VAdnIf6nEOJ9toF6yyaarRaLWpra32uUX19vU9JS6Svd//j+g8L6/F4fF7r4tCb4u9HVVUVVq9e7XOf1Gp10GFDY/3aSad7Hoowb948j/fQjeL33kM6+i/7xz/+kTTDPSYiQRAS5vq53W7k5OTAbrcHvKtOpDgpdnhfKZaCvZ7q6+thMBjQ1tYWdUfKSF+n6fZ6DvZ80+0aJCO+npOTXPdNEATMmjXLZ+4k76/+y/y/B9iCn/aMRiOKi4uDfmRGRBSNoqIiFBcXJ9z4+ERE6YIJfhrbu3cvuru7o/qIlIgoHKvViu7ubuzdu1fWOJqbm3H//fdj8eLFss9gHu6xePFi3H///Whubpb1ehFRamCCn6aOHj2KXbt2wW63yx0KEaUou92OXbt24ejRo7Kcf9u2bVizZg0uX74Mu90u+yzmoR59fX347W9/i8uXL2PNmjXYtm2bLNeLiFLHaLkDoJHX29srjXc/d+5cucMhohQ1d+5caXz8tra2EezzjpkAACAASURBVJ1fY9u2bXj++edx4sQJzJw5c8TOG43MzEwsWbIES5YsQWdnJ5YuXQoA2LFjh8yREVGyYidbGcjdiWbTpk2YMGECysvLw24nd5wUH7yvFEuRvJ5KS0vR09OD559/PqbHDbVdc3Mz1qxZkxTJfTCdnZ1YuHAh6urqAmaoZSfb5MROtsmJnWwpadjtdpw8eXLQ5J6IKFbKy8tx8uTJESsJPHjwIAoLC5MyuQeAmTNnorCwEAcPHpQ7FCJKUkzw00h7e7tUmkNENJLEUh1xKvl4Ev/WJbORulZElJpYoiMDuT6CW7JkCTZu3BjxVPL8qDA18b5SLA3l9WS323HgwAEcO3YsZscNVbLS19eHzMzMiOJKRP39/RgzZkxE5Tj8nU58LNFJTizRoYRXWlqKBQsWRJzcExHFmsFgwIIFC1BaWhr3cyVzcg8kf/xEJC8m+GmgpqYGTU1NLM0hItnZbDY0NTWhpqZG7lBiyuVyQRAEOJ1OuUMhIuIwmanu9OnTMBqNqKuri2qIuu3bt8chKpIb7yvJJSsrCzabDWvWrMH3vve9lBmqV61Ws7SCiBIGW/BTnMFgQFlZGVauXDnkfTnZSmrifaVYiub1tHLlSpSVlclSMqjX631mkPWfydt7ncvlAgA4nU4IgoBFixZBEAQolUppP6vVKm3r34LvfazBzjFSLBYLioqKMGPGDNln703Wx4wZM1BUVASLxTKi9w5InpmZE/2RDjNHswU/hZlMJmRnZ2PLli1R7c9WXiKKly1btuCtt96CyWQKSLLjxeVyweFwSC3tLpcLGo0GJpMJAKBUKlFSUoKqqipYrVZoNBqfVvm1a9fi+PHjyM/Px9mzZwEALS0tWL16dcC5lEolLBYLTCYT9Ho98vPzcfjw4UHPES9vvPEGHn74Yfzbv/0b9Ho9nnnmGcyYMSPu501F//jHP9DW1oaXXnoJ3/ve9/DrX/8ad911V9zPu23bNlRUVKCwsBB2ux25ublxP2cq6u/vR1tbm/RJ4ubNm1NyUjmOoiMDQYh/L/n6+noYDAa0tbVBqVTG9VxERNFwu93IycmB3W5HUVGRz7pI/04G2y7UvmJC397eDrVa7bPO6XRCp9P57KdUKrF582bMmTMHOp1O2s9qtaKlpUVK2Pft24f58+dDo9GgtrYWAAKO5XK5cOrUqZDnEN9kRPPcBrtW58+fx8KFC/Ff//Vf+PnPfx5yOxq65557Do899hhOnDiBadOmhdxuOK9n4JuZmd98882knd8hEYkzR2/atClokj/c+xYtQeAoOhSE2+2GwWCA3W5nck9ECUupVMJut8NgMMDtdsf9fGq1GrW1tdBoNNI/yXAlOl1dXVJLvbeCggK4XC6pvEar1UZ07qGcI5YeeeQR3H///Uzu4+DnP/857r//fjzyyCNxO0dzczMqKiqY3MfBzJkz8eabb6KioiLlynWY4Kcgo9GI4uLigBYxIqJEU1RUhOLi4hGbmEqr1UqfRre3t8NsNkuJukKhkNaJj6qqqoBjqNVqdHV1obKyMuCTgMFEeo5Y+fjjj/H6669j165dcTtHutu1axdef/11fPzxx3E5frLPzJzoUnXmaCb4KWbv3r3o7u4esZpWIqLhslqt6O7uxt69e+N+nmCfaqrVaqkVXvzbKXasDTXspUqlgsPhwMaNGwPWiccS99Xr9VAqlUM+Ryy0tbVBo9HE7fh0nVj6FQ+pMDNzokvFmaPZyTaFHD16FLt27UJbW5vcoVCaClbHTBQJu92OnJwcfPe7341q1K9ImEwmtLS0+NSqijXzwPXyRkEQYDabAVwfcUar1QZNwHNzc9HR0RGyPKe9vR0ajQY6nQ7AN33ZQp0jXv7617/i4sWLcTs+XXfx4kW4XC6sWbMm5sdua2tDTk5OzI9L38jJyUm53IkJforo7e2F0WiEzWZLmXGliSh9zJ07FzabDUajMa7/aA8fPhx2fbA3p1qtNiAJr6qq8imt8R8HP9y4+CP9Bvj73//+iJ4vHcX7GnNm4/hKxevLEp0UYTQakZeXh3Xr1skdCiUh/3G+Rd6dAb3H6w41lrjYWsnO3RSNdevWIS8vj+UIRETDxAQ/Bdjtdpw8eRLl5eVyh0JJbu3atVLrojhet8fjgcVikep4vccS9+6oCHxT7jASI6JQaiovL8fJkyflDoOIKKkxwU9yLpcLRqMRpaWlcodCKaCgoADA9Rb9rq4uqQTBZDJBoVD4dN4WW/TDlSIQRUP8e9ba2ipzJEREyYkJfpJTq9Ww2Wxsvae4CDZedyRjiRMNR3l5ObKysjhTJxFRlDL6+wcQ8jHg+xj414MSi8FgwIIFC9iKTzEVbrzucGOJEw1HaWkpFixYgN7eXrlDISKSjZhz++fiYfN2r0dGxqjRCPnI8H0I/3pQ4rHZbGhqakJNTY3coVAKCDded7ixxImGo6amBk1NTbDZbCNyPu9PqEJ1KA+1jffQmf7rREqlMui+7IRORIMRc27/XDxs3u79kPsJUGxkZWVJQ8ydPn1a7nAoBbjdbpjNZgiCAJ1OJ43XbTKZoFarpWRFo9FInWvFNwbeSQ5RJE6fPi0N9ZuVlTVi57VYLD6fUq1evRrFxcU+29TW1gZ8miW+1r07o3s8HpSUlEivf7fbLX3KBVwfG9/j8bATOhHFHRP8FLJy5UqUlZXBYDDIHQolGbHkxr8V3juhMZlM0vLDhw8HTXa89yEaCoPBgLKysrhNchWpjRs3oqOjI6JtXS4Xurq68MADD0jLxDI29ktJLC6Xi/2FKK0kVYIv/oJ6f3w6lF/aUKUFqWTLli3Izs72ScaIiBKZyWRCdnY2tmzZIncoOHDgAFQqVUTbqtVqqFQqaDQan/9B/m+IE41SqYxpoiv+Hw4242+i2Lp1KywWi3RfxLJDIDniB4KXi+Xn5w+6X7DcyX+d0+mM+DqEO160rFZr0Ocjzs3iHZO4rfjQ6/XSunBlcelWMpdUCX4wlZWVUKlUaGlpCbud1WqVxupOdTabDdXV1aivr5c7FCKisOrr61FdXT1idff+xDI08dHY2Ijjx4/7bKPT6UImBMePH4fFYvE5Trq1EotD5frP9ptI9uzZE/JNVzLEL/IvF3O5XDF7vcl9HRQKBRobG32WdXR0QKFQSD/r9XqYzWafa+BwOKQkP1xZXLqVzCV9gi/+c/B/UXhbtGgRKioqYLFYRjAy+SiVStjtdhgMhpR94RJR8nO73TAYDLDb7bK1ook1+OI//WD/J/yTKv+/qyaTSVpXW1sLs9mc8K3B4YTqTCy2eoutpmIrrn/Lr/iz2CIrfmLg3/IbrCU4VGdn//i8Z9POz8/3adX1btEVtxeH9RWP6T3rdrCW62BxhJrxW05qtRpnz56N6Npu3bo17JtQ/+sQasZyUWVlZdhrHs31U6lU0vmdTmfAp2kOh0Pq8yWqra2Fw+HgSG5+kjrBd7lcmDZtGtRqNVavXh3yXezx48fTLtEtKipCcXExp3wnooRlNBpRXFyMoqIiuUOBWq2WWuIjTRSsVisWLVrks0yr1UKhUODMmTPxCDPu/Gew1ul0Pkmx+Ibok08+CXmM/Px86Rg333wzurq6ojq3OHt2MJ988on0hqqxsREtLS3Sfg6HY9Bjhpt1e7A4vGf8lltjYyNWrVoV0bbnzp3zeRMa7nUebsZykXgPIr3monDXLzc3F0eOHAEAHDlyxGcuDDHx9/+EQfydO3ToUARXIX0k9ZiXlZWV0s1fvnz5oGU66cZqteKHP/wh9u7dG1Vt6/bt2+MQFRGlmmj+Vuzduxfd3d0JVc5iMpnw8ssvo7i4OKBMJ9T2ZrMZVqtVKv+wWq3o6uqSZoVOJv6dhk0mEyoqKnDo0CGcOnVKWgZcL3kJ9sm5/yzYVVVVPslfKMFmz66oqPC5tt42btwI4Hpyp9PppJ8LCgqk5PXUqVMhjzlnzpwhxyHuI+e91el00qcPAFBSUgKtVhvRm9LHH38cwPVr9uSTT6KystKng3gwLpcLarU66Izle/bsATD0ax7u+q1atQpPPvkkgOszWT/++ONSufGZM2d8ynUovKRuwW9tbYXD4YAgCDCbzWHLdNKV3W7Hrl27cPTo0SHvu2PHjjhERHLjfaVYiub1dPToUezatQt2uz0OEQ1PdXU1Ojo6fEoO/GvwvcsVPB6PT/292WxGe3t7Us4LISbx3rFPmzYNZ8+eDUiuhvL8hpKUBZs9e7iiOWY84ogF/3IxMZGOxPz58yPedrgzlkd7/bRarTSKVUdHh09r/Zw5cyL+NIiSuAXf5XKho6PD5w+pWOeXyKMXjLS5c+dK4+O3tbUNeXxptuKnnh07dvC+UswMNcHv7e2VxrufO3dunKKKTLAyAf+WykhKMQbbJljrZyISE0Cx1RYAzp8/j9mzZwckV0Opd440KVMoFDEvpw11zHB9JKLZJxmcOnUq4L6Go9VqpQTb5XJBo9FE9OnFcK+fSqWCXq8PqL8XP61xOp3QarVwOp04c+aM9Npk7ucraVvwxdFzvFsR1Go1y3SCWLduHfLy8liPT0SyMxqNyMvLw7p16+QOhfyo1WooFApUVlYC8C038p/deuvWrUGPIdZDi5+AeLf6iv+vxVpp8Tzift7be8+eHa1ojhmPOEZCuGsrOnDgAIBvypDCJevRzlgei+uXm5sLh8PhU38vKikpkUqU5s+fj4qKCqlvCPlK2gS/vr4+4OYvX76cZTohlJeX4+TJkwn5kTgRpQe73Y6TJ0+ivLw87ufq7++P+zniKd7x+w8PKo4/7na7fUpfa2trpaRO7Jw52Agy3sd4+eWXfUp0vIcUDbZfsNmzhyPUMcPNuh2POEZCuGsrEp+T930NJtyM5YMZ7vUTOw0H6zxcVVUFi8UixdTV1YWSkhKYzeaAkXzSnfBvc+Z5gn0c6T0bpf+yzk/+kRQfNyYqQRBkuX7t7e3IyclBW1tb2NEJRHLFSfHF+0qxFOnrKV5/f4Jtt3jxYvz2t7/FkiVLBt0/UR07dgwPPvgg3nnnHZ/lwZ5vuGslluPFuizParWioqIiopIapVKJzZs3p3QJxWDXeTivZ/7Njox3aVk0hnPtY32PBEHAzJtnSW+wxGXiV/9l/t8DSdyCT0On0WikenwiopEk1t1HktwPl/i3LpmN1LWKlPfY9mLr/uHDh+UOi0iSjB3b4ylpO9lSdAwGA95++22UlpaOyMfkRESlpaVYsGABDAbDiJxv/fr1WLNmDTo7OzFz5swROWcsdXZ2oqGhAXV1dXKHIhlOR+F0m4eGKBGwBT8N2Ww2NDU1oaamRu5QiCjF1dTUoKmpaURb1FesWIHNmzdj6dKl6OzsHLHzxkJnZyeWLl2KzZs3Y8WKFXKHQ0RJigl+GsrKypJKdU6fPi13OESUok6fPi2V5gx1iN7h2rFjBzZt2oSFCxdiw4YNOHbsWMJ2vO3v78exY8ewYcMGLFy4EJs2beJ8FUQ0LCzRSVMrV65EWVkZDAYD/vKXv8gdDhGlIIPBgLKyMqxcuVKW8+/YsQMKhQL79+9HUVERPv/8c1niiMSUKVMwZcoUWCyWQWcXJSIaDFvw09iWLVuQnZ2d0iMbEJE8TCYTsrOzsWXLFtli2LZtG8xmM9RqNV599VWfGUAT6dHX1ycN/Ww2m7Ft2zbZrhkRpQa24Kc5m82GnJwcfO9730NRUZHc4RBRCqivr0d1dTXa2tpki2Hbtm14/vnnceLEiYTvaJuZmYklS5ZgyZIlUg0+MPRZgomIRGzBT3NKpRJ2ux0Gg4EjHRDRsLndbhgMBtjt9qAzYY6E5uZmVFRU4M0330z45N7fzJkz8eabb6KiogLNzc1yh0NESYoJPqGoqAjFxcUcH5+Ihs1oNKK4uFjWTwQPHjyIwsLCpEvuRTNnzkRhYSEOHjwYk+Ndu3YtJseh0OJ9jRO1g3iqSMXrywSfAFyflbC7uxt79+6VOxQiSlJ79+5Fd3c3rFarrHG0t7cnfYOF0WhEe3v7sI+jVqtlLZVKF21tbbjzzjvjcmxxBmiKn7a2NuTk5MgdRkwJ/zZnnsd78grxe7HzT7BlnZ/8g9MmD0OiTjt9+vRp5OTkoK6uDitXrkzYOGl4eF8plsTX09GjR7FmzRq0tbVh7ty5MTtuNNsJgoC+vj5kZmYOOw659Pf3Y8yYMUGfWyTLRB9//DG++93v4ty5c3GLlYDp06fj7bffxre//e2g64fzer7//vtx+fJlvPDCCzGJlQJt2LAB48aNw+9+9zuf5cO5b8MhCAJm3jxLmjlaXCZ+9V/m/z3AFnzyMnfuXGl8/N7eXrnDIaIk0dvbK413H4vkPhaSObkHYhf/t7/9bXz/+99HWVlZTI5HgcrKyvD9738/ZHI/XOvXr0dDQ0PSTdqWLMSZo9evXy93KDHFBJ98rFu3Dnl5eUn/8TYRjRyj0Yi8vDysW7dO7lBk43K5IAgCnE6n3KEEePrpp/G73/0Ozz33nNyhpJznnnsOv/vd7/D000/H7RzJPDNzokvlmaM5TCYFKC8vx5IlS+QOg4iSxMmTJ3Hs2DG5w5CVWq1O2NK3adOmoa6uDg8//DD+8pe/4Kc//SlycnIwa9YsuUNLSv/4xz/Q1taGl156CX//+99RV1eHadOmxfWc4pCpCxcuRGFhIYxGI3JycpL+kyo59Pf3o62tDTabDQ0NDdi8eXNKDknLFnwKymazyR0CESWJZPp7odfrpRpWQRACOgR7r3O5XAAAp9MJQRCwaNEiCIIApVIp7We1WqVt/VvwvY812Dni7a677sJbb72F73znO3juueewZMkSnzj4iPyxZMkSPPfcc/jOd76Dt956C3fdddeI3MMdO3agrq4O48aNw4MPPogxY8bIfi2S8TFmzBg8+OCDGDduHOrq6lIyuQfYgk8haDQa2O12ucMgogRns9mg0WjkDiMiLpcLDodDaml3uVzQaDTSbN5KpRIlJSWoqqqC1WqFRqPxaZVfu3Ytjh8/jvz8fJw9exYA0NLSgtWrVwecS6lUwmKxwGQyQa/XIz8/H4cPHx70HPFmNptH7FwUeytWrEi5UhKKD46iIwNB4CgmJB++/igZRPo6DbZdqH3FhL69vR1qtdpnndPphE6n89lPqVRi8+bNmDNnDnQ6nbSf1WpFS0uLlLDv27cP8+fPh0ajQW1tLQAEHMvlcuHUqVMhzyG+yYjmufF3OvEN5/VM8pHrvgkCR9EhIiKKiFqtRm1tLTQajfRPMlyJTldXl9RS762goAAul0sqr9FqtRGdeyjnICIaDpboEBFR2tBqtVJCLrboFxQUAAAUCgXcbnfAPv4j46jVanR1daGysjLgk4DBhDoHEVEssQWfiIiSRnd3d9T7Wq1WKJXKgOVqtVpK+sUWfbFjbahhL1UqFRwOBzZu3BiwTjyWuK9er4dSqRzyOYiIosUWfCIiShrPPfccvvzyS/zqV7/ChAkThrSvyWRCS0uLT62qWDMPAG63G4IgSB1RLRYLtFpt0AQ8NzcXHR0dIctz2tvbodFooNPpAHzTly3UOYiIYomdbGXATjQkJ77+KBmEe52OHz8e165dw9atW7F9+/aU7XTKTrapg51skxM72RIREY2Q3bt3IyMjA0899ZTcoRARJSQm+ERElFQeeughZGVloaenR+5QiIgSEhN8IkprDQ0N+OUvf4nFixdjxowZss+yOBKPGTNmYPHixfjlL3+JhoYGWa77zp07w8YIIOz6CxcuIDMzU5bYieTS3NyM+++/H4sXL5b970gyPxYvXoz7778fzc3Nct/SuGGCT0RpyWaz4eabb8ZTTz2FefPmYf/+/XjnnXekvkap+rh69SpaW1uxf/9+zJs3D0899RRuvvlm2Gy2Eb8HZrM5ZJwAwj6PKVOmoL+/f8RjJpLLtm3bsGbNGly+fBl2u132vyXJ+ujr68Nvf/tbXL58GWvWrMG2bdvkvrVxwVF0iCitnDlzBuvXr8ekSZPwhz/8AcuWLZM7pBGVkZGBmTNnYubMmVi8eDF+9atf4f/+7/+wZ88evPjiizh48CDmzJkjd5hh7du3D1euXMGYMWPQ19cndzhEcbdt2zY8//zzOHHiBGbOnCl3OEktMzMTS5YswZIlS9DZ2YmlS5cCAHbs2CFzZLHFFnwiShtNTU1YtmwZfvSjH6GhoSHtkvtQli1bhoaGBvzoRz/CsmXL0NTUJHdIYT3xxBO4cuUKHnnkkaiPYbVaIQgC8vPzfZYvWrQIguA7Nr24rfjQ6/XSOqVSGbQEQKlUhl1HFKnm5mZUVFTgzTffZHIfYzNnzsSbb76JioqKlCvXYYJPRGnhzJkzuO+++1BcXIxHH31U7nAS0qOPPori4mLcd999OHPmjNzhBPWb3/wGjz32GD7//HPs2bNnWMdSKBRobGz0WdbR0QGFQiH9rNfrA0qJHA6HlOS73W54PB60t7cDuD7+vcfjgdvtDruOKFIHDx5EYWEhk/s4mTlzJgoLC3Hw4EG5Q4kpJvhElBbWr1+PRx99FE8++aTcoSS0J598Eo8++ijWr18vdyhBbdq0Cdu2bRvyJFehqFQqqbXe6XRCpVL5rHc4HD6TYQHXJ8dyOBxwuVwxiYEonPb2dhiNRrnDSGlGo1F6I54qmOATUcqz2WyYNGkSW+4j9Oijj2LSpEmydLwdTHZ2dkyPl5ubiyNHjgAAjhw5gtzcXGmdmPj7zzSr1WqhUChw6NChmMZCFExbWxtycnLkDiOl5eTkoK2tTe4wYooJPhGlvN27d2Pr1q1yh5FUtm7dit27d8sdRtytWrUKra2tAIDW1lasWrVKWnfmzBmfch0iuXBI2PhKxevLBJ+IUlpDQwPmzZvHDrVDtGzZMsybN0+2cfJHilarRUdHB4Dr9fferfVz5sxBV1eXXKERxUWwjt/+nc2DcblcEAQhaGmauM7pdPp8H+3xaPiY4FNI+/fvlzsESgF2u13W8zc0NKCwsFDWGJJVYWFhyif4wPU6fL1eH1B/Lyb73jX6VqsVTqcTXV1dMJlMIx4rUSzU1tb6dBx3uVywWq0xObZarYbH4wkobaORFXWCL/csZMn8SAbt7e0wGAxyh0EpQO7OS++88w7uvvtu2c6fzP7jP/4D77zzjtxhxF1ubi4cDodP/b2opKQEOp0OADB//nxUVFRAp9PBYrGMdJhEcaNWq3H27NmAVvVgrexbt26V8plgbwr8W/D1er1PDuS/T2VlZdAhaAHfXFOMwel0QhAEaUhbCi5jVAYw1Ifcs5ClwiPRscc+xZKcr6dPP/0U06dPl+38yWzGjBn49NNP5Q4j7sS6e+/6e1FVVRUsFgsEQYBGo0FXVxdKSkpgNpsDkhGiZNXY2Bj09R/MuXPn4PF4UFtbC7PZHLbExuVyweFwSLlPe3s7zGazzzaffPIJPB4PLBYLHA6HtFypVKKkpERap9FofPZbu3ZtUuRT0YomP/d+sESHApSWlmLBggVyh0EpZMGCBSgtLZXl3OfOnWOCH6Xp06fj3LlzcocRFyaTSRqPXqvV+pQUuN1un/ICk8nk00BTVVUFj8eDBx54QNpGLEtQq9UB5wq3jkgOOp3Op3W8pKQk4pKaxx9/HMD13xuVSoXKyspB9xHfBIi/C97E+SwKCgqkbcUyuKqqKgDXfwcVCoVP67+4PQXHBJ981NTUoKmpKSGHx6PkZbPZ0NTUhJqaGlnOn5HBP3XR4HULjwk7JSv/GnwxkY7E/PnzI95WrVajtrYWGo0mbFlPKN5vQrq6unD27NmI9013/OtNktOnT8NoNMJmsyErK0vucCiFZGVlwWazwWg04vTp03KHQ2mgv79f7hCGJdnjp9R16tQp6fvz589j9uzZYbcXPyHzLtGJZOQchUIRUN48lDci6Y4JPkkMBgPKysqwcuVKuUOhFLRy5UqUlZWx8zbFXSpMWsPJjUgO4qdS4iRuwcpvDhw4AABSGU24Uhmr1QqlUhnyPKGI5UJia7/YsXawoTfpG0zwCcD1+rbs7Gxs2bJF7lAohW3ZsgXZ2dkcXpDiSqPRJH2Zoc1mC+hUSDQSLBYLzGZz2BFqBEGATqdDbW1t2GTdZDJBrVZLZTYajQa1tbURxeF2u6U4xJGrOPRm5IR58+Z5vDs8iN97j/biv+yjjz4a+Ugpburr62EwGNDW1ubzTlsQhJTuoZ6uRvq++p/P7XYjJycHdrsdRUVFI35+Gpp4Xb+dO3diYGAAO3fuHNZ5g23X3NyMNWvW4MSJE5g5c2ZM4h1JnZ2dWLhwIerq6rBixQqfdcGeL1/jiW84r2fe35ExnGsf63skCAJmzZrlM7y691f/Zf7fA2zBT3tutxsGgwF2uz3ox2hEsaZUKmG322EwGKRRTIhiacWKFdi8eTOWLl2Kzs5OucMZks7OTixduhSbN28OSO6JiCLFBD/NGY1GFBcXj0hLKpGoqKgIxcXFnG+B4mbHjh3YtGkTFi5ciA0bNuDYsWMJ23G1v78fx44dw4YNG7Bw4UJs2rQJO3bskDssIkpio+UOgOSzd+9edHd3x2x6aqKhsFqt+OEPf4i9e/ey7wfFxY4dO6BQKLB//34UFRXh888/lzukkKZMmYIpU6bAYrH4jK9PRBQNtuCnqaNHj2LXrl2w2+1yh0JpzG63Y9euXTh69KjcoVAK2rZtG8xmM9RqNV599VXZZzAP9ejr60N9fT1yc3NhNpuxbds2uS8dESU5tuCnod7eXmm8+7lz58odDqWxuXPnSuPjt7W1cf4Fiplt27bh+eefT4qOtpmZmViyZAmWLFki1eADYJkOEUWNLfhpyGg0Ii8vD+vWrZM7FCKsW7cOeXl5rMenmGlubkZFRQXefPPNhE/u/c2cORNvvvkmKioq0NzcLHc4lOZcLlfA7LNWqxWCICA/P99n20WLFgWMVS9uKz70er3PPt7rxIf/cSk6TPDTuYSViAAAIABJREFUjN1ux8mTJ1FeXi53KESS8vJynDx5kiVjFBMHDx5EYWFh0iX3opkzZ6KwsBAHDx6UOxRKc5WVlVCpVGhpafFZrlAo0NjY6LOso6MDCoVC+lmv18NsNvuUozkcjoAkv7a21mcbl8vFvoExwAQ/jbS3t0ulOUSJRizVaW9vlzsUSnLi37pkxt8FSgT19fWorq4OSOYBQKVSSa31TqcTKpXKZ73D4QiY1Kq2thYOhwMulyvkOdVqNc6ePRuD6NMbE/w0Iib3nB2REpE4+2iyJ2Ykv7a2NuTk5MgdxrDk5OSgra1N7jAojblcLkybNg1qtRqrV68OaFXPzc3FkSNHAABHjhxBbm6utE5M/P1nntVqtVAoFDh06FDI8zY2NmLVqlWxehppiwl+migtLcWCBQtgMBjkDoUoJIPBgAULFqC0tFTuUCjJZWZmyh3CsCR7/JT8KisrpaR9+fLlAWU6q1atQmtrKwCgtbXVJyk/c+aMT7lOODqdzqcGv6SkJOCNAQ0dE/w0UFNTg6amJpbmUFKw2WxoampCTU2N3KEQRUzsjOjdwZAombW2tsLhcEAQBJjN5oAyHa1Wi46ODgDX6++9k/I5c+agq6srovP41+BXVVXF7kmkMQ6TmeJOnz4No9GIurq6qIYg3L59exyiIrkl8n3NysqCzWbDmjVr8L3vfY9DuVJSUKvV8Hg8codBFBMulwsdHR1ob2+HWq0GACiVyoAyHZVKBb1eH1B/r9VqodPp4HQ6odVq4XQ6cebMGSnxN5lMI/Zc0hVb8FOcwWBAWVkZVq5cOeR9OdlKahrp+xrN+VauXImysjKWlFHM6fV6n3IA/4TFe53YEdDpdEIQBGkYQO9ERxwGMFgLvvexBjsHUSIRR88Rk3vg+ptY/zKd3NxcOBwOn/p7UUlJCXQ6HQBg/vz5qKiogE6ng8ViiW/wBIAt+CnNZDIhOzsbW7ZsiWr/RG7lpdS3ZcsWvPXWWzCZTBwyjWLC5XLB4XBILe0ulwsajUZqTVQqlSgpKUFVVRWsVis0Go1Pq/zatWtx/Phx5OfnS6N8tLS0YPXq1QHnUiqVsFgsMJlM0Ov1yM/Px+HDhwc9B1EiqK+vR1FRkc+y5cuXw2w2Y/ny5dKyVatWweFwBO0UW1VVhdmzZ/u8wS0pKYHZbMbZs2dZihNnwrx58zzef1zE78VaqGDLPvroo5GPlIakvr4eBoMBbW1tUCqVcodDFBW3242cnBzY7faAfzaREgSBCdQwxOv67dy5EwMDA9i5c+ewzhtsu1D7igm9d9mByOl0QqfT+eynVCqxefNmzJkzBzqdTtrParWipaVFStj37duH+fPnQ6PRSMMC+h/L5XLh1KlTIc8RrGQh0ufG13jii8frOZm5XK6A30G5Defax/oeCYKAWbNm+XwC6P3Vf5n/9wBLdFKS2+2GwWCA3W5nck9JTalUwm63w2AwwO12yx0OJTm1Wo3a2lpoNJqISnS6urqCjsddUFAAl8sllddEMuKHdzITyTmIUlmiJfepiAl+CjIajSguLo66xZMokRQVFaG4uJjj41NMaLVa6dPo9vZ2mM1mKVFXKBQ+o3mEGtFDrVajq6sLlZWVQ05UIj0Hkbf+/n65Q0hpqXh9meCnmL1796K7u5s1y5RSrFYruru7sXfvXrlDIZl1d3dHva/Vag36qaZarZZa4cW/nWLH2lDDXqpUKjgcDmzcuDFgnXgscV+9Xg+lUjnkcxABnPRsJKTC5Hj+2Mk2hRw9ehS7du3iHwJKSXa7HTk5Ofjud78b1ahQlBqee+45fPnll/jVr36FCRMmDGlfk8mElpYWn1pVsWYeuF7eKI75DQAWi0Ua4s9fbm5uwNjf3trb26HRaKRRRMT63FDnIApFnOV7yZIlcoeSsmw2GzQajdxhxBQ72aaI3t5e5OTkoKysDOvWrZM7HKK4qKmpkd7ERjqvQyp2UBtJgiCEHep0sGsbav3//u//4j/+4z+i6mQ7fvx4XLt2DVu3bsX27dtTtlMiO9mmjuF01mxubsaaNWtw4sQJzJw5M14hpq3Ozk4sXLgQdXV1WLFihc86drIl2RmNRuTl5TG5j5I4lrX4yM/Pl9YJguAzdnZ+fr7P9nq9XtpWHAtb3E4cL1tc7n0cllEN3bp165CXl8d6/BHm/bvh/8jIyPB5jBo1yucxevTooI8f/OAHGD06ug+Rd+/ejYyMDDz11FMxfqZEiWfFihXYvHkzli5dis7OTrnDSSmdnZ1YunQpNm/eHJDcJzuW6KQAu92OkydP4tixY3KHkrTMZjNqa2uh1WphtVqljndiB7pPPvkEHo9HGkoPuN4yKW4rdpLLz8+XxrjW6/UBU3u3trb6HKegoICjCQxReXk5lixZIo2uQ/GXaJPePfTQQ7BYLLhw4YLcoRCNiB07dgAAFi5ciMLCQhiNRuTk5CAzM1PmyJJPf38/2traYLPZ0NDQgM2bN0vXN5WwBT/JuVwuGI1GlJaWyh1K0nK5XPB4PFIdbEFBQcA2Ykc6cRvxZ3Fbl8sFp9OJrq4uKdkPNjLG448/Lh1HpVKhsrIyxs8mPZSWlsJoNKK1tVXuUChKO3fuDPvJABD+k4MLFy4wuaG0smPHDtTV1WHcuHF48MEHMWbMmLC/I3wEf4wZMwYPPvggxo0bh7q6upRM7gG24Cc9tVoNm82G8vJyqWWZhkatVkOv18PhcMT82AqFwufn+fPnx/wc6ai8vBw2my3o9OiUPMxmc9QTXU2dOhWff/55vEIjSkgrVqxIuVISig+24KcAg8GABQsWsBU/Sk6nEw6HA+3t7dLY2LHS1dXl8/OpU6ek78+fP4/Zs2fH7FzporS0FAsWLGB5Thrbt28frly5gjFjxsgdChFRQmKCnyJsNhuamppQU1MjdyhJS6yFLy4ujmp/rVYLhUIhdboN1on2wIEDACCV8wQrB6LQampq0NTUBJvNJncoJKMnnngCV65cwSOPPDLsY4kd4L1/X8VO9N6d7QFg0aJFEATfcev9O+h7d7oHgpcZ+R+XiCjWmOCniKysLNhsNhiNRpw+fVrucJKKWA8v/vNdu3YtFAoFDh06NORjud1uOBwOCIKAl19+OaBEB7j+D1+n06G2tpYdbIfg9OnTMBqNsNlsEQ+RSannN7/5DR577DF8/vnn2LNnz7CPV1lZCZVKhZaWFp/lCoUioJN8R0eHz++0Xq+H2Wz2mZXW4XAEJPm1tbU+27hcLo6iRURxxRr8FLJy5UqUlZXBYDDgL3/5i9zhJJXjx4/7/GwymaTv/euAvX9Wq9Vh1/vPmrlnzx4cPnx42PGmI4PBgLKyMk5yleY2bdqE7OzsmB2vvr4ehw8fDjrJjUqlgtPplCa7UqlUOH/+vLTe4XD4TJQFXE/mdTodHnjggZBv4NVqNc6ePRuz50BE5I8t+Clmy5YtyM7O9klQiZKdyWRCdnY2tmzZIncoJLNYJvculwvTpk2DWq3G6tWrA1rVc3NzceTIEQDAkSNHfDp1i2U6/rPQiqV64T4BbGxsxKpVq2L1NIiIAjDBT0E2mw3V1dWor6+XO5S053a7YTKZpJZ+luQMXX19Paqrq1l3TzFXWVkpJe3Lly8PKNNZtWqVNBRra2urT1J+5syZoCV4weh0Op8a/JKSkoA3BkREscQEPwUplUppEiC32y13OERRc7vdMBgMsNvtAeVORMPV2toq9Zkxm80BNfdarRYdHR0Artffeyflc+bMCRglKxT/Gvxgc2QQEcUSE/wUVVRUhOLiYhiNRrlDIYqa0WhEcXExioqK5A6FUozL5UJHR4c0PK7H44FCoQgo01GpVNDr9VCpVD7LxWRfLNVxOp2wWq3SCFkskyQiObGTbQqzWq344Q9/iL1790ZVu7x9+/Y4REXpKJrX0t69e9Hd3c3RRiguxNFzvMvm1Go1WlpasHz5cmlZbm4uHA4HSkpKAo5RUlICnU4HrVaL+fPn46GHHkJXVxcsFsuIPAciolDYgp/i7HY7du3ahaNHjw5531SdvjndjfR9jeZ8R48exa5du2C32+MQEdH1vh3+MyEvX748oExHrLsP1im2qqoKFosFgiBAo9Ggq6sLJSUlMJvNAUNlEhGNJGHevHke72H9xO/FjyyDLfvoo49GPlKKWk1NDXbt2oW2trYhjR8+2FTxlJxG+r4O9Xy9vb3IyclBWVkZ1q1bN+LnJ1/xun47d+7EwMAAdu7cOazzBtsuEe65y+Uadqf6SJ9bIjxfCm84r2eSj1z3TRAEzJo1S+qYLy4Tv/ov8/8eYAt+Wli3bh3y8vJYj09JwWg0Ii8vLybJPZFcOGIWEcmJCX6aKC8v///t3X9MVHe+//HX9FpXNsXke81l/HXbGrFdslUvjK3YW7JuhJW9Qkiut70rrIrB3e5MlXg3d70KGMsy1rvEpFlcZ+7dasRaILstTQgYa2E3dP1RXDtQbe/SHzTVporY3DSVm9LU1vn+4c6U3wwwM2fmM89HMnEYzpzzZmaE13zmc94fdXd3M+UBMc3r9aq7u1s1NTVWl4I4d+vWLatLmJZ4rx+AtQj4CcTj8cjlcqmzs9PqUoAROjs75XK56HePaXM4HPL5fFaXMS0+n08Oh8PqMhBjTp8+rZ/+9KdasWLFkLUVuEzusmLFCv30pz/V6dOnrX5KI4aAn0AyMjKCIR+INYFwn5GRYXUpiHOB33XxjP8LGG7v3r0qKCjQF198Ia/XO2RtBS6hX7788kv95je/0RdffKGCggLt3bvX6qc2ImiTmWCcTqf+/Oc/q7S0lGkQiBmlpaVKS0uT0+m0uhQYYOPGjSooKNDVq1e1YMECq8uZtKtXr6qlpUVNTU1Wl4IYsXfvXh09elRvvfVWXL6mY8ndd9+tzMxMZWZm6urVq1q1apUk8zoHzrh166shZ/4O6ZijoV10NKizDuKXx+ORw+FQXV0dJzLCcnV1dWpra4v7KRWIHVlZWdq+fbtWrVql119/Pa4CUSBwbN++XVlZWVaXgxhw+vRpHTx4kHAfAQsWLNDrr7+upUuXKjs7O6b+z3311Vd3OuMM76Kj0LrozLj77hljB/wx2mQiviUlJcnj8aigoEArV65Uamqq1SUhQfX09MjlcqmpqWlSLVyBiQRG45YuXaq8vDy5XC45HA7dfffdFlc20q1bt+Tz+eTxeNTS0qLt27cbN5qIqTt+/Ljy8vII9xGyYMEC5eXl6fjx4zEV8GfMmBH9NplWnxxhwsVqq1evVnl5OVMiYCmn06ny8nKtXr3a6lJgoMrKSjU1NWnWrFnatm2bZs6cafnv/tEuM2fO1LZt2zRr1iw1NTUR7jFEoAEBIsfEBiRTWujqo48+YiR/Gmy22FnIYv369UpLS5Pb7R7xvViqE+ET7ed1rONVVFSou7tbjY2NlhwfoYnU4xfJha5MNtrPm2iPQTyazuvZZrPpyy+/jMlPn0xx69YtzZw5c8r/t8L9f9Bmm/5CV5xkm+AC8/FXrlyp/Px8q8tBgmhublZtbS3z7gEgBIT7yDLx8aVNZoKz2+3yer1yOp3q6+uzuhwkgL6+PjmdTnm9XtntdqvLAYCEMto0sdzc3Anv19XVJZvNpq6urjG/19DQMOT6VPeH6SPgQ/n5+SouLmaOH6LC5XKpuLiYT4wAwCL19fVDesN3dXWNOlV3KtLT0+X3+7Vhw4aw7A9TQ8CHJMntduvmzZuqrq62uhQYrLq6Wjdv3gzbHxIAwPSlp6fr8uXLI0bVRxtl3717d3Dkf7Tf5cNH8Ldu3Trk04Lh9zl06FDwe1u3bh3yvcH3C9TQ0NAgm82m5cuXx0TTklhFwEeQ1+vVvn371N7ebnUpMFB7e7v27dsnr9drdSkAgEFOnTqlNWvWhLRtb2+v/H6/6uvrtWfPnnGn2HR1denIkSPBTwo6Ozu1Z8+eIdt8/PHH8vv9qqqq0pEjR4K32+12lZSUBL83fGXnxx9/nJPLx0HAR1Bqaqo8Ho9cLpcGBgasLgcGGRgYkMvlksfjYd0FALBYYWHhkNHxkpKSkKfU7Nq1S5K0YcMGLVu2TIcOHZrwPoE3AYHpO4Pt379fkrRu3brgtg0NDbpx44YOHz4s6U7XtZSUlCGj/4HtMToCPoYoKipSdnY28/ERVi6XS9nZ2aycDAAxYPgc/ECQDsV3vvOdkLdNT09XfX29MjIyxp3WM5bBb0Ju3Lihy5cvh3zfREfAxwg1NTXq7u62ugwYpLu7WzU1NVaXAQCYpnfeeSd4/fr167r//vvH3X7Dhg0jpuiE0jknJSVlyJuQyb4RSXQEfIzK4/FYXQIMwusJAGJfenq6JOnEiROSNOr0m2PHjklScBrNeFNl3G73qO2QA8cZS2C6UGC0P3Bi7UStN/ENAj5GlZGRwcmQCAuPxzPi5KhYMdYfn3DKzc0d8jHzaH+gwtUPOvBHkL7SAKaqqqpKe/bsGbdDjc1mU2Fhoerr68cN6xUVFUpPTw/+/svIyFB9fX1IdfT19QXrKCwsVFVVFa03J8G2ZMkS/+ATHgLXAx+HjHbbRx99xJnL08Cy4rBSor3+xvp53W639uzZo5SUlIgt8uZ2u/Xiiy/q4sWLku60iwt0lBisq6tLGRkZ6uzsnHBkazwNDQ0qLCyc9n4Gi9Tr5Ze//KW++uor/fKXv5zWcXk9J95jEI+m83rm+Y2O6Tz24X6ObDab7r333uAbo8BtgX+H3zb8usQIPoAEtHz5ch08eFBVVVUTbjva6HsovaKlO6NXgXAvKTh/dKyPmUfrLz1Wz+eJPhUI/JyDP6GgpzQAJAYCPoCEc/HixZBG7Yf3YS4sLJzW9JdAEB/rY+bx+ksP7vkcSl25ubmaN29e8OekpzQAJA4CPgCMoqurSzdu3NBTTz0l6Zs+zIGTz6aisLBQJSUlY35/vP7Sg3tET1TX7t27JUmvvPKKJE27p3Rg1P+uu+4KXv7mb/4meJkxY0bwcvfddwcvM2fODF6+9a1vDbmE8ukJAGBqZlhdAADEokAruMFz2efOnTvlPsyBxWTGa/MWSn/p8epavHhx8LZTp06NWsNgw+8zlsHnZAW+Hu/6ZLYFAIQfI/gAMIpA2B489SWUns/DBebnV1VVTdjDOZT+0qHUtX//fpWUlCg3Nzd423R7Sg+evz/RSH4oo/izZs3SrFmzQj4+ACB0BHwAGEV6erpSUlKC02Tcbnew53MovaKlb7rj1NfXq6KiYsJjhtJfery6Bjt8+LBOnTqlhoYGekoDCWj58uXaunVr8OvA//vBU/NCaRUcShvfwQMA0z1ZfyrtfgP3wTcI+AAwhr6+Ph05ckQ2m0179uwZ0vM5lF7RgbnwhYWFQ/74jbdUeyj9pcera7DACbiB+9BTGkgcDz/8sD7++OPg13/4wx+0bNkynTlzJnjbmTNnlJ+fP63jDD6B3+/3q6SkhLAdA+iDbwF62sJKifb6S7SfN9ysevzC1X/69OnTOn78uDo7O+Xz+cJZYlg5HA5lZGRo48aNysrKGnM7+qTHJyv64Dc0NGjHjh3BTlrLly/Xrl27Rr0t8GZ/cDAPrKcR+CRy7dq1wXN7qqqqVFFRMeYaHoFpiYFPLgfvt76+fsjgwuDv+f3+Eet5LF++XNevXw/WPFqNgdums64JffABAIgDe/fuVUFBgb744gt5vd4R5yDEyuXLL7/Ub37zG33xxRcqKCjQ3r17rX7oYIBAiA5Mdbl+/fqI2y5duhS8baJWuqO18U1PT9eyZcuUkZEx5JNJv98fDPfjtfW12+2qqqoKjvwPPm9ICr3db2B13EgtWhiPGMG3AKMtsFKivf4S7ecNt3gdwd+7d6+OHj2q119/XQsWLIhEiRFx9epVrVq1Slu2bFFlZeWI7zOCH5+sWsk2NzdXjz32mBYvXqxjx47plVdeUW5urhYuXKg1a9boP//zP3Xx4sXgqPng49jtdm3fvl3r1q0LnksUeDOwfPlyPfzww8ET9QMrgweMN8If2O/ixYtHHLOrq0vvvPOOCgsLtXbtWklD2/2OVeNo+5osRvABAIhhp0+f1sGDB+Mu3EvSggUL9Prrr+vgwYM6ffq01eUgzj322GM6c+aM/vCHP2jhwoXB2z7++GN98MEHevjhh4dsP/hcoRs3bgxpCzxeG9+KiorgIHBghL+hoWHS7YaHn0s0VrvfsWrENwj4AACjHD9+XHl5eXEX7gMWLFigvLw8HT9+3OpSEOfWrVunrq4uXbhwQWvWrBly25kzZ4K3SRO30h2tja/b7dby5cuHHHPDhg1KSUnRBx98MK12w5Fo95tICPgAAKN0dnbK5XJZXca0uFwudXZ2Wl0G4lx6errmzp07ZP59YJS8t7c3eFsorXRHa+NbUVGhS5cujWi9Obil8FhtfQPHDBxj69atI1p20u536piDbwHmS8JKifb6S7SfN9zicQ6+zWbTl19+qbvvvjtS5UXcrVu3NHPmzJDmBPMaj31WzcGX7gTnCxcu6OLFi+PeFjhWwPB59IO76IzXCUfSqF11AgbfN7DvgNG66ATm9wceg9FqHHz7VB8r0+bgE/AtwC9jWCnRXn+J9vOGW7wGfBOe81B/NlN+XpPxeo59pgV8pugAABJeNFf9BIBII+BjTP/1X/9ldQkwgNfrtboEYELRWvUTmIpbt25ZXYLRTHx8CfgYVWdnp5xOp9VlwACcLIh4sGbNmiGj7hcuXNCuXbuG3Nbb2zuk68jgdn3DR+x3794d/N7gTwGAyXI4HDG9CrMJfD6fHA6H1WWEFQEfo4r3DhSILbyeEOuiseonMBUZGRnyeDxWl2E0j8cz4v9wvCPgY4TS0lKlpaVZXQYMkpaWptLSUqvLAMaVnp6uEydOqKGhIdgBJD09XYcOHVJDQ4OWLVsm6Zs2gYH+2xUVFUpJSRkyUr9r1y5Jd944LFu2LNgmEJisjRs3qqWlRVevXrW6FCNdvXpVLS0t2rhxo9WlhBUBH0PU1dWpra2N0QKElcfjUVtbm+rq6qwuBRhTtFb9BCYjKytL27dv16pVqwj5YXb16lWtWrVK27dvV1ZWltXlhBUBH0E9PT1yuVzyeDxKSkqyuhwYJCkpSR6PRy6XSz09PVaXA4wq0qt+AlNVWVmpLVu2aOnSpdq0aZM6OjqMPDE0Gm7duqWOjg5t2rRJS5cu1ZYtW1RZWWl1WWFHwEeQ0+lUeXm5Vq9ebXUpMNDq1atVXl7OyduIWZFe9ROYjsrKSjU1NWnWrFnatm2bZs6cOeRTJC6hXWbOnKlt27Zp1qxZampqMjLcS3EW8EfrLxy4bbwuBbm5uUOeXJY1HqmiokKzZ8/Wzp07rS4FBtu5c6dmz54dXHkQiDUPP/yw5s6dO+S20Vpj9vX1ac+ePbLZbCosLFRVVdWQlT0lBb9XX18/ZFVPYKqysrL029/+Vm+88caIT5C4hH5544039Nvf/ta4aTmDzbC6gOk6dOjQiF7Fg7nd7mA3A+nO8syFhYUjfhEnsubmZtXW1tKGC1Hh8XjkcDi0cuVKeooj5gyeZjPebdI3q7wPlp6ezqqjACwXVyP4owmE01OnTo36/YqKCl28eDH4deAXNaP4d/T19cnpdMrr9U64QiMQDna7XV6vV06nU319fVaXAwCAceI64Hd1dWnu3LlKT0/X2rVrQ1pMJBDsGcG/w+Vyqbi4mJFURFV+fr6Ki4vpjw8AQATEdcA/dOhQsG1ZoL3ZRAoLC1VSUhLp0uJCdXW1bt68ySqLsITb7dbNmzdVXV1tdSkAABglrufgX7hwQZcuXdKRI0dC2t5ms6mkpGTM+ZSJpL29Xfv27WPePSzl9XrlcDj0yCOP0L0JAIAwidsR/K6uLl26dEmdnZ3Bs6KHryQ4eFubzaaqqirCvaSBgYFgv/vU1FSry0ECS01NDfbHHxgYsLocAACMELcBP9A9Z3DrsfT09BHTdLq6upSRkaH6+npa8/2Vy+VSdna2ioqKrC4FUFFRkbKzs5mPj6ga3ht7OgJ98Ae3cA71PgAQCXEb8Jubm0csG/7YY4+N6Kaze/duSXfm3g/+ZZ6o8869Xq+6u7tVU1NjdSlAUE1Njbq7u+X1eq0uBQnAbrerpKQk+OlvSUkJYRuAUWxLlizxD+7ZG7ge+MU32m0fffQRfX6nwWazWfL4dXZ2yuFwyOfzKSMjY8LtraoTkRXt5zXU40329Rnu42N0Vj1+oR53tO3Gu2/gU93Ozs4hnwAHpnEGPukdHPjr6+uHdF4b/D2/36+GhgYVFhYG97l8+XJdv3492AZ28PaBbQK3paSkjNkuNtSfjdd47JvO6xnWsep5s9lsuvfee4d8wjj43+G3Db8uxfEIPiYvMO8+nOEJCJeMjIzgfHwgUtLT07Vs2TJlZGQM+STX7/cHw/3gEf6qqioVFhYGp9/Y7XZVVVUFR/5zc3OH7D83N1fz5s0Lhvbh+wr8/q2vr5ck1oIAEBGM4FvAinfopaWl6u/v19GjR0O+DyMJZorVEfyALVu2KDk5OWzTyHgdT49pI/gBbrdbe/bsCX4dGL0fbYTfbrdr+/btWrx4sQoLC4fsu6urS++8844KCwu1du1aSdIrr7wiScGR/cHbj7evqf5svMZjHyP48YkRfMS0uro6tbW1yePxWF0KMCGPx6O2tjbV1dVZXQoMVlFRERy0qq+v1549e9TQ0KB33nlHkoZM35k7d64uX7486n4Gbydp1FXVB5//dePGjTH3BQDhEtd98DGxnp4euVwuNTU1KSkpadL3f/rppyNQFawWy89rUlKSPB6PCgoKtHLlSlq5IqzcbrdefPFFXbx4MXjbhg0btGPHDn3wwQdat26dpDsj84Hwfv36dd1///0T7nv//v1auHChcnNzg6P4Y82xD6yqDgCRwAi+4ZxOp8rLy6e0iNDevXsjUBGsFu3ndSrHW716tcrLy+V0OiNQERLDcf6wAAAgAElEQVRZRUWFLl26NGT+vdvt1o0bN7Ru3Tqlp6crJSVFhw4dGvG9wIm2gXC+detW2e32Ifs/fPiwTp06pYaGhuD2gWMFWmMS7gFEGnPwLRCtOXYVFRXq7u5WY2NjxI8FRML69euVlpY2rba2zGmdHivn4N++fXvC9pVTnZM+fL+jddUJGNxFJzBHP2C0LjqB+f2BGgbva7ROPWPVyhx8czAHPz6F8nz4/X7dddddMTcHn4BvgWj8B25ubpbT6ZTP5xsxwgTEi76+PjkcDnm9XuXn509pH/zBnB6rHr/Zs2fr448/1uzZs8fdzuTAS8A3BwE/PoXyfNy8eVMLFy7UzZs3w3pcTrLFCH19fXI6nfJ6vYR7xDW73S6v1yun00k7wQSTnJys/v5+q8sAgHH19/frnnvusbqMEQj4BnK5XCouLp7yiCcQS/Lz81VcXEx//ARzzz33TCvg37p1K4zVRF+81w8kiv7+fiUnJ1tdxggEfMNUV1fr5s2b05qzDMQat9utmzdvqrq62upSECXJycn67LPPpnTfwIrI8czn88nhcIS07Zw5c/TJJ59EuCJM1SeffKI5c+aEvP3t27cjWA1CFerz8NlnnxHwEVnt7e3at2+fvF6v1aVA33TMGH4dU+P1erVv3z61t7dbXQqi4IEHHtB77703pfsGVkWOZ5NZdXz+/Pnq7e2NcEWYqt7eXs2fPz+kbXkuY0eoz9t7772nBx54IAoVTQ4B3xADAwNyuVzyeDz0DYeRUlNT5fF45HK5NDAwYHU5iLAHH3xwygF/48aNamlp0dWrV8NcVXRcvXpVLS0t2rhxY0jbz5s3T9euXYtwVZiqa9euad68eSFty3MZO0J93t599109+OCDUahocgj4hnC5XMrOzlZRUZHVpRjBZrNp69atwbPVc3Nz5Xa7g19v3bo1uG1XV9eQ7ex2u9xutwoLCyXdOVF08HVMXVFRkbKzs5mPnwAefPBBvfvuu1O6b1ZWlrZv365Vq1bFXci/evWqVq1ape3btysrKyuk+zgcDp0+fTrClWGqTp8+HfJ0q/nz57PScYy4fPlyyCP4BHxEhNfrVXd3t2pqaqwuxSgff/xxcBn7U6dO6cyZM/L7/aqqqtKRI0eC2+Xm5qqkpER+v18LFy7UjRs3JN3pnS3d6Wo0+Dqmp6amRt3d3UxFM9yDDz6oS5cuTfn+lZWV2rJli5YuXapNmzapo6MjZk9cvXXrljo6OrRp0yYtXbpUW7ZsUWVlZcj3z8vLU0tLSwQrxHS0tLQoLy8vpG3Xrl2rEydORLgihOLEiRNau3bthNtdunSJgI/w8/l8crlcKi0ttboU42zevFmSggvcBL4evJR9Q0ODbty4ocOHD0tS8F9EVmlpqVwul86fP291KYiQ9PR0ff3113rzzTenvI/Kyko1NTVp1qxZ2rZtm2bOnBn8tC2WLjNnztS2bds0a9YsNTU1TSrcS9Kjjz6qTz/9VCdPnpzyY4XIOHnypD799FM9+uijIW3Pm7XYEcobszfffFNff/31kEXyYsUMqwvA9DgcDnk8HtXU1ASngcBaKSkpVpdgvJqaGnk8Hq1cudLqUhBBgbDzD//wD+Nud/v2bd111+jjVVlZWSFPdYl143X12Lp1q373u9/phz/8YRQrwkR+97vfDZnSOZH77rtPaWlpqqurY8qtherq6pSWlqb77rtv3O0m8+lMtDGCbwCn06m0tDRG8WNEYIoOIqO0tFRpaWlyOp1Wl4IIW7du3YTTFRKp68h4XT3KysrU1tamc+fORbkqjOXcuXNqa2tTWVnZpO5XVlamZ555JkJVIRTPPPNMSM/biRMngp/qxxoCviE8Ho/a2tpUV1dndSkJZcOGDUpJSQmO0LD+QGTV1dWpra0t7lsgIjTZ2dl6//33deXKlTG3WbRokd5+++0oVmWdt99+W4sWLRr1ezNmzNDu3bv19NNPR7kqjOXpp5/W7t27NWPG5CZL/PCHP9SSJUs4r84iNTU1WrJkyYSfhl25ckXvv/++srOzo1TZ5BDwDZGUlBRsIdjT02N1OQmlr69PR44ckc1m04svvhicohOYu2+z2YZcx9T09PQEW8EmJSVZXQ6iZKI5yaGM8oebVed+TDRa+NRTT2nu3Ln62c9+FsWqMBqn0ym73a6nnnpqSvd3u93as2cP51VE2cmTJ7Vnz56QButieXqORMA3yurVq1VeXs7UhTDw+/3BUD786/T0dPn9/iEn1fj9fvn9fl28eHHEfvx+/4jrmDyn06ny8nKtXr3a6lIQRRMF+CeeeEKHDx/WhQsXolKP1+tVZmZm1Ls4XbhwQYcPH9YTTzwx7nbPP/+83nrrrZgOHqbLy8vTpUuXdPz48Snv46GHHtLzzz+vzZs369VXXw1jdRjLq6++qs2bN+v555/XQw89NOH2sTw9RyLgG2fnzp2aPXu2KioqrC4FCJuKigrNnj1bO3futLoURFleXp5effXVMefZL168WM8++6x+/vOfR7SOgYEBbdmyRceOHVNdXZ2OHTumLVu2RG3RtZ///Od69tlntXjx4gm3feGFF/Tpp58y2GOBn/3sZ/r000/1wgsvTHtfBQUFKisr049//GNG8iPs5MmT+vGPf6yysjIVFBRMuH1vb69effXVmH4jTcA3kMfjUW1trZqbm60uJSH19fXxBiuMmpubVVtby7z7BJWUlKQdO3Zo//79Y27z5JNPym636/vf/35Eamhvb5fD4VBycrI6OjpUWFiojo4OJScny+FwqL29PSLHDfj+978vu92uJ598MqTtFy1apLNnz+r//u//9IMf/IATb6Pg3Llz+sEPfqDPP/9cZ8+eHfNcicnasWOHnnvuOf3oRz9iTn6E1NTU6Ec/+pGee+457dixI6T77N+/Xzt27Ijp6aIEfAPZ7XZ5vV45nU4WVkJc6+vrk9PplNfrZRXgBFZWVqba2tpxT6b1er2aM2eOsrKywjpdp7q6WgUFBSovLx8RsGpqalReXq6CggJVV1eH7ZgBFy5cUFZWlubMmTOlKUHHjx9XQUGBnnjiCRUXFzMKHAEnT55UcXGxnnjiCRUUFOj5558P+zEKCgp09uxZ/fGPf9R3v/tdmmmESV1dnb773e/qj3/8o86ePRvSyL1052T32traSXdHijbbkiVL/IPnBY82X3j4bR999BFziafBZrNF5fGrqKhQd3e3GhsbI34sIBLWr1+vtLS0aXUnitb/N1PFyuO3f/9+vfXWW8FVocfy3//93/q3f/s3bd26VevWrdNDDz2kefPmjdknfyx9fX1yuVy6efOmvF6vUlNTx9y2p6dHTqdTs2fPlsfjmfKb0du3b6u3t1dvv/22Tpw4ocOHD+vZZ58NeeR+LF999ZWeeeYZHT58WP/v//0/5eXlKSsrS/Pnz9e8efP0d3/3d9Paf6L45JNP1Nvbq2vXrun06dNqaWnRp59+qq1bt6qsrGzS3XKm4uTJk3rmmWfU3d2tvLw8rVu3Tvfff3/wuZzs6zwRBP5fXbt2TZcvX9aJEyfU0tKitLQ0lZWVTXrtiMLCQi1dulS7d++OUMV3fu/ee++9wcXwArcF/h1+2/DrEgHfEtH8g5mTk6OcnJwpzV2m3RrCZSqvperqarW2tqq1tXVax46VgBqvYunxW7RokWpra/W9731v3O0++OAD/f73v9eJEyf04Ycf6tq1a5M+1re+9S1t27ZNBw4cCPk+FRUVevbZZ/X5559P+ngB8+fP16JFi7Ru3To98cQTIc25n4xz586ppaVFPp8vGHr+93//N6zHMNWcOXOCQdrhcCgvLy/kFWrDLRBUT506pWvXrgWfS4wu8LzNnz9fa9euDb4xmqzXXntNxcXF+vDDDyNQ5TcI+HEqmn8we3p65HA41NTUNOnuIzabTXv37o1QZbBKZWVlVJ/XysrKSb/e29vbVVBQIJ/PN+7IaShiKaDGo1h6/J577jm99NJLOnXqVMSOUVFRodraWnm9XuXn50/6/s3NzXI6nSouLmZdDMAwa9eu1b/8y7/oJz/5SUSPQ8CPU9H+g1lXV6d9+/bJ5/NN6oSQWPrDjvCJ9vM62eMNDAzI4XCovLw8LEu18zqenlh7/FasWKHdu3dr/fr1Yd1vuKbZSJOb3gMgPjQ2Nmr//v164403In6scAR8JmslgKKiImVnZ8vlclldCjAhl8ul7OzssIR7mKesrEy/+MUvwjodoa6uTg6HQzk5OWpsbJz2Cd12u12NjY3KycmRw+HgpEggzl27dk2/+MUvYv7E2sEYwbeAVSNimZmZ2rx5c8i9kWNt5A7hEcsj+F6vV8eOHVNHR4clx8dIsfj4VVZW6vTp02pra5v2vkpLS9XW1iaPxxORRdTa29uDb1ppcwjEp+zsbGVlZUVteisj+JgUj8cjl8ulzs5Oq0sBRujs7JTL5aLfPSa0d+9eLViwYFrdZTo7O5WZman+/n75fL6IrZC8evVq+Xw+9ff3KzMzk9+/QJx58skntWDBgrg7J5GAn0AyMjKCIR+INYFwn5GRYXUpiAPHjh3TX/7yF/3qV7+a9H29Xq8cDoc2b96so0ePRnyxmqSkJB09elSbN2+Ww+GYUk97ANH3q1/9Sv/zP/+jY8eOWV3KpDFFxwJWf+S9ZcsWJScnT/hxsdV1IjJicYpOaWmp+vv7dfToUUuOj7HF8uP34Ycf6h//8R/161//Wo8//viE2w8MDMjlcqm7u9uyN5OBT6rS0tLk8XhieiVMIJG99NJLKi0tDevKxKFiig6mxOPxqK2tjRO/EBPq6uqCc6Aj5fbt2xHbt8li/XFbtGiRjh8/rk2bNk24AFZ7e7scDoeSk5PV0dFh2SdFGRkZ6ujoUHJyshwOh9rb2y2pA8DY6uvrtXHjRh0/fjzq4T5cCPgJKCkpKThVp6enx+pykMB6enqCU3MiNZI5b9489fb2RmTfpuvt7dW8efOsLmNca9as0cGDB1VSUqKXXnpp1G2qq6tVUFCg8vLymDnRtaamRuXl5SooKFB1dbXV5QD4qxdffFElJSU6ePCg1qxZY3U5UzbldZWHfxSA+LJ69WqVl5fL6XROe6VQYKqcTqfKy8sjdoKjdGcFw2vXrmnBggURO4apent7NX/+fKvLmNDWrVu1aNEibdy4UR988IH+4z/+Q9LQfvThWDQt3IqKirRy5Uo5nU6dP39+2v33AUzPr371K/36179WS0tLXId7aYoj+IG5+FymfokFO3fu1OzZs1VRUWF1KUhAFRUVmj17tnbu3BnR46xYsUJ/+tOfInoMU7322mtasWKF1WWEZM2aNTp79qyam5v15JNPqrm5WQ6HQ2lpaWptbY25cB+Qmpqq1tZWpaWlyeFwqLm52eqSgIT05JNPqqWlRWfPno37cC8xRSfheTwe1dbW8kcFUdXc3Kza2tqotMTMy8tTS0tLxI9jopaWFuXl5VldRsgWLVqkM2fO6I033lBxcbG8Xq/cbrfVZYXE7XbL6/XK6XQy6AJE0bVr15Sdna0vvvhCp0+fjts598MR8BOc3W4P/lHp6+uzuhwkgL6+PjmdTnm93qhMR8jLy9P777+vs2fPRvxYJjl79qzef//9uAr4PT09ysnJ0f3336+//OUvys/Pt7qkScnPz5fP51N3d7dycnI4RwqIsMbGRj322GPKysqKy1aY4yHgQ/n5+SouLqY/PqLC5XKpuLg4quGrrKxM+/fvj9rxTLB///64Wpa9rq5ODodDOTk5amxsjNu57Ha7XY2NjcrJyZHD4aDbGRABr732mtauXav9+/frwIEDcbeIVSim1Af/ypUr0a8UEZeTk6OcnJzgnOhY7n+NqbOyD351dbVaW1stObH70Ucf1T//8z/r3//936N+7Hhz4MABvfzyyzp37pzVpYSktLQ02Go1kidsR1t7e7tcLpeys7NjpvsPEM/efvttPfPMM3r99ddVVlamn/zkJ1aXNCr64COsvF6v9u3bR19mRER7e7v27dtn2Sqex48f14EDB7Rr1y5Ljh8vdu3apQMHDuj48eNWlzKhzs5OZWZmqr+/Xz6fz6hwL93pdubz+dTf36/MzEx1dnZaXRIQl3p7e1VaWqpHH31US5cu1Ycffhiz4T5cCPgISk1NDfbHHxgYsLocGCSwgqjH47Gsm8nixYv1wgsvqLa2VgcOHLCkhlh34MAB1dbW6oUXXtDixYutLmdcXq9XDodD58+fV21trb797W8HR7amenn66afDWuPTTz897Zq+/e1vq7a2VufPn5fD4bDsDTIQb65cuaJDhw7pn/7pn/T3f//3mjlzpi5fvqzdu3dbXVpUEPAxRFFRkbKzs5mPj7AKTDMoKiqytI7s7GydPXtWL7/8svLy8jjx9q/Onj2rvLw8vfzyyzp79qyys7OtLmlCTqdzWq2KP//8c/3+97/X5s2bNWfOHC1cuDAide7duzesLZadTmdE6gRM8Oabb8rtdmvVqlVyOBy6cOGCtmzZov7+fh04cEB/+7d/a3WJUTPlha5grpqaGmVmZlpdBgzS3d2tjo4Oq8uQdGck/9y5c/J4PPrXf/1XLVmyRHl5efre976nefPmad68ebrrLnPHPm7fvq3e3l5du3ZNf/rTn9TS0qL3339fZWVlCfXGPikpSY8//rgef/xxSdKmTZssrgjAePx+v/r7+4OXzz77TO+9957ee+89vfvuu7p06ZK+/vpr5eXlqaqqKi4GKiKJk2wxqs7OTjkcDk6yNZAVJ9n6fD5lZGRE7ZiT0dLSopaWFr3xxhu6du2aent7rS4p4ubNm6f58+drxYoVysvLi6tWmJESmJ4Tzmk6Tz/9tCorK8O2PyDRJScnKzk5Wffcc4+Sk5P1wAMP6MEHHwxe0tPTrS4xLMJxki0j+BhVRkZGVBYhgvk8Hk/MhntJBFxE1N69e8M+tx8AJmLu59CYNuZ6Ihx4HQEAEF0EfAAAAMAgBHwAAADAIAR8AAAAwCAEfAAAAMAgBHwAAADAIAR8AAAAwCAEfAAAAMAgLHQFJKDhK94BuLMoVbhVVlaymi2AqCPgAwnG7/dbXQIQcyK12iwr2QKYivvuu29a92eKDgAAAGAQAj4AAABgEAI+AAAAYBACPgAAAGAQAj4AAABgEAI+AAAAYBACPgAAAGAQAj4AAABgEAI+AAAAYBACPgAAAGAQAj4AAABgEAI+AAAAYBACPgAAAGAQAj4AAABgEAI+AAAAYBACPgAAAGAQAj4AAABgEAI+AAAAYBACPgAAAGAQAj4AAABgEAI+AAAAYBACPgAAAGAQAj4AAABgEAI+AAAAYBACPgAAAGAQAj4AAABgEAI+AAAAYBACPgAAAGAQAj4AAABgEAI+AAAAYBACPgAAAGAQAj4AAABgEAI+AAAAYBACPgAAAGAQAj4AAABgEAI+AAAAYBACPgAAAGAQAj4AAABgEAI+AAAAYBACPgAAAGAQAj4AAABgEAI+AAAAYBACPgAAAGAQAj4AAABgEAI+AAAAYBACPgAAAGAQAj4AAABgEAI+AAAAYBACPgAAAGAQAj4AAABgEAI+AAAAYBACPgAAAGAQAj4AAABgEAI+AAAAYBACPgAAAGAQAj4AAABgEAI+AAAAYBACPgAAAGAQAj4AAABgEAI+AAAAYBACPgAAAGAQAj4AAABgEAI+AAAAYBACPgAAAGAQAj4AAABgEAI+AAAAYBACPgAAAGAQAj4AAABgEAI+AAAAYBACPgAAAGAQAj4AAABgEAI+AAAAYBACPgAAAGAQAj4AAABgEAI+AAAAYBACPgAAAGAQAj4AAABgEAI+ACDueL1e2Wy2sF0qKysjUmdlZWVY6/R6vRGpE4BZbEuWLPH7/f7gDYHrfr9/yPXBt125ciX6lQIAMEhnZ6dcLpfS0tLk8XiUlJRkdUlhNzAwIJfLpe7ubnk8HmVkZFhdEoAouO+++4Jv7CUN+Xf4bcOvS4zgAwDiVEZGhjo6OpScnCyHw6H29narSwqr9vZ2ORwOJScnq6Ojg3APIGQEfABAXKupqVF5ebkKCgpUXV1tdTlhUV1drYKCApWXl6umpsbqcgDEGQI+ACDuFRUVyefzqbW1VevXr1dfX5/VJU1JX1+f1q9fr9bWVvl8PhUVFVldEoA4RMAHABghNTVVra2tSktLk8PhUHNzs9UlTUpzc7McDofS0tLU2tqq1NRUq0sCEKdmWF0AAADh5Ha7tXLlSjmdTp0/f15ut9vqkiZUUVGh2tpaeb1e5efnW10OgDjHCD4AwDj5+fny+Xzq7u5WTk6Oenp6rC5pVD09PcrJyVF3d7d8Ph/hHkBYEPABAEay2+1qbGxUTk6OHA6H6urqrC5piLq6OjkcDuXk5KixsVF2u93qkgAYgik6AACj7dy5U4888ohcLpfOnz8fE11pSktL1dbWpqamJq1evdrqcgAYhhF8AIDxVq9eLZ/Pp/7+fmVmZqqzs9OSOjo7O5WZman+/n75fD7CPYCIIOADABJCUlKSjh49qs2bN8vhcMjr9Ub1+F6vVw6HQ5s3b9bRo0eNXHkXQGxgig4AIKE4nU6tXLlSLpdLf/7zn+XxeCIatgcGBuRyuYIn0rIiLYBIYwQfAJBwMjIy1NHRoeTkZDkcDrW3t0fkOO3t7XI4HEpOTlZHRwfhHkBUEPABAAmrpqZG5eXlKigoUHV1dVj3XV1drYKCApWXl8fEib0AEgcBHwCQ0IqKiuTz+dTa2qr169err69vWvvr6+vT+vXr1draKp/Pp6KiojBVCgChIeADABJeamqqWltblZaWJofDoebm5intp7m5WQ6HQ2lpaWptbVVqamqYKwWAiXGSLQAAf+V2u7Vy5Uo5nU6dP39ebrc75PtWVFSotrZWXq+XFWkBWIoRfAAABsnPz5fP51N3d7dycnLU09Mz7vY9PT3KyckJdskh3AOwGgEfAIBh7Ha7GhsblZOTI4fDobq6ulG3q6urk8PhUE5OjhobG2W326NcKQCMxBQdAADGsHPnTj3yyCNyuVw6f/78kG44paWlamtrU1NTEyvSAogpjOADADCO1atXy+fzqb+/X5mZmaqvr1dmZqb6+/vl8/kI9wBiDgEfAIAJJCUl6ejRo9q8ebOKioq0efNmHT16NKIr4ALAVDFFBwCAEDmdTmVkZGjlypVWlwIAY2IEHwCASSDcA4h1BHwAAADAIAR8AAAAwCAEfAAAAMAgBHwAAADAIAR8AAAAwCAEfAAAAMAg9MEHAEk2m83qEgAYzO/3W10CEggBHwD+ij/AACKBAQREG1N0AAAAAIMQ8AEAAACDEPABAAAAgxDwAQAAAIMQ8AEAAACDEPABAAAAgxDwAQAAAIMQ8AEAAACDEPABAAAAgxDwAQAAAIMQ8AEAAACDEPABAAAAgxDwAQAAAIMQ8AEAAACDEPABAAAAgxDwAQAAAIMQ8AEAAACDEPABAAAAgxDwAQAAAIMQ8AEAAACDEPABAAAAgxDwAQAAAIMQ8AEAAACDEPABAAAAgxDwAQAAAIMQ8AEAAACDEPABAAAAgxDwAQAAAIMQ8AEAAACDEPABAAAAgxDwAQAAAIMQ8AEAAACDEPABAAAAgxDwAQAAAIMQ8AEAAACDEPABAAAAgxDwAQAAAIMQ8AEAAACDEPABAAAAgxDwAQAAAIMQ8AEAAACDEPABAAAAgxDwAQAAAIMQ8AEAAACDEPABAAAAgxDwAQAAAIMQ8AEAAACDEPABAAAAgxDwAQAAAIMQ8AEAAACDEPABAAAAgxDwAQAAAIMQ8AEAAACDEPABAAAAgxDwAQBGWr58uWw2m3Jzc8Oyv4aGBtlstrDsayw2m00NDQ0RPQYA882wugAAACLh0qVL8vv9VpcBAFHHCD4AwDiBkXabzabt27fLZrMFR/QHbxO4BEbNu7q6gqP+ge9t3bpVklRYWChJstvtYx4zcOnq6ppwf4O/H85PGgCAgA8AME5g5L6+vl6PPvqoJOnxxx8P3m6321VSUiK/36+qqioVFhYGQ/ngfVRVVenIkSPBfUlSX1/fiOMN319GRsaoNQ3enyTl5uYG7/fYY4+F4ScHAAI+ACBBrFu3TtKdUfMbN27oqaeekiRVVFQoJSVFJ06cCG67f//+EfcZS0NDg27cuKHDhw8P2Z/b7R53f6PVAQDhwBx8AEBCeeeddyRJ6enpwdvmzp2ry5cvT2u/w0/AnWh/o9WRkpIyrRoAQGIEHwCQYL7zne9IGjoqf/36dd1///1T3mdKSor8fv+QS2BEfzJ13LhxY8o1AEAAAR8AkFDS09OVkpKiQ4cOSZLcbrdu3LgRnD4zWRs2bAjuR/qmneZE7S4DdezevXvI/QFgupiiAwBIOH19fbLZbENOoE1PTx93rv2GDRtUWFgom802ov1mYH979uyRJFVVVWnDhg3j7m/w/Ww2m5YtW6Zly5ZN8ycDAMm2ZMkS/+BfVIHrgY8YR7vtypUr0a8UACJotNAGAOHA7xdM1n333Rd88y8Nbf07/Lbh1yWm6AAAAABGIeADAAAABiHgAwAAAAYh4AMAAAAGIeADAAAABiHgAwAAAAYh4AMAAAAGIeADAAAABiHgAwAAAAYh4AMAAAAGIeADAAAABiHgAwAAAAYh4AMAAAAGIeADAAAABiHgAwAAAAYh4AMAAAAGIeADAAAABiHgAwAAAAYh4AMAAAAGIeADAAAABiHgAwAAAAYh4AMAAAAGIeADAAAABiHgAwAAAAYh4AMAAAAGIeADAAAABiHgAwAAAAYh4AMAAAAGIeADAAAABiHgAwAAAAYh4AMAAAAGIeADAAAABiHgAwAAAAYh4AMAAAAGIeADAAAABiHgAwAAAAYh4AMAAAAGIeADAAAABiHgAwAAAAYh4AMAAAAGIeADAAAABhk34NtstmjVAQAAAGAMk8nljOADAAAABiHgAwAAAPZ45PcAAAIlSURBVAYh4AMAAAAGIeADAAAABiHgAwAAAAaZdMCnsw4AAAAQOdPN2yEFfEI9AAAAEH1TyeFM0QEAAAAMMqmAz0g+AAAAEHnTyd13TXcHAAAAAKwxWo4fcwQ/sDHhHwAAALDOZHP5iIA/1h0J/AAAAEDkTZS7J8rjM8JeEQDEKQYwAAAmsC1ZssQvSX6/P3jjaNcn+nf49dG+BgAAABLV8IGkwV8PH7Uf69/xrgfMGPzNQCAffH28Av1+/4j7SRrx9Vh4AwAAAABThPpJ8FhBP5T7TxTubTZb6FN0xgr0gduk0YP9eCGej8MBAACQCMYK4+Ndn2pWnjDgjxXoRxvtHx70p1MYAAAAYKLJTNUZbfuJDAn44wX34SPxk52aw3QcAAAAJJrxwvl4QX+020IN/eOO4E80HWcyU3MYyQcAAECim2qIn8z8/BEBf7wTbJmaAwAAAIRHKFN1QrnfcKOO4I83PWcqXXOYngMAAIBENVEgn2iqTijBf/DtIXXRGS/kD9/haGGe0XwAAADgG6GuUjuVHD1jrCk5Y4X4iebbT6YIRvYBAABgiqkOak80L3+i/Q+/PeSTbCe6LWAyoZ2RfQAAACSiyc6xn0xunhG4w3gn1kpjj9LTLQcAAACYnlBH50P5/ozB35xo1dmJ5tcz5QYAAAAIzVTCeyjfH3Ohq/F2MtFoPwAAAICpmUzP+9FMqg/+aDtk1B4AAACYnskMlE+07f8H6CjTYs5yXDwAAAAASUVORK5CYII=;" parent="1" vertex="1">
                    <mxGeometry x="-2180" y="-870" width="760" height="570" as="geometry"/>
                </mxCell>
                <mxCell id="1348" value="&lt;b&gt;service REST&lt;/b&gt;" style="swimlane;fontStyle=0;align=center;verticalAlign=top;childLayout=stackLayout;horizontal=1;startSize=30;horizontalStack=0;resizeParent=1;resizeParentMax=0;resizeLast=0;collapsible=0;marginBottom=0;html=1;strokeWidth=1;" parent="1" vertex="1">
                    <mxGeometry x="1680" y="507" width="190" height="78" as="geometry"/>
                </mxCell>
                <mxCell id="1349" value="attributes" style="text;html=1;strokeColor=none;fillColor=none;align=center;verticalAlign=middle;spacingLeft=4;spacingRight=4;overflow=hidden;rotatable=0;points=[[0,0.5],[1,0.5]];portConstraint=eastwest;" parent="1348" vertex="1">
                    <mxGeometry y="30" width="190" height="20" as="geometry"/>
                </mxCell>
                <mxCell id="1351" value="" style="line;strokeWidth=1;fillColor=none;align=left;verticalAlign=middle;spacingTop=-1;spacingLeft=3;spacingRight=3;rotatable=0;labelPosition=right;points=[];portConstraint=eastwest;" parent="1348" vertex="1">
                    <mxGeometry y="50" width="190" height="8" as="geometry"/>
                </mxCell>
                <mxCell id="1352" value="operations" style="text;html=1;strokeColor=none;fillColor=none;align=center;verticalAlign=middle;spacingLeft=4;spacingRight=4;overflow=hidden;rotatable=0;points=[[0,0.5],[1,0.5]];portConstraint=eastwest;" parent="1348" vertex="1">
                    <mxGeometry y="58" width="190" height="20" as="geometry"/>
                </mxCell>
                <mxCell id="1367" value="Expose" style="edgeStyle=none;html=1;entryX=0.5;entryY=0;entryDx=0;entryDy=0;startArrow=diamondThin;startFill=1;endArrow=none;endFill=0;startSize=9;endSize=9;strokeWidth=2;rounded=0;" parent="1" source="1356" target="1361" edge="1">
                    <mxGeometry x="-0.3782" relative="1" as="geometry">
                        <Array as="points">
                            <mxPoint x="-1684" y="54"/>
                        </Array>
                        <mxPoint as="offset"/>
                    </mxGeometry>
                </mxCell>
                <mxCell id="1379" value="Database" style="rounded=0;whiteSpace=wrap;html=1;strokeWidth=1;" parent="1" vertex="1">
                    <mxGeometry x="-990" y="243.5" width="120" height="60" as="geometry"/>
                </mxCell>
                <mxCell id="1376" value="Utilise" style="edgeStyle=none;html=1;entryX=0.5;entryY=0;entryDx=0;entryDy=0;startArrow=none;startFill=0;endArrow=none;endFill=0;startSize=9;endSize=9;strokeWidth=2;exitX=0.25;exitY=1;exitDx=0;exitDy=0;rounded=0;" parent="1" source="1358" target="1362" edge="1">
                    <mxGeometry x="-0.2" y="10" relative="1" as="geometry">
                        <Array as="points">
                            <mxPoint x="-750" y="203.5"/>
                            <mxPoint x="-790" y="203.5"/>
                        </Array>
                        <mxPoint as="offset"/>
                    </mxGeometry>
                </mxCell>
                <mxCell id="1361" value="REST" style="rounded=0;whiteSpace=wrap;html=1;strokeWidth=1;" parent="1" vertex="1">
                    <mxGeometry x="-1744" y="154.5" width="120" height="60" as="geometry"/>
                </mxCell>
                <mxCell id="1360" value="Websocket" style="rounded=0;whiteSpace=wrap;html=1;strokeWidth=1;" parent="1" vertex="1">
                    <mxGeometry x="-2164" y="154.5" width="120" height="60" as="geometry"/>
                </mxCell>
                <mxCell id="1382" value="Agit sur" style="edgeStyle=none;html=1;exitX=1;exitY=0.5;exitDx=0;exitDy=0;entryX=0;entryY=0.5;entryDx=0;entryDy=0;startArrow=none;startFill=0;endArrow=none;endFill=0;startSize=11;endSize=9;strokeWidth=2;rounded=0;" parent="1" source="1361" target="1266" edge="1">
                    <mxGeometry x="0.5963" y="-1" relative="1" as="geometry">
                        <Array as="points"/>
                        <mxPoint as="offset"/>
                    </mxGeometry>
                </mxCell>
                <mxCell id="1172" style="edgeStyle=none;html=1;entryX=0.5;entryY=1;entryDx=0;entryDy=0;endArrow=diamondThin;endFill=1;startArrow=none;startFill=0;startSize=9;strokeWidth=2;endSize=9;" parent="1" source="1170" target="1171" edge="1">
                    <mxGeometry relative="1" as="geometry"/>
                </mxCell>
                <mxCell id="1173" value="Appartient" style="edgeLabel;html=1;align=center;verticalAlign=middle;resizable=0;points=[];" parent="1172" connectable="0" vertex="1">
                    <mxGeometry x="-0.072" relative="1" as="geometry">
                        <mxPoint as="offset"/>
                    </mxGeometry>
                </mxCell>
                <mxCell id="1175" value="1..n" style="edgeLabel;html=1;align=center;verticalAlign=middle;resizable=0;points=[];" parent="1172" connectable="0" vertex="1">
                    <mxGeometry x="-0.88" relative="1" as="geometry">
                        <mxPoint x="-15" y="-3" as="offset"/>
                    </mxGeometry>
                </mxCell>
                <mxCell id="1176" value="1" style="edgeLabel;html=1;align=center;verticalAlign=middle;resizable=0;points=[];" parent="1172" connectable="0" vertex="1">
                    <mxGeometry x="0.866" relative="1" as="geometry">
                        <mxPoint x="-13" y="5" as="offset"/>
                    </mxGeometry>
                </mxCell>
                <mxCell id="1363" value="STOMP" style="rounded=0;whiteSpace=wrap;html=1;strokeWidth=1;" parent="1" vertex="1">
                    <mxGeometry x="-710" y="243.5" width="120" height="60" as="geometry"/>
                </mxCell>
                <mxCell id="1364" value="Websocket" style="rounded=0;whiteSpace=wrap;html=1;strokeWidth=1;" parent="1" vertex="1">
                    <mxGeometry x="-570" y="243.5" width="120" height="60" as="geometry"/>
                </mxCell>
                <mxCell id="1375" value="Consulte" style="edgeStyle=none;html=1;entryX=0.5;entryY=0;entryDx=0;entryDy=0;startArrow=none;startFill=0;endArrow=none;endFill=0;startSize=9;endSize=9;strokeWidth=2;exitX=0.5;exitY=0;exitDx=0;exitDy=0;rounded=0;" parent="1" source="1266" target="1358" edge="1">
                    <mxGeometry x="0.212" relative="1" as="geometry">
                        <Array as="points">
                            <mxPoint x="-1260" y="100"/>
                            <mxPoint x="-720" y="100"/>
                        </Array>
                        <mxPoint as="offset"/>
                        <mxPoint x="-2290" y="339.4599999999996" as="sourcePoint"/>
                    </mxGeometry>
                </mxCell>
                <mxCell id="1357" value="MQTT" style="rounded=0;whiteSpace=wrap;html=1;strokeWidth=1;" parent="1" vertex="1">
                    <mxGeometry x="-2024" y="154.5" width="120" height="60" as="geometry"/>
                </mxCell>
                <mxCell id="1369" value="Expose" style="edgeStyle=none;html=1;entryX=0.5;entryY=0;entryDx=0;entryDy=0;startArrow=diamondThin;startFill=1;endArrow=none;endFill=0;startSize=9;endSize=9;strokeWidth=2;rounded=0;exitX=0.75;exitY=1;exitDx=0;exitDy=0;" parent="1" source="1356" target="1359" edge="1">
                    <mxGeometry x="-0.0583" y="-10" relative="1" as="geometry">
                        <Array as="points">
                            <mxPoint x="-1864" y="120"/>
                            <mxPoint x="-1824" y="120"/>
                        </Array>
                        <mxPoint as="offset"/>
                    </mxGeometry>
                </mxCell>
                <mxCell id="1370" value="Expose" style="edgeStyle=none;html=1;entryX=0.5;entryY=0;entryDx=0;entryDy=0;startArrow=diamondThin;startFill=1;endArrow=none;endFill=0;startSize=9;endSize=9;strokeWidth=2;rounded=0;" parent="1" source="1356" target="1360" edge="1">
                    <mxGeometry x="-0.356" relative="1" as="geometry">
                        <Array as="points">
                            <mxPoint x="-2104" y="54"/>
                        </Array>
                        <mxPoint as="offset"/>
                    </mxGeometry>
                </mxCell>
                <mxCell id="1356" value="Provider" style="rounded=0;whiteSpace=wrap;html=1;strokeWidth=1;" parent="1" vertex="1">
                    <mxGeometry x="-1954" y="23.5" width="120" height="60" as="geometry"/>
                </mxCell>
                <mxCell id="1368" value="Expose" style="edgeStyle=none;html=1;entryX=0.5;entryY=0;entryDx=0;entryDy=0;startArrow=diamondThin;startFill=1;endArrow=none;endFill=0;startSize=9;endSize=9;strokeWidth=2;rounded=0;exitX=0.25;exitY=1;exitDx=0;exitDy=0;" parent="1" source="1356" target="1357" edge="1">
                    <mxGeometry x="-0.0583" y="10" relative="1" as="geometry">
                        <Array as="points">
                            <mxPoint x="-1924" y="120"/>
                            <mxPoint x="-1964" y="120"/>
                        </Array>
                        <mxPoint as="offset"/>
                    </mxGeometry>
                </mxCell>
                <mxCell id="1359" value="STOMP" style="rounded=0;whiteSpace=wrap;html=1;strokeWidth=1;" parent="1" vertex="1">
                    <mxGeometry x="-1884" y="154.5" width="120" height="60" as="geometry"/>
                </mxCell>
                <mxCell id="1378" value="Utilise" style="edgeStyle=none;html=1;entryX=0.5;entryY=0;entryDx=0;entryDy=0;startArrow=none;startFill=0;endArrow=none;endFill=0;startSize=9;endSize=9;strokeWidth=2;rounded=0;" parent="1" source="1358" target="1364" edge="1">
                    <mxGeometry x="-0.3333" relative="1" as="geometry">
                        <Array as="points">
                            <mxPoint x="-510" y="153.5"/>
                        </Array>
                        <mxPoint as="offset"/>
                    </mxGeometry>
                </mxCell>
                <mxCell id="1380" style="edgeStyle=none;html=1;entryX=0.5;entryY=0;entryDx=0;entryDy=0;startArrow=none;startFill=0;endArrow=none;endFill=0;startSize=9;endSize=9;strokeWidth=2;rounded=0;" parent="1" source="1358" target="1379" edge="1">
                    <mxGeometry relative="1" as="geometry">
                        <Array as="points">
                            <mxPoint x="-930" y="153.5"/>
                        </Array>
                    </mxGeometry>
                </mxCell>
                <mxCell id="1381" value="Utilise" style="edgeLabel;html=1;align=center;verticalAlign=middle;resizable=0;points=[];" parent="1380" connectable="0" vertex="1">
                    <mxGeometry x="-0.1048" y="-2" relative="1" as="geometry">
                        <mxPoint x="28" y="2" as="offset"/>
                    </mxGeometry>
                </mxCell>
                <mxCell id="1377" value="Utilise" style="edgeStyle=none;html=1;startArrow=none;startFill=0;endArrow=none;endFill=0;startSize=9;endSize=9;strokeWidth=2;exitX=0.75;exitY=1;exitDx=0;exitDy=0;rounded=0;" parent="1" source="1358" target="1363" edge="1">
                    <mxGeometry x="-0.2" y="-10" relative="1" as="geometry">
                        <Array as="points">
                            <mxPoint x="-690" y="203.5"/>
                            <mxPoint x="-650" y="203.5"/>
                        </Array>
                        <mxPoint as="offset"/>
                    </mxGeometry>
                </mxCell>
                <mxCell id="1358" value="Consumer" style="rounded=0;whiteSpace=wrap;html=1;strokeWidth=1;" parent="1" vertex="1">
                    <mxGeometry x="-780" y="123.5" width="120" height="60" as="geometry"/>
                </mxCell>
                <mxCell id="1362" value="MQTT" style="rounded=0;whiteSpace=wrap;html=1;strokeWidth=1;" parent="1" vertex="1">
                    <mxGeometry x="-850" y="243.5" width="120" height="60" as="geometry"/>
                </mxCell>
                <mxCell id="1171" value="Team" style="rounded=0;whiteSpace=wrap;html=1;strokeWidth=1;" parent="1" vertex="1">
                    <mxGeometry x="-1460" y="405" width="120" height="60" as="geometry"/>
                </mxCell>
            </root>
        </mxGraphModel>
    </diagram>
</mxfile>